<?xml version="1.0" encoding="UTF-8" standalone="no"?>
<!-- Created with Inkscape (http://www.inkscape.org/) -->

<svg
   xmlns:dc="http://purl.org/dc/elements/1.1/"
   xmlns:cc="http://creativecommons.org/ns#"
   xmlns:rdf="http://www.w3.org/1999/02/22-rdf-syntax-ns#"
   xmlns:svg="http://www.w3.org/2000/svg"
   xmlns="http://www.w3.org/2000/svg"
   xmlns:sodipodi="http://sodipodi.sourceforge.net/DTD/sodipodi-0.dtd"
   xmlns:inkscape="http://www.inkscape.org/namespaces/inkscape"
   width="210mm"
   height="297mm"
   viewBox="0 0 744.09448819 1052.3622047"
   id="svg2"
   version="1.1"
   inkscape:version="0.91 r13725"
   sodipodi:docname="2q_pulse.svg">
  <defs
     id="defs4" />
  <sodipodi:namedview
     id="base"
     pagecolor="#ffffff"
     bordercolor="#666666"
     borderopacity="1.0"
     inkscape:pageopacity="0.0"
     inkscape:pageshadow="2"
     inkscape:zoom="2.8"
     inkscape:cx="410.9205"
     inkscape:cy="480.01443"
     inkscape:document-units="px"
     inkscape:current-layer="layer1"
     showgrid="false"
     inkscape:window-width="3008"
     inkscape:window-height="1647"
     inkscape:window-x="0"
     inkscape:window-y="1"
     inkscape:window-maximized="1" />
  <metadata
     id="metadata7">
    <rdf:RDF>
      <cc:Work
         rdf:about="">
        <dc:format>image/svg+xml</dc:format>
        <dc:type
           rdf:resource="http://purl.org/dc/dcmitype/StillImage" />
        <dc:title></dc:title>
      </cc:Work>
    </rdf:RDF>
  </metadata>
  <g
     inkscape:label="Layer 1"
     inkscape:groupmode="layer"
     id="layer1">
    <path
       style="fill:none;fill-rule:evenodd;stroke:#000000;stroke-width:0.30000001;stroke-linecap:round;stroke-linejoin:round;stroke-miterlimit:4;stroke-dasharray:0.30000001, 0.60000002;stroke-dashoffset:0;stroke-opacity:1"
       d="m 544.48532,648.40704 -17.32143,0 -34.64285,0 -17.03608,0 -17.03609,0 -34.64285,0 -17.2707,0 -89.37303,0 -16.94474,0 -34.64285,0 -17.16236,0 -17.16235,0 -34.64285,0 -17.32143,0"
       id="path4214"
       inkscape:connector-curvature="0"
       sodipodi:nodetypes="cccccccccccccc" />
    <path
       style="fill:none;fill-rule:evenodd;stroke:#000000;stroke-width:1px;stroke-linecap:butt;stroke-linejoin:miter;stroke-opacity:1"
       d="m 284.28571,198.07649 55,0"
       id="path4148"
       inkscape:connector-curvature="0" />
    <path
       sodipodi:nodetypes="czzzccccccczzzczzzc"
       inkscape:connector-curvature="0"
       id="path4170"
       d="m 544.48532,455.21536 -17.32143,0 c -5.77381,0 -11.54762,74.84499 -17.32143,74.84499 -5.77381,0 -11.54761,-74.84499 -17.32142,-74.84499 l -17.32143,0 0.57069,0 -17.32143,0 c -10.57203,-2.27284 -39.91308,-24.35351 -45.68689,-24.35351 -5.77381,0 9.0567,16.93665 11.04404,24.35351 l -17.2707,0 -89.37303,0 -16.94474,0 c -5.77381,0 16.81785,23.84842 11.04404,23.84842 -5.77381,0 -39.91308,-23.84842 -45.68689,-23.84842 l -17.16236,0 -17.16235,0 c -5.77381,0 -11.54761,-53.63179 -17.32142,-53.63179 -5.77381,0 -11.54762,53.63179 -17.32143,53.63179 l -17.32143,0"
       style="fill:none;fill-rule:evenodd;stroke:#34a6d6;stroke-width:2;stroke-linecap:round;stroke-linejoin:round;stroke-miterlimit:4;stroke-dasharray:none;stroke-opacity:1" />
    <path
       style="fill:none;fill-rule:evenodd;stroke:#c87295;stroke-width:2;stroke-linecap:round;stroke-linejoin:round;stroke-miterlimit:4;stroke-dasharray:none;stroke-opacity:1"
       d="m 544.48532,543.60371 -17.32143,0 c -5.77381,0 -11.54762,74.84499 -17.32143,74.84499 -5.77381,0 -11.54761,-74.84499 -17.32142,-74.84499 l -17.32143,0 0.57069,0 -17.32143,0 c -5.52127,0.50508 38.37374,39.79118 32.59993,39.79118 -5.77381,0 -61.65398,-39.37936 -67.24278,-39.79118 l -17.2707,0 -89.37303,0 -16.94474,0 c -5.77381,0 -11.54761,-52.4181 -17.32142,-52.4181 -5.77381,0 -11.54762,52.4181 -17.32143,52.4181 l -17.16236,0 -17.16235,0 c -5.77381,0 -11.54761,-53.63179 -17.32142,-53.63179 -5.77381,0 -11.54762,53.63179 -17.32143,53.63179 l -17.32143,0"
       id="path4194"
       inkscape:connector-curvature="0"
       sodipodi:nodetypes="czzzccccccczzzczzzc" />
    <path
       style="fill:none;fill-rule:evenodd;stroke:#000000;stroke-width:0.5;stroke-linecap:round;stroke-linejoin:round;stroke-opacity:1;stroke-miterlimit:4;stroke-dasharray:1, 2;stroke-dashoffset:0"
       d="m 544.48532,455.21536 -17.32143,0 c -5.77381,0 -11.54762,64.996 -17.32143,64.996 -5.77381,0 -11.54761,-64.996 -17.32142,-64.996 l -17.32143,0 0.57069,0 -17.32143,0 c -5.77381,0 -47.9943,-31.17204 -53.76811,-31.17204 -5.77381,0 24.89907,31.17204 19.12526,31.17204 l -17.2707,0 -89.37303,0 -16.94474,0 c -5.77381,0 24.89907,31.17203 19.12526,31.17203 -5.77381,0 -47.9943,-31.17203 -53.76811,-31.17203 l -17.16236,0 -17.16235,0 c -5.77381,0 -11.54761,-64.99601 -17.32142,-64.99601 -5.77381,0 -11.54762,64.99601 -17.32143,64.99601 l -17.32143,0"
       id="path4190"
       inkscape:connector-curvature="0"
       sodipodi:nodetypes="czzzcczzzcczzzczzzc" />
    <path
       sodipodi:nodetypes="czzzcczzzcczzzczzzc"
       inkscape:connector-curvature="0"
       id="path4192"
       d="m 544.48532,543.60371 -17.32143,0 c -5.77381,0 -11.54762,64.996 -17.32143,64.996 -5.77381,0 -11.54761,-64.996 -17.32142,-64.996 l -17.32143,0 0.57069,0 -17.32143,0 c -5.77381,0 25.99938,29.94219 20.22557,29.94219 -5.77381,0 -49.09461,-29.94219 -54.86842,-29.94219 l -17.2707,0 -89.37303,0 -16.94474,0 c -5.77381,0 -11.54762,-64.79247 -17.32143,-64.79247 -5.77381,0 -11.54761,64.79247 -17.32142,64.79247 l -17.16236,0 -17.16235,0 c -5.77381,0 -11.54761,-64.99601 -17.32142,-64.99601 -5.77381,0 -11.54762,64.99601 -17.32143,64.99601 l -17.32143,0"
       style="fill:none;fill-rule:evenodd;stroke:#000000;stroke-width:0.5;stroke-linecap:round;stroke-linejoin:round;stroke-miterlimit:4;stroke-dasharray:1, 2;stroke-dashoffset:0;stroke-opacity:1" />
    <path
       style="fill:none;fill-rule:evenodd;stroke:#000000;stroke-width:0.30000001;stroke-linecap:butt;stroke-linejoin:miter;stroke-miterlimit:4;stroke-dasharray:0.30000001,0.60000002;stroke-dashoffset:0;stroke-opacity:1"
       d="m 213.8998,635.67428 0,12.62692"
       id="path4196"
       inkscape:connector-curvature="0" />
    <path
       inkscape:connector-curvature="0"
       id="path4198"
       d="m 283.34779,635.67428 0,12.62692"
       style="fill:none;fill-rule:evenodd;stroke:#000000;stroke-width:0.30000001;stroke-linecap:butt;stroke-linejoin:miter;stroke-miterlimit:4;stroke-dasharray:0.30000001,0.60000002;stroke-dashoffset:0;stroke-opacity:1" />
    <path
       style="fill:none;fill-rule:evenodd;stroke:#000000;stroke-width:0.30000001;stroke-linecap:butt;stroke-linejoin:miter;stroke-miterlimit:4;stroke-dasharray:0.30000001,0.60000002;stroke-dashoffset:0;stroke-opacity:1"
       d="m 440.93159,635.67428 0,12.62692"
       id="path4200"
       inkscape:connector-curvature="0" />
    <path
       inkscape:connector-curvature="0"
       id="path4202"
       d="m 509.36943,635.67428 0,12.62692"
       style="fill:none;fill-rule:evenodd;stroke:#000000;stroke-width:0.30000001;stroke-linecap:butt;stroke-linejoin:miter;stroke-miterlimit:4;stroke-dasharray:0.30000001,0.60000002;stroke-dashoffset:0;stroke-opacity:1" />
  </g>
</svg>
