<?xml version="1.0" encoding="UTF-8" standalone="no"?>
<!-- Created with Inkscape (http://www.inkscape.org/) -->

<svg
   xmlns:dc="http://purl.org/dc/elements/1.1/"
   xmlns:cc="http://creativecommons.org/ns#"
   xmlns:rdf="http://www.w3.org/1999/02/22-rdf-syntax-ns#"
   xmlns:svg="http://www.w3.org/2000/svg"
   xmlns="http://www.w3.org/2000/svg"
   xmlns:sodipodi="http://sodipodi.sourceforge.net/DTD/sodipodi-0.dtd"
   xmlns:inkscape="http://www.inkscape.org/namespaces/inkscape"
   id="svg2"
   version="1.1"
   inkscape:version="0.91 r13725"
   xml:space="preserve"
   width="1232.7122"
   height="577.70538"
   viewBox="0 0 1232.7122 577.70538"
   sodipodi:docname="vectorspace2.svg"><metadata
     id="metadata8"><rdf:RDF><cc:Work
         rdf:about=""><dc:format>image/svg+xml</dc:format><dc:type
           rdf:resource="http://purl.org/dc/dcmitype/StillImage" /><dc:title></dc:title></cc:Work></rdf:RDF></metadata><defs
     id="defs6" /><sodipodi:namedview
     pagecolor="#ffffff"
     bordercolor="#666666"
     borderopacity="1"
     objecttolerance="10"
     gridtolerance="10"
     guidetolerance="10"
     inkscape:pageopacity="0"
     inkscape:pageshadow="2"
     inkscape:window-width="1713"
     inkscape:window-height="1157"
     id="namedview4"
     showgrid="false"
     inkscape:zoom="0.5759723"
     inkscape:cx="296.54788"
     inkscape:cy="527.36892"
     inkscape:window-x="855"
     inkscape:window-y="239"
     inkscape:window-maximized="0"
     inkscape:current-layer="g10"
     fit-margin-top="1"
     fit-margin-left="1"
     fit-margin-right="1"
     fit-margin-bottom="1" /><g
     id="g10"
     inkscape:groupmode="layer"
     inkscape:label="vectorspace"
     transform="matrix(1.25,0,0,-1.25,-4.787875,1200.0429)"><path
       d="m 98.672,777.17131 64.209,-83.154"
       style="fill:#808080;fill-opacity:1;fill-rule:evenodd;stroke:none"
       id="path52"
       inkscape:connector-curvature="0" /><path
       d="m 100.011,778.21131 0.003,-0.004 48.518,-62.777 3.037,-3.877 2.604,2.009 1.833,-3.786 2.941,-6.637 3.884,-9.005 0.05,-0.117 -0.1,0.078 -7.73,6.036 -5.678,4.524 -3.199,2.731 2.603,2.011 -2.983,3.919 -48.464,62.819 -0.0031,0.004 -0.3343,1.248 0.6392,1.123 0.0079,0.006 1.2481,0.335 1.1232,-0.64 z"
       style="fill:#979797;fill-opacity:1;fill-rule:evenodd;stroke:none"
       id="path54"
       inkscape:connector-curvature="0" /><path
       d="m 278.752,911.56731 -71.458,-97.996"
       style="fill:#808080;fill-opacity:1;fill-rule:evenodd;stroke:none"
       id="path56"
       inkscape:connector-curvature="0" /><path
       d="m 279.747,912.94031 0.008,-0.006 0.67,-1.105 -0.3,-1.257 -0.003,-0.004 -53.938,-74.028 -3.845,-5.231 -3.412,-4.721 1.78,-1.3 -7.019,-6.208 -6.288,-5.419 -0.106,-0.09 0.054,0.128 3.237,7.644 3.765,8.58 1.782,-1.297 3.452,4.693 3.805,5.259 53.995,73.992 1.106,0.67 1.257,-0.3 z"
       style="fill:#979797;fill-opacity:1;fill-rule:evenodd;stroke:none"
       id="path58"
       inkscape:connector-curvature="0" /><path
       d="m 399.011,848.57331 -85.788,-168.483"
       style="fill:#808080;fill-opacity:1;fill-rule:evenodd;stroke:none"
       id="path60"
       inkscape:connector-curvature="0" /><path
       d="m 399.776,850.08631 0.009,-0.004 0.837,-0.985 -0.098,-1.289 -0.002,-0.004 -64.757,-127.256 -6.072,-11.947 -3.51,-6.958 -1.721,-3.516 1.626,-2.487 -12.865,-15.55 5.008,19.551 2.968,0.148 1.831,3.46 3.562,6.931 6.09,11.938 64.82,127.229 0.986,0.836 1.288,-0.097 z"
       style="fill:#979797;fill-opacity:1;fill-rule:evenodd;stroke:none"
       id="path62"
       inkscape:connector-curvature="0" /><path
       d="m 321.207,606.50631 -135.082,-30.971"
       style="fill:#808080;fill-opacity:1;fill-rule:evenodd;stroke:none"
       id="path64"
       inkscape:connector-curvature="0" /><path
       d="m 322.106,607.94031 0.752,-1.05 0.002,-0.01 -0.219,-1.274 -1.051,-0.752 -0.005,-0.001 -102.007,-23.4224 -6.324,-1.4848 0.506,-2.215 -5.45,-0.5272 -9.374,-0.7344 -12.607,-0.9199 -0.204,-0.0143 0.189,0.0757 11.75,4.6645 8.757,3.4226 5.136,1.9 0.509,-2.2143 6.339,1.4187 102.027,23.3578 1.274,-0.22 z"
       style="fill:#979797;fill-opacity:1;fill-rule:evenodd;stroke:none"
       id="path66"
       inkscape:connector-curvature="0" /><path
       d="m 399.11,854.55931 c 3.073,0 5.568,-2.495 5.568,-5.568 0,-3.073 -2.495,-5.568 -5.568,-5.568 -3.073,0 -5.568,2.495 -5.568,5.568 0,3.073 2.495,5.568 5.568,5.568 z"
       style="fill:#000000;fill-opacity:1;fill-rule:evenodd;stroke:none"
       id="path68"
       inkscape:connector-curvature="0" /><path
       d="m 333.224,814.23831 c 3.073,0 5.568,-2.495 5.568,-5.568 0,-3.073 -2.495,-5.568 -5.568,-5.568 -3.073,0 -5.568,2.495 -5.568,5.568 0,3.073 2.495,5.568 5.568,5.568 z"
       style="fill:#000000;fill-opacity:1;fill-rule:evenodd;stroke:none"
       id="path70"
       inkscape:connector-curvature="0" /><path
       d="m 98.4955,783.01531 c 3.0735,0 5.5685,-2.495 5.5685,-5.568 0,-3.073 -2.495,-5.568 -5.5685,-5.568 -3.0732,0 -5.5682,2.495 -5.5682,5.568 0,3.073 2.495,5.568 5.5682,5.568 z"
       style="fill:#000000;fill-opacity:1;fill-rule:evenodd;stroke:none"
       id="path72"
       inkscape:connector-curvature="0" /><path
       d="m 321.194,612.32731 c 3.073,0 5.568,-2.495 5.568,-5.569 0,-3.073 -2.495,-5.568 -5.568,-5.568 -3.073,0 -5.568,2.495 -5.568,5.568 0,3.074 2.495,5.569 5.568,5.569 z"
       style="fill:#000000;fill-opacity:1;fill-rule:evenodd;stroke:none"
       id="path74"
       inkscape:connector-curvature="0" /><path
       d="m 278.456,917.27231 c 3.074,0 5.569,-2.495 5.569,-5.568 0,-3.074 -2.495,-5.569 -5.569,-5.569 -3.073,0 -5.568,2.495 -5.568,5.569 0,3.073 2.495,5.568 5.568,5.568 z"
       style="fill:#000000;fill-opacity:1;fill-rule:evenodd;stroke:none"
       id="path76"
       inkscape:connector-curvature="0" /><path
       d="m 409.398,939.23231 -0.183,-0.928 c -0.227,-0.01 -0.51,-0.052 -0.851,-0.127 -0.34,-0.075 -0.599,-0.145 -0.778,-0.211 -0.316,-0.122 -0.542,-0.314 -0.68,-0.576 -0.138,-0.263 -0.239,-0.544 -0.304,-0.844 l -2.893,-14.525 c -0.016,-0.075 -0.028,-0.16 -0.037,-0.253 -0.008,-0.094 -0.012,-0.174 -0.012,-0.239 0,-0.197 0.037,-0.371 0.11,-0.521 0.073,-0.15 0.19,-0.286 0.352,-0.407 0.122,-0.085 0.343,-0.169 0.663,-0.254 0.32,-0.084 0.593,-0.131 0.82,-0.14 l -0.182,-0.928 -7.16,0 0.183,0.928 c 0.202,0.019 0.49,0.047 0.863,0.084 0.373,0.038 0.636,0.094 0.79,0.169 0.283,0.122 0.502,0.3 0.656,0.534 0.154,0.235 0.264,0.525 0.328,0.872 l 1.435,7.199 -8.108,0 -1.398,-7.044 c -0.016,-0.075 -0.028,-0.155 -0.036,-0.239 -0.008,-0.085 -0.012,-0.164 -0.012,-0.239 0,-0.188 0.038,-0.366 0.115,-0.535 0.077,-0.168 0.193,-0.304 0.347,-0.407 0.121,-0.085 0.342,-0.169 0.662,-0.254 0.32,-0.084 0.594,-0.131 0.821,-0.14 l -0.183,-0.928 -7.159,0 0.182,0.928 c 0.203,0.019 0.491,0.047 0.863,0.084 0.373,0.038 0.636,0.094 0.79,0.169 0.284,0.122 0.503,0.3 0.657,0.534 0.154,0.235 0.263,0.525 0.328,0.872 l 2.905,14.539 c 0.016,0.075 0.028,0.153 0.036,0.232 0.009,0.08 0.013,0.162 0.013,0.246 0,0.207 -0.035,0.385 -0.104,0.535 -0.069,0.15 -0.192,0.281 -0.37,0.393 -0.195,0.122 -0.438,0.23 -0.73,0.324 -0.291,0.094 -0.551,0.15 -0.778,0.169 l 0.183,0.928 7.159,0 -0.182,-0.928 c -0.227,-0.01 -0.511,-0.052 -0.851,-0.127 -0.34,-0.075 -0.6,-0.145 -0.778,-0.211 -0.316,-0.122 -0.543,-0.314 -0.681,-0.576 -0.138,-0.263 -0.239,-0.544 -0.304,-0.844 l -1.239,-6.285 8.107,0 1.216,6.144 c 0.016,0.075 0.028,0.153 0.036,0.232 0.008,0.08 0.012,0.157 0.012,0.232 0,0.207 -0.034,0.387 -0.103,0.542 -0.069,0.154 -0.193,0.288 -0.371,0.4 -0.194,0.122 -0.437,0.23 -0.729,0.324 -0.292,0.094 -0.551,0.15 -0.778,0.169 l 0.182,0.928 7.16,0 z"
       style="fill:#000000;fill-opacity:1;fill-rule:nonzero;stroke:none"
       id="path78"
       inkscape:connector-curvature="0" /><path
       d="m 409.398,939.23231 -0.183,-0.928 c -0.227,-0.01 -0.51,-0.052 -0.851,-0.127 -0.34,-0.075 -0.599,-0.145 -0.778,-0.211 -0.316,-0.122 -0.542,-0.314 -0.68,-0.576 -0.138,-0.263 -0.239,-0.544 -0.304,-0.844 l -2.893,-14.525 c -0.016,-0.075 -0.028,-0.16 -0.037,-0.253 -0.008,-0.094 -0.012,-0.174 -0.012,-0.239 0,-0.197 0.037,-0.371 0.11,-0.521 0.073,-0.15 0.19,-0.286 0.352,-0.407 0.122,-0.085 0.343,-0.169 0.663,-0.254 0.32,-0.084 0.593,-0.131 0.82,-0.14 l -0.182,-0.928 -7.16,0 0.183,0.928 c 0.202,0.019 0.49,0.047 0.863,0.084 0.373,0.038 0.636,0.094 0.79,0.169 0.283,0.122 0.502,0.3 0.656,0.534 0.154,0.235 0.264,0.525 0.328,0.872 l 1.435,7.199 -8.108,0 -1.398,-7.044 c -0.016,-0.075 -0.028,-0.155 -0.036,-0.239 -0.008,-0.085 -0.012,-0.164 -0.012,-0.239 0,-0.188 0.038,-0.366 0.115,-0.535 0.077,-0.168 0.193,-0.304 0.347,-0.407 0.121,-0.085 0.342,-0.169 0.662,-0.254 0.32,-0.084 0.594,-0.131 0.821,-0.14 l -0.183,-0.928 -7.159,0 0.182,0.928 c 0.203,0.019 0.491,0.047 0.863,0.084 0.373,0.038 0.636,0.094 0.79,0.169 0.284,0.122 0.503,0.3 0.657,0.534 0.154,0.235 0.263,0.525 0.328,0.872 l 2.905,14.539 c 0.016,0.075 0.028,0.153 0.036,0.232 0.009,0.08 0.013,0.162 0.013,0.246 0,0.207 -0.035,0.385 -0.104,0.535 -0.069,0.15 -0.192,0.281 -0.37,0.393 -0.195,0.122 -0.438,0.23 -0.73,0.324 -0.291,0.094 -0.551,0.15 -0.778,0.169 l 0.183,0.928 7.159,0 -0.182,-0.928 c -0.227,-0.01 -0.511,-0.052 -0.851,-0.127 -0.34,-0.075 -0.6,-0.145 -0.778,-0.211 -0.316,-0.122 -0.543,-0.314 -0.681,-0.576 -0.138,-0.263 -0.239,-0.544 -0.304,-0.844 l -1.239,-6.285 8.107,0 1.216,6.144 c 0.016,0.075 0.028,0.153 0.036,0.232 0.008,0.08 0.012,0.157 0.012,0.232 0,0.207 -0.034,0.387 -0.103,0.542 -0.069,0.154 -0.193,0.288 -0.371,0.4 -0.194,0.122 -0.437,0.23 -0.729,0.324 -0.292,0.094 -0.551,0.15 -0.778,0.169 l 0.182,0.928 7.16,0 z"
       style="fill:#000000;fill-opacity:1;fill-rule:nonzero;stroke:none"
       id="path80"
       inkscape:connector-curvature="0" /><path
       d="m 413.106,915.91731 0,2.426 -4.395,0 0,1.14 4.624,6.566 1.016,0 0,-6.566 1.368,0 0,-1.14 -1.368,0 0,-2.426 -1.245,0 z m 0,3.566 0,4.569 -3.172,-4.569 3.172,0 z"
       style="fill:#000000;fill-opacity:1;fill-rule:nonzero;stroke:none"
       id="path82"
       inkscape:connector-curvature="0" /><path
       d="m 416.672,913.26631 0,0.829 c 0.433,0 0.837,0.14 1.21,0.419 0.373,0.278 0.56,0.611 0.56,0.998 0,0.231 -0.093,0.346 -0.277,0.346 -0.041,0 -0.124,-0.016 -0.249,-0.049 -0.129,-0.027 -0.23,-0.041 -0.304,-0.041 -0.258,0 -0.499,0.103 -0.722,0.308 -0.223,0.205 -0.335,0.487 -0.335,0.846 0,0.35 0.115,0.651 0.345,0.902 0.231,0.251 0.549,0.377 0.954,0.377 0.493,0 0.884,-0.183 1.172,-0.55 0.288,-0.366 0.432,-0.867 0.432,-1.503 0,-0.889 -0.272,-1.586 -0.816,-2.091 -0.544,-0.504 -1.2,-0.768 -1.97,-0.791 z"
       style="fill:#000000;fill-opacity:1;fill-rule:nonzero;stroke:none"
       id="path84"
       inkscape:connector-curvature="0" /><path
       d="m 420.868,916.01731 2.426,7.941 c 0.046,0.148 0.069,0.263 0.069,0.346 0,0.244 -0.288,0.366 -0.864,0.366 l 0.221,0.719 c 1.152,0 1.974,0.065 2.467,0.194 l 0.657,0 -1.832,-6.007 c 1.148,1.111 1.956,1.775 2.426,1.994 0.47,0.219 0.892,0.329 1.265,0.329 0.327,0 0.595,-0.068 0.802,-0.204 0.207,-0.136 0.311,-0.315 0.311,-0.536 0,-0.189 -0.068,-0.355 -0.204,-0.498 -0.136,-0.142 -0.328,-0.214 -0.577,-0.214 -0.217,0 -0.449,0.079 -0.698,0.235 -0.152,0.097 -0.297,0.145 -0.436,0.145 -0.479,0 -1.151,-0.417 -2.018,-1.251 0.374,0 0.718,-0.088 1.034,-0.266 0.315,-0.177 0.531,-0.404 0.646,-0.681 0.115,-0.276 0.196,-0.7 0.242,-1.271 0.027,-0.374 0.117,-0.56 0.269,-0.56 0.226,0 0.514,0.327 0.864,0.981 l 0.636,0 c -0.488,-1.239 -1.304,-1.859 -2.447,-1.859 -0.382,0 -0.712,0.099 -0.988,0.297 -0.276,0.198 -0.415,0.489 -0.415,0.871 0,0.157 0.028,0.396 0.083,0.719 0.051,0.318 0.076,0.537 0.076,0.657 0,0.391 -0.184,0.587 -0.553,0.587 l -0.677,-0.65 -0.733,-2.384 -2.052,0 z"
       style="fill:#000000;fill-opacity:1;fill-rule:nonzero;stroke:none"
       id="path86"
       inkscape:connector-curvature="0" /><path
       d="m 193.69,711.01331 -0.183,-0.928 c -0.227,-0.01 -0.51,-0.052 -0.851,-0.127 -0.34,-0.075 -0.599,-0.145 -0.778,-0.211 -0.316,-0.122 -0.543,-0.314 -0.68,-0.576 -0.138,-0.263 -0.239,-0.544 -0.304,-0.844 l -2.893,-14.525 c -0.016,-0.075 -0.028,-0.16 -0.037,-0.253 -0.008,-0.094 -0.012,-0.174 -0.012,-0.239 0,-0.197 0.037,-0.371 0.11,-0.521 0.073,-0.15 0.19,-0.286 0.352,-0.407 0.122,-0.085 0.343,-0.169 0.663,-0.254 0.32,-0.084 0.593,-0.131 0.82,-0.14 l -0.182,-0.928 -7.16,0 0.183,0.928 c 0.202,0.019 0.49,0.047 0.863,0.084 0.373,0.038 0.636,0.094 0.79,0.169 0.283,0.122 0.502,0.3 0.656,0.534 0.154,0.235 0.264,0.525 0.328,0.872 l 1.435,7.199 -8.108,0 -1.398,-7.044 c -0.016,-0.075 -0.028,-0.155 -0.036,-0.239 -0.008,-0.085 -0.012,-0.164 -0.012,-0.239 0,-0.188 0.038,-0.366 0.115,-0.535 0.077,-0.168 0.193,-0.304 0.347,-0.407 0.121,-0.085 0.342,-0.169 0.662,-0.254 0.32,-0.084 0.594,-0.131 0.821,-0.14 l -0.183,-0.928 -7.159,0 0.182,0.928 c 0.203,0.019 0.491,0.047 0.863,0.084 0.373,0.038 0.636,0.094 0.79,0.169 0.284,0.122 0.503,0.3 0.657,0.534 0.154,0.235 0.263,0.525 0.328,0.872 l 2.905,14.539 c 0.016,0.075 0.028,0.153 0.036,0.232 0.009,0.08 0.013,0.162 0.013,0.246 0,0.207 -0.035,0.385 -0.104,0.535 -0.069,0.15 -0.192,0.281 -0.37,0.393 -0.195,0.122 -0.438,0.23 -0.73,0.324 -0.291,0.094 -0.551,0.15 -0.778,0.169 l 0.183,0.928 7.159,0 -0.182,-0.928 c -0.227,-0.01 -0.511,-0.052 -0.851,-0.127 -0.341,-0.075 -0.6,-0.145 -0.778,-0.211 -0.316,-0.122 -0.543,-0.314 -0.681,-0.576 -0.138,-0.263 -0.239,-0.544 -0.304,-0.844 l -1.239,-6.285 8.107,0 1.215,6.144 c 0.017,0.075 0.029,0.153 0.037,0.232 0.008,0.08 0.012,0.157 0.012,0.232 0,0.207 -0.034,0.387 -0.103,0.542 -0.069,0.154 -0.193,0.288 -0.371,0.4 -0.194,0.122 -0.438,0.23 -0.729,0.324 -0.292,0.094 -0.551,0.15 -0.778,0.169 l 0.182,0.928 7.16,0 z"
       style="fill:#000000;fill-opacity:1;fill-rule:nonzero;stroke:none"
       id="path88"
       inkscape:connector-curvature="0" /><path
       d="m 193.69,711.01331 -0.183,-0.928 c -0.227,-0.01 -0.51,-0.052 -0.851,-0.127 -0.34,-0.075 -0.599,-0.145 -0.778,-0.211 -0.316,-0.122 -0.543,-0.314 -0.68,-0.576 -0.138,-0.263 -0.239,-0.544 -0.304,-0.844 l -2.893,-14.525 c -0.016,-0.075 -0.028,-0.16 -0.037,-0.253 -0.008,-0.094 -0.012,-0.174 -0.012,-0.239 0,-0.197 0.037,-0.371 0.11,-0.521 0.073,-0.15 0.19,-0.286 0.352,-0.407 0.122,-0.085 0.343,-0.169 0.663,-0.254 0.32,-0.084 0.593,-0.131 0.82,-0.14 l -0.182,-0.928 -7.16,0 0.183,0.928 c 0.202,0.019 0.49,0.047 0.863,0.084 0.373,0.038 0.636,0.094 0.79,0.169 0.283,0.122 0.502,0.3 0.656,0.534 0.154,0.235 0.264,0.525 0.328,0.872 l 1.435,7.199 -8.108,0 -1.398,-7.044 c -0.016,-0.075 -0.028,-0.155 -0.036,-0.239 -0.008,-0.085 -0.012,-0.164 -0.012,-0.239 0,-0.188 0.038,-0.366 0.115,-0.535 0.077,-0.168 0.193,-0.304 0.347,-0.407 0.121,-0.085 0.342,-0.169 0.662,-0.254 0.32,-0.084 0.594,-0.131 0.821,-0.14 l -0.183,-0.928 -7.159,0 0.182,0.928 c 0.203,0.019 0.491,0.047 0.863,0.084 0.373,0.038 0.636,0.094 0.79,0.169 0.284,0.122 0.503,0.3 0.657,0.534 0.154,0.235 0.263,0.525 0.328,0.872 l 2.905,14.539 c 0.016,0.075 0.028,0.153 0.036,0.232 0.009,0.08 0.013,0.162 0.013,0.246 0,0.207 -0.035,0.385 -0.104,0.535 -0.069,0.15 -0.192,0.281 -0.37,0.393 -0.195,0.122 -0.438,0.23 -0.73,0.324 -0.291,0.094 -0.551,0.15 -0.778,0.169 l 0.183,0.928 7.159,0 -0.182,-0.928 c -0.227,-0.01 -0.511,-0.052 -0.851,-0.127 -0.341,-0.075 -0.6,-0.145 -0.778,-0.211 -0.316,-0.122 -0.543,-0.314 -0.681,-0.576 -0.138,-0.263 -0.239,-0.544 -0.304,-0.844 l -1.239,-6.285 8.107,0 1.215,6.144 c 0.017,0.075 0.029,0.153 0.037,0.232 0.008,0.08 0.012,0.157 0.012,0.232 0,0.207 -0.034,0.387 -0.103,0.542 -0.069,0.154 -0.193,0.288 -0.371,0.4 -0.194,0.122 -0.438,0.23 -0.729,0.324 -0.292,0.094 -0.551,0.15 -0.778,0.169 l 0.182,0.928 7.16,0 z"
       style="fill:#000000;fill-opacity:1;fill-rule:nonzero;stroke:none"
       id="path90"
       inkscape:connector-curvature="0" /><path
       d="m 193.41,690.35231 1.307,0.11 c 0.096,-0.636 0.321,-1.114 0.674,-1.434 0.352,-0.32 0.777,-0.48 1.275,-0.48 0.599,0 1.106,0.226 1.52,0.677 0.415,0.452 0.622,1.051 0.622,1.797 0,0.71 -0.199,1.27 -0.597,1.68 -0.399,0.41 -0.921,0.615 -1.566,0.615 -0.401,0 -0.763,-0.091 -1.085,-0.273 -0.323,-0.182 -0.576,-0.418 -0.76,-0.709 l -1.168,0.152 0.981,5.205 5.039,0 0,-1.189 -4.044,0 -0.546,-2.723 c 0.608,0.424 1.247,0.636 1.915,0.636 0.884,0 1.631,-0.307 2.239,-0.92 0.608,-0.612 0.912,-1.4 0.912,-2.363 0,-0.917 -0.267,-1.71 -0.801,-2.378 -0.65,-0.82 -1.537,-1.23 -2.661,-1.23 -0.922,0 -1.674,0.258 -2.257,0.774 -0.583,0.516 -0.916,1.2 -0.999,2.053 z"
       style="fill:#000000;fill-opacity:1;fill-rule:nonzero;stroke:none"
       id="path92"
       inkscape:connector-curvature="0" /><path
       d="m 201.258,684.95131 0,0.83 c 0.434,0 0.837,0.139 1.21,0.418 0.373,0.279 0.56,0.611 0.56,0.998 0,0.231 -0.092,0.346 -0.277,0.346 -0.041,0 -0.124,-0.016 -0.248,-0.048 -0.13,-0.028 -0.231,-0.042 -0.305,-0.042 -0.258,0 -0.498,0.103 -0.722,0.308 -0.223,0.205 -0.335,0.487 -0.335,0.846 0,0.351 0.115,0.651 0.345,0.902 0.231,0.252 0.549,0.377 0.954,0.377 0.493,0 0.884,-0.183 1.172,-0.549 0.288,-0.367 0.432,-0.868 0.432,-1.504 0,-0.889 -0.272,-1.586 -0.816,-2.09 -0.543,-0.505 -1.2,-0.769 -1.97,-0.792 z"
       style="fill:#000000;fill-opacity:1;fill-rule:nonzero;stroke:none"
       id="path94"
       inkscape:connector-curvature="0" /><path
       d="m 205.454,687.70231 2.426,7.941 c 0.046,0.148 0.069,0.263 0.069,0.346 0,0.244 -0.288,0.366 -0.864,0.366 l 0.221,0.719 c 1.152,0 1.975,0.065 2.468,0.194 l 0.656,0 -1.831,-6.006 c 1.147,1.11 1.956,1.775 2.426,1.994 0.47,0.218 0.891,0.328 1.264,0.328 0.328,0 0.595,-0.068 0.802,-0.204 0.207,-0.136 0.311,-0.315 0.311,-0.536 0,-0.189 -0.068,-0.355 -0.204,-0.497 -0.136,-0.143 -0.328,-0.215 -0.577,-0.215 -0.216,0 -0.449,0.079 -0.698,0.235 -0.152,0.097 -0.297,0.146 -0.435,0.146 -0.48,0 -1.152,-0.417 -2.019,-1.251 0.374,0 0.718,-0.089 1.034,-0.267 0.315,-0.177 0.531,-0.404 0.646,-0.68 0.115,-0.277 0.196,-0.701 0.242,-1.272 0.028,-0.373 0.117,-0.56 0.269,-0.56 0.226,0 0.514,0.327 0.864,0.981 l 0.636,0 c -0.488,-1.239 -1.304,-1.859 -2.446,-1.859 -0.383,0 -0.712,0.099 -0.989,0.297 -0.276,0.199 -0.415,0.489 -0.415,0.871 0,0.157 0.028,0.397 0.083,0.719 0.051,0.318 0.076,0.537 0.076,0.657 0,0.391 -0.184,0.587 -0.552,0.587 l -0.678,-0.649 -0.732,-2.385 -2.053,0 z"
       style="fill:#000000;fill-opacity:1;fill-rule:nonzero;stroke:none"
       id="path96"
       inkscape:connector-curvature="0" /><path
       d="m 307.23,688.00731 -0.182,-0.928 c -0.227,-0.009 -0.511,-0.051 -0.851,-0.126 -0.341,-0.075 -0.6,-0.146 -0.778,-0.211 -0.316,-0.122 -0.543,-0.314 -0.681,-0.577 -0.138,-0.262 -0.239,-0.543 -0.304,-0.843 l -2.893,-14.526 c -0.016,-0.075 -0.028,-0.159 -0.036,-0.253 -0.008,-0.094 -0.012,-0.173 -0.012,-0.239 0,-0.197 0.036,-0.37 0.109,-0.52 0.073,-0.15 0.191,-0.286 0.353,-0.408 0.121,-0.084 0.342,-0.169 0.662,-0.253 0.32,-0.084 0.594,-0.131 0.821,-0.141 l -0.183,-0.928 -7.159,0 0.182,0.928 c 0.203,0.019 0.49,0.047 0.863,0.085 0.373,0.037 0.636,0.094 0.79,0.169 0.284,0.121 0.503,0.299 0.657,0.534 0.154,0.234 0.263,0.525 0.328,0.872 l 1.434,7.199 -8.107,0 -1.398,-7.045 c -0.016,-0.075 -0.028,-0.154 -0.037,-0.239 -0.008,-0.084 -0.012,-0.164 -0.012,-0.239 0,-0.187 0.039,-0.365 0.116,-0.534 0.077,-0.169 0.192,-0.305 0.346,-0.408 0.122,-0.084 0.343,-0.169 0.663,-0.253 0.32,-0.084 0.593,-0.131 0.82,-0.141 l -0.182,-0.928 -7.16,0 0.183,0.928 c 0.202,0.019 0.49,0.047 0.863,0.085 0.372,0.037 0.636,0.094 0.79,0.169 0.283,0.121 0.502,0.299 0.656,0.534 0.154,0.234 0.264,0.525 0.328,0.872 l 2.905,14.539 c 0.017,0.075 0.029,0.152 0.037,0.232 0.008,0.08 0.012,0.162 0.012,0.246 0,0.206 -0.034,0.384 -0.103,0.534 -0.069,0.15 -0.193,0.282 -0.371,0.394 -0.194,0.122 -0.438,0.23 -0.729,0.323 -0.292,0.094 -0.551,0.15 -0.778,0.169 l 0.182,0.928 7.159,0 -0.182,-0.928 c -0.227,-0.009 -0.51,-0.051 -0.851,-0.126 -0.34,-0.075 -0.599,-0.146 -0.778,-0.211 -0.316,-0.122 -0.543,-0.314 -0.68,-0.577 -0.138,-0.262 -0.239,-0.543 -0.304,-0.843 l -1.24,-6.286 8.107,0 1.216,6.145 c 0.016,0.075 0.028,0.152 0.036,0.232 0.009,0.08 0.013,0.157 0.013,0.232 0,0.206 -0.035,0.387 -0.104,0.541 -0.069,0.155 -0.192,0.289 -0.37,0.401 -0.195,0.122 -0.438,0.23 -0.73,0.323 -0.292,0.094 -0.551,0.15 -0.778,0.169 l 0.183,0.928 7.159,0 z"
       style="fill:#000000;fill-opacity:1;fill-rule:nonzero;stroke:none"
       id="path98"
       inkscape:connector-curvature="0" /><path
       d="m 309.759,664.52231 -1.244,0 0,7.927 c -0.299,-0.285 -0.692,-0.571 -1.178,-0.857 -0.486,-0.285 -0.923,-0.5 -1.31,-0.642 l 0,1.202 c 0.696,0.327 1.304,0.724 1.825,1.189 0.52,0.465 0.889,0.917 1.105,1.355 l 0.802,0 0,-10.174 z"
       style="fill:#000000;fill-opacity:1;fill-rule:nonzero;stroke:none"
       id="path100"
       inkscape:connector-curvature="0" /><path
       d="m 312.106,662.03331 0,0.83 c 0.433,0 0.836,0.139 1.209,0.418 0.374,0.279 0.56,0.611 0.56,0.999 0,0.23 -0.092,0.345 -0.276,0.345 -0.042,0 -0.125,-0.016 -0.249,-0.048 -0.129,-0.028 -0.231,-0.042 -0.304,-0.042 -0.258,0 -0.499,0.103 -0.723,0.308 -0.223,0.205 -0.335,0.487 -0.335,0.847 0,0.35 0.115,0.65 0.346,0.901 0.23,0.252 0.548,0.377 0.954,0.377 0.493,0 0.883,-0.183 1.171,-0.549 0.288,-0.367 0.432,-0.868 0.432,-1.504 0,-0.889 -0.272,-1.586 -0.815,-2.09 -0.544,-0.505 -1.201,-0.769 -1.97,-0.792 z"
       style="fill:#000000;fill-opacity:1;fill-rule:nonzero;stroke:none"
       id="path102"
       inkscape:connector-curvature="0" /><path
       d="m 316.301,664.78431 2.426,7.942 c 0.046,0.147 0.069,0.262 0.069,0.345 0,0.244 -0.288,0.366 -0.864,0.366 l 0.221,0.719 c 1.152,0 1.975,0.065 2.468,0.194 l 0.657,0 -1.832,-6.006 c 1.147,1.11 1.956,1.775 2.426,1.994 0.47,0.218 0.892,0.328 1.265,0.328 0.327,0 0.594,-0.068 0.801,-0.204 0.208,-0.136 0.312,-0.314 0.312,-0.536 0,-0.189 -0.068,-0.354 -0.204,-0.497 -0.136,-0.143 -0.329,-0.215 -0.578,-0.215 -0.216,0 -0.449,0.079 -0.698,0.235 -0.152,0.097 -0.297,0.146 -0.435,0.146 -0.479,0 -1.152,-0.417 -2.018,-1.251 0.373,0 0.717,-0.089 1.033,-0.267 0.316,-0.177 0.531,-0.404 0.646,-0.68 0.116,-0.277 0.196,-0.701 0.242,-1.272 0.028,-0.373 0.118,-0.56 0.27,-0.56 0.226,0 0.514,0.327 0.864,0.982 l 0.636,0 c -0.489,-1.24 -1.304,-1.86 -2.447,-1.86 -0.383,0 -0.712,0.099 -0.988,0.298 -0.277,0.198 -0.415,0.488 -0.415,0.87 0,0.157 0.027,0.397 0.083,0.719 0.05,0.318 0.076,0.537 0.076,0.657 0,0.391 -0.185,0.587 -0.553,0.587 l -0.677,-0.649 -0.733,-2.385 -2.053,0 z"
       style="fill:#000000;fill-opacity:1;fill-rule:nonzero;stroke:none"
       id="path104"
       inkscape:connector-curvature="0" /><path
       d="m 177.976,578.53361 -0.182,-0.928 c -0.227,-0.009 -0.51,-0.0516 -0.851,-0.1266 -0.34,-0.075 -0.599,-0.1453 -0.778,-0.2109 -0.316,-0.1219 -0.543,-0.3141 -0.68,-0.5765 -0.138,-0.2625 -0.239,-0.5437 -0.304,-0.8437 l -2.893,-14.5252 c -0.016,-0.075 -0.029,-0.1594 -0.037,-0.2531 -0.008,-0.0938 -0.012,-0.1734 -0.012,-0.2391 0,-0.1968 0.037,-0.3702 0.11,-0.5202 0.072,-0.15 0.19,-0.2859 0.352,-0.4078 0.122,-0.0844 0.342,-0.1687 0.662,-0.2531 0.321,-0.0844 0.594,-0.1312 0.821,-0.1406 l -0.182,-0.9281 -7.16,0 0.183,0.9281 c 0.202,0.0187 0.49,0.0469 0.863,0.0843 0.372,0.0375 0.636,0.0938 0.79,0.1688 0.283,0.1218 0.502,0.3 0.656,0.5343 0.154,0.2344 0.263,0.525 0.328,0.8718 l 1.435,7.1993 -8.108,0 -1.398,-7.0446 c -0.016,-0.075 -0.028,-0.1547 -0.036,-0.2391 -0.008,-0.0843 -0.012,-0.164 -0.012,-0.239 0,-0.1875 0.038,-0.3656 0.115,-0.5343 0.077,-0.1688 0.193,-0.3047 0.347,-0.4078 0.121,-0.0844 0.342,-0.1687 0.662,-0.2531 0.32,-0.0844 0.594,-0.1312 0.82,-0.1406 l -0.182,-0.9281 -7.159,0 0.182,0.9281 c 0.203,0.0187 0.49,0.0469 0.863,0.0843 0.373,0.0375 0.636,0.0938 0.79,0.1688 0.284,0.1218 0.503,0.3 0.657,0.5343 0.154,0.2344 0.263,0.525 0.328,0.8718 l 2.905,14.5393 c 0.016,0.075 0.028,0.1523 0.036,0.232 0.008,0.0797 0.012,0.1617 0.012,0.2461 0,0.2062 -0.034,0.3843 -0.103,0.5343 -0.069,0.15 -0.192,0.2812 -0.371,0.3937 -0.194,0.1219 -0.437,0.2297 -0.729,0.3234 -0.292,0.0938 -0.551,0.15 -0.778,0.1688 l 0.182,0.928 7.16,0 -0.182,-0.928 c -0.227,-0.009 -0.511,-0.0516 -0.851,-0.1266 -0.341,-0.075 -0.6,-0.1453 -0.778,-0.2109 -0.316,-0.1219 -0.543,-0.3141 -0.681,-0.5765 -0.138,-0.2625 -0.239,-0.5437 -0.304,-0.8437 l -1.24,-6.2854 8.108,0 1.215,6.1448 c 0.017,0.075 0.029,0.1523 0.037,0.232 0.008,0.0797 0.012,0.157 0.012,0.232 0,0.2062 -0.034,0.3867 -0.103,0.5414 -0.069,0.1546 -0.193,0.2882 -0.371,0.4007 -0.195,0.1219 -0.438,0.2297 -0.729,0.3234 -0.292,0.0938 -0.551,0.15 -0.778,0.1688 l 0.182,0.928 7.159,0 z"
       style="fill:#000000;fill-opacity:1;fill-rule:nonzero;stroke:none"
       id="path106"
       inkscape:connector-curvature="0" /><path
       d="m 176.115,557.91521 1.244,0.1658 c 0.143,-0.7049 0.386,-1.213 0.729,-1.524 0.343,-0.311 0.761,-0.4665 1.255,-0.4665 0.585,0 1.079,0.2027 1.482,0.6082 0.403,0.4055 0.605,0.9077 0.605,1.5067 0,0.5714 -0.187,1.0426 -0.56,1.4135 -0.373,0.3709 -0.848,0.5564 -1.424,0.5564 -0.235,0 -0.527,-0.0461 -0.878,-0.1383 l 0.139,1.0921 c 0.083,-0.009 0.149,-0.0138 0.2,-0.0138 0.53,0 1.007,0.1382 1.431,0.4146 0.424,0.2765 0.636,0.7027 0.636,1.2787 0,0.4562 -0.155,0.834 -0.463,1.1335 -0.309,0.2995 -0.708,0.4493 -1.196,0.4493 -0.484,0 -0.887,-0.1521 -1.21,-0.4562 -0.322,-0.3041 -0.53,-0.7603 -0.622,-1.3685 l -1.244,0.2212 c 0.152,0.834 0.498,1.4802 1.037,1.9387 0.539,0.4585 1.209,0.6877 2.011,0.6877 0.553,0 1.062,-0.1187 1.528,-0.356 0.465,-0.2373 0.821,-0.561 1.068,-0.971 0.246,-0.4101 0.369,-0.8456 0.369,-1.3063 0,-0.4378 -0.117,-0.8364 -0.352,-1.1958 -0.235,-0.3594 -0.583,-0.645 -1.044,-0.857 0.599,-0.1382 1.065,-0.4251 1.396,-0.8605 0.332,-0.4354 0.498,-0.9803 0.498,-1.6346 0,-0.8847 -0.323,-1.6346 -0.968,-2.2497 -0.645,-0.6152 -1.46,-0.9227 -2.446,-0.9227 -0.89,0 -1.628,0.2649 -2.216,0.7948 -0.587,0.5299 -0.922,1.2164 -1.005,2.0597 z"
       style="fill:#000000;fill-opacity:1;fill-rule:nonzero;stroke:none"
       id="path108"
       inkscape:connector-curvature="0" /><path
       d="m 183.808,552.42321 0,0.8294 c 0.433,0 0.836,0.1394 1.209,0.4181 0.373,0.2788 0.56,0.6117 0.56,0.9988 0,0.2304 -0.092,0.3456 -0.277,0.3456 -0.041,0 -0.124,-0.0162 -0.248,-0.0484 -0.129,-0.0277 -0.231,-0.0415 -0.304,-0.0415 -0.258,0 -0.499,0.1025 -0.723,0.3076 -0.223,0.205 -0.335,0.4872 -0.335,0.8466 0,0.3502 0.115,0.6509 0.346,0.902 0.23,0.2511 0.548,0.3767 0.953,0.3767 0.493,0 0.884,-0.1832 1.172,-0.5495 0.288,-0.3663 0.432,-0.8674 0.432,-1.5033 0,-0.8893 -0.272,-1.5862 -0.816,-2.0907 -0.543,-0.5046 -1.2,-0.7684 -1.969,-0.7914 z"
       style="fill:#000000;fill-opacity:1;fill-rule:nonzero;stroke:none"
       id="path110"
       inkscape:connector-curvature="0" /><path
       d="m 188.003,555.17401 2.426,7.9415 c 0.046,0.1474 0.069,0.2626 0.069,0.3456 0,0.2442 -0.288,0.3663 -0.864,0.3663 l 0.221,0.7188 c 1.152,0 1.975,0.0645 2.468,0.1935 l 0.656,0 -1.831,-6.0062 c 1.147,1.1105 1.956,1.7752 2.426,1.994 0.47,0.2189 0.891,0.3283 1.265,0.3283 0.327,0 0.594,-0.0679 0.801,-0.2039 0.208,-0.1359 0.311,-0.3144 0.311,-0.5356 0,-0.1889 -0.068,-0.3548 -0.204,-0.4977 -0.136,-0.1428 -0.328,-0.2142 -0.577,-0.2142 -0.216,0 -0.449,0.0783 -0.698,0.235 -0.152,0.0967 -0.297,0.1451 -0.435,0.1451 -0.479,0 -1.152,-0.417 -2.018,-1.251 0.373,0 0.717,-0.0887 1.033,-0.2661 0.316,-0.1774 0.531,-0.4043 0.646,-0.6808 0.115,-0.2764 0.196,-0.7004 0.242,-1.2717 0.028,-0.3732 0.118,-0.5599 0.27,-0.5599 0.225,0 0.513,0.3272 0.864,0.9815 l 0.635,0 c -0.488,-1.2395 -1.304,-1.8592 -2.446,-1.8592 -0.383,0 -0.712,0.099 -0.989,0.2972 -0.276,0.1981 -0.414,0.4884 -0.414,0.8708 0,0.1567 0.027,0.3963 0.083,0.7188 0.05,0.318 0.076,0.5368 0.076,0.6566 0,0.3917 -0.185,0.5875 -0.553,0.5875 l -0.678,-0.6497 -0.732,-2.3845 -2.053,0 z"
       style="fill:#000000;fill-opacity:1;fill-rule:nonzero;stroke:none"
       id="path112"
       inkscape:connector-curvature="0" /><path
       d="m 197.859,816.50231 -0.182,-0.928 c -0.227,-0.009 -0.511,-0.051 -0.851,-0.126 -0.341,-0.075 -0.6,-0.145 -0.778,-0.211 -0.316,-0.122 -0.543,-0.314 -0.681,-0.577 -0.138,-0.262 -0.239,-0.543 -0.304,-0.843 l -2.893,-14.526 c -0.016,-0.075 -0.028,-0.159 -0.036,-0.253 -0.008,-0.093 -0.012,-0.173 -0.012,-0.239 0,-0.197 0.036,-0.37 0.109,-0.52 0.073,-0.15 0.19,-0.286 0.353,-0.408 0.121,-0.084 0.342,-0.168 0.662,-0.253 0.32,-0.084 0.594,-0.131 0.82,-0.14 l -0.182,-0.928 -7.159,0 0.182,0.928 c 0.203,0.018 0.49,0.046 0.863,0.084 0.373,0.037 0.636,0.094 0.79,0.169 0.284,0.122 0.503,0.3 0.657,0.534 0.154,0.234 0.263,0.525 0.328,0.872 l 1.434,7.199 -8.107,0 -1.398,-7.045 c -0.016,-0.075 -0.029,-0.154 -0.037,-0.239 -0.008,-0.084 -0.012,-0.164 -0.012,-0.239 0,-0.187 0.039,-0.365 0.116,-0.534 0.077,-0.169 0.192,-0.305 0.346,-0.408 0.122,-0.084 0.342,-0.168 0.663,-0.253 0.32,-0.084 0.593,-0.131 0.82,-0.14 l -0.182,-0.928 -7.16,0 0.183,0.928 c 0.202,0.018 0.49,0.046 0.863,0.084 0.372,0.037 0.636,0.094 0.79,0.169 0.283,0.122 0.502,0.3 0.656,0.534 0.154,0.234 0.263,0.525 0.328,0.872 l 2.905,14.539 c 0.017,0.075 0.029,0.152 0.037,0.232 0.008,0.08 0.012,0.162 0.012,0.246 0,0.206 -0.034,0.385 -0.103,0.534 -0.069,0.15 -0.193,0.282 -0.371,0.394 -0.195,0.122 -0.438,0.23 -0.729,0.324 -0.292,0.093 -0.551,0.15 -0.778,0.168 l 0.182,0.928 7.159,0 -0.182,-0.928 c -0.227,-0.009 -0.51,-0.051 -0.851,-0.126 -0.34,-0.075 -0.599,-0.145 -0.778,-0.211 -0.316,-0.122 -0.543,-0.314 -0.68,-0.577 -0.138,-0.262 -0.239,-0.543 -0.304,-0.843 l -1.24,-6.286 8.107,0 1.216,6.145 c 0.016,0.075 0.028,0.152 0.036,0.232 0.008,0.08 0.012,0.157 0.012,0.232 0,0.206 -0.034,0.387 -0.103,0.541 -0.069,0.155 -0.192,0.289 -0.371,0.401 -0.194,0.122 -0.437,0.23 -0.729,0.324 -0.292,0.093 -0.551,0.15 -0.778,0.168 l 0.183,0.928 7.159,0 z"
       style="fill:#000000;fill-opacity:1;fill-rule:nonzero;stroke:none"
       id="path114"
       inkscape:connector-curvature="0" /><path
       d="m 203.342,794.40531 0,-1.196 -6.697,0 c -0.01,0.3 0.039,0.588 0.145,0.864 0.17,0.456 0.443,0.906 0.819,1.348 0.375,0.442 0.918,0.954 1.628,1.534 1.101,0.903 1.845,1.619 2.232,2.146 0.387,0.528 0.581,1.027 0.581,1.497 0,0.493 -0.177,0.909 -0.529,1.247 -0.353,0.339 -0.812,0.508 -1.379,0.508 -0.599,0 -1.078,-0.179 -1.438,-0.539 -0.359,-0.359 -0.541,-0.857 -0.546,-1.493 l -1.278,0.132 c 0.087,0.953 0.417,1.68 0.988,2.18 0.571,0.5 1.339,0.75 2.302,0.75 0.972,0 1.741,-0.269 2.308,-0.809 0.567,-0.539 0.85,-1.207 0.85,-2.004 0,-0.405 -0.083,-0.804 -0.249,-1.196 -0.165,-0.391 -0.441,-0.804 -0.826,-1.237 -0.384,-0.433 -1.024,-1.027 -1.917,-1.783 -0.747,-0.627 -1.226,-1.052 -1.438,-1.275 -0.212,-0.224 -0.387,-0.448 -0.525,-0.674 l 4.969,0 z"
       style="fill:#000000;fill-opacity:1;fill-rule:nonzero;stroke:none"
       id="path116"
       inkscape:connector-curvature="0" /><path
       d="m 205.162,790.76231 0,0.829 c 0.433,0 0.836,0.139 1.21,0.418 0.373,0.279 0.559,0.612 0.559,0.999 0,0.23 -0.092,0.346 -0.276,0.346 -0.042,0 -0.124,-0.017 -0.249,-0.049 -0.129,-0.027 -0.23,-0.041 -0.304,-0.041 -0.258,0 -0.499,0.102 -0.722,0.307 -0.224,0.205 -0.335,0.488 -0.335,0.847 0,0.35 0.115,0.651 0.345,0.902 0.23,0.251 0.548,0.377 0.954,0.377 0.493,0 0.883,-0.184 1.171,-0.55 0.288,-0.366 0.432,-0.867 0.432,-1.503 0,-0.889 -0.271,-1.586 -0.815,-2.091 -0.544,-0.504 -1.2,-0.768 -1.97,-0.791 z"
       style="fill:#000000;fill-opacity:1;fill-rule:nonzero;stroke:none"
       id="path118"
       inkscape:connector-curvature="0" /><path
       d="m 209.357,793.51331 2.426,7.941 c 0.046,0.147 0.069,0.263 0.069,0.346 0,0.244 -0.288,0.366 -0.863,0.366 l 0.221,0.719 c 1.152,0 1.974,0.064 2.467,0.193 l 0.657,0 -1.832,-6.006 c 1.148,1.11 1.956,1.775 2.426,1.994 0.47,0.219 0.892,0.328 1.265,0.328 0.327,0 0.594,-0.068 0.802,-0.204 0.207,-0.136 0.311,-0.314 0.311,-0.535 0,-0.189 -0.068,-0.355 -0.204,-0.498 -0.136,-0.143 -0.328,-0.214 -0.577,-0.214 -0.217,0 -0.45,0.078 -0.698,0.235 -0.152,0.097 -0.298,0.145 -0.436,0.145 -0.479,0 -1.152,-0.417 -2.018,-1.251 0.373,0 0.718,-0.089 1.033,-0.266 0.316,-0.177 0.531,-0.404 0.647,-0.681 0.115,-0.276 0.195,-0.7 0.241,-1.272 0.028,-0.373 0.118,-0.559 0.27,-0.559 0.226,0 0.514,0.327 0.864,0.981 l 0.636,0 c -0.489,-1.24 -1.304,-1.859 -2.447,-1.859 -0.382,0 -0.712,0.099 -0.988,0.297 -0.277,0.198 -0.415,0.488 -0.415,0.871 0,0.156 0.028,0.396 0.083,0.719 0.051,0.318 0.076,0.536 0.076,0.656 0,0.392 -0.184,0.588 -0.553,0.588 l -0.677,-0.65 -0.733,-2.384 -2.053,0 z"
       style="fill:#000000;fill-opacity:1;fill-rule:nonzero;stroke:none"
       id="path120"
       inkscape:connector-curvature="0" /><path
       d="m 238.88,739.65431 0.307,-0.733 0,-225.8619 0.071,-0.6232 2.967,-0.002 -4.083,-13.7642 -4.083,13.7642 2.967,0.002 0.072,0.6232 0,225.8619 0.307,0.733 0.732,0.307 0.01,0 0.733,-0.307 z"
       style="fill:#000000;fill-opacity:1;fill-rule:evenodd;stroke:none"
       id="path122"
       inkscape:connector-curvature="0" /><path
       d="m 18.5899,730.06731 0.632,-0.071 229.0301,0 0.732,-0.307 0.307,-0.733 0,-0.01 -0.307,-0.732 -0.732,-0.307 -229.0301,0 -0.632,-0.071 -0.0024,-2.968 -13.9572,4.083 13.9572,4.083 0.0024,-2.967 z"
       style="fill:#000000;fill-opacity:1;fill-rule:evenodd;stroke:none"
       id="path124"
       inkscape:connector-curvature="0" /><path
       d="m 242.225,945.46931 -2.967,-0.002 -0.071,-0.623 0,-225.862 -0.307,-0.733 -0.733,-0.307 -0.01,0 -0.732,0.307 -0.307,0.733 0,225.862 -0.072,0.623 -2.967,0.002 4.083,13.765 4.083,-13.765 z"
       style="fill:#000000;fill-opacity:1;fill-rule:evenodd;stroke:none"
       id="path126"
       inkscape:connector-curvature="0" /><path
       d="m 471.654,728.95131 -13.957,-4.083 -0.003,2.968 -0.632,0.071 -229.029,0 -0.733,0.307 -0.307,0.732 0,0.01 0.307,0.733 0.733,0.307 229.029,0 0.632,0.071 0.003,2.967 13.957,-4.083 z"
       style="fill:#000000;fill-opacity:1;fill-rule:evenodd;stroke:none"
       id="path128"
       inkscape:connector-curvature="0" /><g
       id="g4422"
       style="stroke:none"
       transform="translate(0,491.69031)"><path
         inkscape:connector-curvature="0"
         id="path130"
         style="fill:#000000;fill-opacity:1;fill-rule:nonzero;stroke:none;stroke-width:0.5;stroke-linecap:butt;stroke-linejoin:miter;stroke-miterlimit:10;stroke-dasharray:none;stroke-opacity:1"
         d="m 801.395,380.702 -0.182,-0.928 c -0.227,-0.009 -0.511,-0.051 -0.851,-0.126 -0.34,-0.075 -0.6,-0.146 -0.778,-0.211 -0.316,-0.122 -0.543,-0.314 -0.681,-0.577 -0.137,-0.262 -0.239,-0.544 -0.304,-0.843 l -2.892,-14.526 c -0.017,-0.075 -0.029,-0.159 -0.037,-0.253 -0.008,-0.094 -0.012,-0.173 -0.012,-0.239 0,-0.197 0.036,-0.37 0.109,-0.52 0.073,-0.15 0.191,-0.286 0.353,-0.408 0.121,-0.084 0.342,-0.169 0.662,-0.253 0.32,-0.084 0.594,-0.131 0.821,-0.141 l -0.183,-0.928 -7.159,0 0.182,0.928 c 0.203,0.019 0.491,0.047 0.863,0.085 0.373,0.037 0.636,0.094 0.79,0.168 0.284,0.122 0.503,0.3 0.657,0.535 0.154,0.234 0.263,0.525 0.328,0.872 l 1.434,7.199 -8.107,0 -1.398,-7.045 c -0.016,-0.075 -0.028,-0.154 -0.036,-0.239 -0.009,-0.084 -0.013,-0.164 -0.013,-0.239 0,-0.187 0.039,-0.365 0.116,-0.534 0.077,-0.169 0.192,-0.305 0.346,-0.408 0.122,-0.084 0.343,-0.169 0.663,-0.253 0.32,-0.084 0.593,-0.131 0.82,-0.141 l -0.182,-0.928 -7.159,0 0.182,0.928 c 0.202,0.019 0.49,0.047 0.863,0.085 0.373,0.037 0.636,0.094 0.79,0.168 0.284,0.122 0.502,0.3 0.656,0.535 0.154,0.234 0.264,0.525 0.328,0.872 l 2.906,14.539 c 0.016,0.075 0.028,0.152 0.036,0.232 0.008,0.08 0.012,0.162 0.012,0.246 0,0.206 -0.034,0.384 -0.103,0.534 -0.069,0.15 -0.193,0.282 -0.371,0.394 -0.194,0.122 -0.437,0.23 -0.729,0.323 -0.292,0.094 -0.551,0.15 -0.778,0.169 l 0.182,0.928 7.16,0 -0.183,-0.928 c -0.227,-0.009 -0.51,-0.051 -0.851,-0.126 -0.34,-0.075 -0.599,-0.146 -0.778,-0.211 -0.316,-0.122 -0.542,-0.314 -0.68,-0.577 -0.138,-0.262 -0.239,-0.544 -0.304,-0.843 l -1.24,-6.286 8.108,0 1.215,6.145 c 0.016,0.075 0.028,0.152 0.037,0.232 0.008,0.08 0.012,0.157 0.012,0.232 0,0.206 -0.035,0.387 -0.104,0.541 -0.068,0.155 -0.192,0.289 -0.37,0.401 -0.195,0.122 -0.438,0.23 -0.73,0.323 -0.291,0.094 -0.551,0.15 -0.778,0.169 l 0.183,0.928 7.159,0 z" /><path
         inkscape:connector-curvature="0"
         id="path134"
         style="fill:#000000;fill-opacity:1;fill-rule:nonzero;stroke:none;stroke-width:0.5;stroke-linecap:butt;stroke-linejoin:miter;stroke-miterlimit:10;stroke-dasharray:none;stroke-opacity:1"
         d="m 805.104,357.387 0,2.426 -4.396,0 0,1.141 4.624,6.566 1.016,0 0,-6.566 1.369,0 0,-1.141 -1.369,0 0,-2.426 -1.244,0 z m 0,3.567 0,4.568 -3.172,-4.568 3.172,0 z" /><path
         inkscape:connector-curvature="0"
         id="path136"
         style="fill:#000000;fill-opacity:1;fill-rule:nonzero;stroke:none;stroke-width:0.5;stroke-linecap:butt;stroke-linejoin:miter;stroke-miterlimit:10;stroke-dasharray:none;stroke-opacity:1"
         d="m 808.67,354.737 0,0.829 c 0.433,0 0.836,0.139 1.209,0.418 0.374,0.279 0.56,0.612 0.56,0.999 0,0.23 -0.092,0.345 -0.276,0.345 -0.042,0 -0.125,-0.016 -0.249,-0.048 -0.129,-0.028 -0.23,-0.041 -0.304,-0.041 -0.258,0 -0.499,0.102 -0.722,0.307 -0.224,0.205 -0.336,0.487 -0.336,0.847 0,0.35 0.116,0.651 0.346,0.902 0.23,0.251 0.548,0.376 0.954,0.376 0.493,0 0.883,-0.183 1.171,-0.549 0.288,-0.366 0.432,-0.867 0.432,-1.503 0,-0.89 -0.272,-1.587 -0.815,-2.091 -0.544,-0.505 -1.201,-0.768 -1.97,-0.791 z" /><path
         inkscape:connector-curvature="0"
         id="path138"
         style="fill:#000000;fill-opacity:1;fill-rule:nonzero;stroke:none;stroke-width:0.5;stroke-linecap:butt;stroke-linejoin:miter;stroke-miterlimit:10;stroke-dasharray:none;stroke-opacity:1"
         d="m 812.865,357.487 2.426,7.942 c 0.046,0.147 0.069,0.262 0.069,0.345 0,0.245 -0.288,0.367 -0.864,0.367 l 0.222,0.719 c 1.151,0 1.974,0.064 2.467,0.193 l 0.657,0 -1.832,-6.006 c 1.147,1.11 1.956,1.775 2.426,1.994 0.47,0.219 0.892,0.328 1.265,0.328 0.327,0 0.594,-0.068 0.802,-0.204 0.207,-0.136 0.311,-0.314 0.311,-0.535 0,-0.189 -0.068,-0.355 -0.204,-0.498 -0.136,-0.143 -0.329,-0.214 -0.577,-0.214 -0.217,0 -0.45,0.078 -0.699,0.235 -0.152,0.096 -0.297,0.145 -0.435,0.145 -0.479,0 -1.152,-0.417 -2.018,-1.251 0.373,0 0.718,-0.089 1.033,-0.266 0.316,-0.178 0.531,-0.405 0.646,-0.681 0.116,-0.276 0.196,-0.7 0.242,-1.272 0.028,-0.373 0.118,-0.56 0.27,-0.56 0.226,0 0.514,0.328 0.864,0.982 l 0.636,0 c -0.489,-1.24 -1.304,-1.859 -2.447,-1.859 -0.382,0 -0.712,0.099 -0.988,0.297 -0.277,0.198 -0.415,0.488 -0.415,0.871 0,0.156 0.028,0.396 0.083,0.718 0.051,0.318 0.076,0.537 0.076,0.657 0,0.392 -0.184,0.588 -0.553,0.588 l -0.677,-0.65 -0.733,-2.385 -2.053,0 z" /></g><g
       id="g4410"
       transform="translate(-6.2503006,496.20442)"
       style="stroke:none"><path
         inkscape:connector-curvature="0"
         id="path150"
         style="fill:#000000;fill-opacity:1;fill-rule:nonzero;stroke:none;stroke-width:0.5;stroke-linecap:butt;stroke-linejoin:miter;stroke-miterlimit:10;stroke-dasharray:none;stroke-opacity:1"
         d="m 669.026,69.0073 -0.182,-0.928 c -0.227,-0.0094 -0.511,-0.0515 -0.851,-0.1265 -0.34,-0.075 -0.6,-0.1453 -0.778,-0.211 -0.316,-0.1218 -0.543,-0.314 -0.681,-0.5765 -0.137,-0.2624 -0.239,-0.5437 -0.303,-0.8436 l -2.893,-14.5253 c -0.017,-0.075 -0.029,-0.1593 -0.037,-0.2531 -0.008,-0.0937 -0.012,-0.1734 -0.012,-0.239 0,-0.1969 0.036,-0.3703 0.109,-0.5203 0.073,-0.15 0.191,-0.2859 0.353,-0.4077 0.121,-0.0844 0.342,-0.1688 0.662,-0.2531 0.32,-0.0844 0.594,-0.1313 0.821,-0.1407 l -0.182,-0.928 -7.16,0 0.182,0.928 c 0.203,0.0188 0.491,0.0469 0.863,0.0844 0.373,0.0375 0.637,0.0937 0.791,0.1687 0.283,0.1219 0.502,0.3 0.656,0.5344 0.154,0.2343 0.263,0.5249 0.328,0.8718 l 1.434,7.1993 -8.107,0 -1.398,-7.0447 c -0.016,-0.075 -0.028,-0.1546 -0.036,-0.239 -0.008,-0.0844 -0.012,-0.1641 -0.012,-0.239 0,-0.1875 0.038,-0.3656 0.115,-0.5344 0.077,-0.1687 0.192,-0.3046 0.346,-0.4077 0.122,-0.0844 0.343,-0.1688 0.663,-0.2531 0.32,-0.0844 0.593,-0.1313 0.82,-0.1407 l -0.182,-0.928 -7.159,0 0.182,0.928 c 0.203,0.0188 0.49,0.0469 0.863,0.0844 0.373,0.0375 0.636,0.0937 0.79,0.1687 0.284,0.1219 0.502,0.3 0.656,0.5344 0.154,0.2343 0.264,0.5249 0.329,0.8718 l 2.905,14.5392 c 0.016,0.075 0.028,0.1524 0.036,0.2321 0.008,0.0796 0.012,0.1617 0.012,0.246 0,0.2063 -0.034,0.3844 -0.103,0.5344 -0.069,0.1499 -0.192,0.2812 -0.371,0.3937 -0.194,0.1218 -0.437,0.2296 -0.729,0.3234 -0.292,0.0937 -0.551,0.15 -0.778,0.1687 l 0.182,0.928 7.16,0 -0.183,-0.928 c -0.227,-0.0094 -0.51,-0.0515 -0.85,-0.1265 -0.341,-0.075 -0.6,-0.1453 -0.778,-0.211 -0.316,-0.1218 -0.543,-0.314 -0.681,-0.5765 -0.138,-0.2624 -0.239,-0.5437 -0.304,-0.8436 l -1.24,-6.2854 8.108,0 1.215,6.1447 c 0.016,0.075 0.029,0.1524 0.037,0.2321 0.008,0.0796 0.012,0.157 0.012,0.232 0,0.2062 -0.035,0.3867 -0.103,0.5413 -0.069,0.1547 -0.193,0.2883 -0.371,0.4008 -0.195,0.1218 -0.438,0.2296 -0.73,0.3234 -0.291,0.0937 -0.551,0.15 -0.777,0.1687 l 0.182,0.928 7.159,0 z" /><path
         inkscape:connector-curvature="0"
         id="path152"
         style="fill:#000000;fill-opacity:1;fill-rule:nonzero;stroke:none;stroke-width:0.5;stroke-linecap:butt;stroke-linejoin:miter;stroke-miterlimit:10;stroke-dasharray:none;stroke-opacity:1"
         d="m 671.555,45.5219 -1.244,0 0,7.9276 c -0.299,-0.2856 -0.692,-0.5713 -1.178,-0.857 -0.486,-0.2857 -0.923,-0.4999 -1.31,-0.6428 l 0,1.2026 c 0.696,0.3272 1.304,0.7235 1.825,1.1888 0.521,0.4654 0.889,0.917 1.106,1.3547 l 0.801,0 0,-10.1739 z" /><path
         inkscape:connector-curvature="0"
         id="path154"
         style="fill:#000000;fill-opacity:1;fill-rule:nonzero;stroke:none;stroke-width:0.5;stroke-linecap:butt;stroke-linejoin:miter;stroke-miterlimit:10;stroke-dasharray:none;stroke-opacity:1"
         d="m 673.902,43.0334 0,0.8294 c 0.433,0 0.836,0.1393 1.21,0.4181 0.373,0.2788 0.559,0.6117 0.559,0.9987 0,0.2304 -0.092,0.3456 -0.276,0.3456 -0.042,0 -0.124,-0.0161 -0.249,-0.0483 -0.129,-0.0277 -0.23,-0.0415 -0.304,-0.0415 -0.258,0 -0.499,0.1025 -0.722,0.3075 -0.224,0.2051 -0.335,0.4873 -0.335,0.8467 0,0.3502 0.115,0.6509 0.345,0.902 0.23,0.2511 0.548,0.3767 0.954,0.3767 0.493,0 0.883,-0.1832 1.171,-0.5495 0.288,-0.3663 0.432,-0.8674 0.432,-1.5033 0,-0.8893 -0.271,-1.5862 -0.815,-2.0908 -0.544,-0.5045 -1.2,-0.7683 -1.97,-0.7913 z" /><path
         inkscape:connector-curvature="0"
         id="path156"
         style="fill:#000000;fill-opacity:1;fill-rule:nonzero;stroke:none;stroke-width:0.5;stroke-linecap:butt;stroke-linejoin:miter;stroke-miterlimit:10;stroke-dasharray:none;stroke-opacity:1"
         d="m 678.097,45.7842 2.426,7.9415 c 0.046,0.1474 0.069,0.2626 0.069,0.3456 0,0.2442 -0.287,0.3663 -0.863,0.3663 l 0.221,0.7188 c 1.152,0 1.974,0.0645 2.467,0.1935 l 0.657,0 -1.832,-6.0062 c 1.148,1.1105 1.956,1.7751 2.426,1.994 0.47,0.2189 0.892,0.3283 1.265,0.3283 0.327,0 0.594,-0.068 0.802,-0.2039 0.207,-0.1359 0.311,-0.3145 0.311,-0.5356 0,-0.189 -0.068,-0.3548 -0.204,-0.4977 -0.136,-0.1428 -0.328,-0.2142 -0.577,-0.2142 -0.217,0 -0.449,0.0783 -0.698,0.235 -0.152,0.0967 -0.298,0.1451 -0.436,0.1451 -0.479,0 -1.152,-0.417 -2.018,-1.251 0.373,0 0.718,-0.0887 1.033,-0.2661 0.316,-0.1774 0.531,-0.4043 0.647,-0.6808 0.115,-0.2765 0.195,-0.7004 0.241,-1.2717 0.028,-0.3733 0.118,-0.5599 0.27,-0.5599 0.226,0 0.514,0.3272 0.864,0.9815 l 0.636,0 c -0.489,-1.2395 -1.304,-1.8593 -2.447,-1.8593 -0.382,0 -0.712,0.0991 -0.988,0.2972 -0.277,0.1982 -0.415,0.4885 -0.415,0.8709 0,0.1567 0.028,0.3963 0.083,0.7188 0.051,0.3179 0.076,0.5368 0.076,0.6566 0,0.3917 -0.184,0.5875 -0.553,0.5875 l -0.677,-0.6497 -0.733,-2.3845 -2.053,0 z" /></g><g
       id="g4428"
       style="stroke:none"
       transform="translate(0,491.69031)"><path
         inkscape:connector-curvature="0"
         id="path158"
         style="fill:#000000;fill-opacity:1;fill-rule:nonzero;stroke:none;stroke-width:0.5;stroke-linecap:butt;stroke-linejoin:miter;stroke-miterlimit:10;stroke-dasharray:none;stroke-opacity:1"
         d="m 656.6368,202.88048 -0.182,-0.928 c -0.227,-0.01 -0.51,-0.052 -0.851,-0.127 -0.34,-0.075 -0.599,-0.145 -0.778,-0.211 -0.316,-0.122 -0.543,-0.314 -0.68,-0.576 -0.138,-0.263 -0.239,-0.544 -0.304,-0.844 l -2.893,-14.525 c -0.016,-0.075 -0.029,-0.16 -0.037,-0.253 -0.008,-0.094 -0.012,-0.174 -0.012,-0.24 0,-0.196 0.037,-0.37 0.11,-0.52 0.072,-0.15 0.19,-0.286 0.352,-0.408 0.122,-0.084 0.342,-0.168 0.663,-0.253 0.32,-0.084 0.593,-0.131 0.82,-0.14 l -0.182,-0.928 -7.16,0 0.183,0.928 c 0.202,0.018 0.49,0.047 0.863,0.084 0.372,0.038 0.636,0.094 0.79,0.169 0.283,0.122 0.502,0.3 0.656,0.534 0.154,0.235 0.263,0.525 0.328,0.872 l 1.435,7.199 -8.108,0 -1.398,-7.044 c -0.016,-0.075 -0.028,-0.155 -0.036,-0.239 -0.008,-0.085 -0.012,-0.164 -0.012,-0.239 0,-0.188 0.038,-0.366 0.115,-0.535 0.077,-0.169 0.193,-0.304 0.347,-0.408 0.121,-0.084 0.342,-0.168 0.662,-0.253 0.32,-0.084 0.594,-0.131 0.82,-0.14 l -0.182,-0.928 -7.159,0 0.182,0.928 c 0.203,0.018 0.49,0.047 0.863,0.084 0.373,0.038 0.636,0.094 0.79,0.169 0.284,0.122 0.503,0.3 0.657,0.534 0.154,0.235 0.263,0.525 0.328,0.872 l 2.905,14.539 c 0.016,0.075 0.028,0.153 0.036,0.232 0.008,0.08 0.012,0.162 0.012,0.246 0,0.207 -0.034,0.385 -0.103,0.535 -0.069,0.15 -0.192,0.281 -0.371,0.393 -0.194,0.122 -0.437,0.23 -0.729,0.324 -0.292,0.094 -0.551,0.15 -0.778,0.169 l 0.183,0.928 7.159,0 -0.182,-0.928 c -0.227,-0.01 -0.511,-0.052 -0.851,-0.127 -0.341,-0.075 -0.6,-0.145 -0.778,-0.211 -0.316,-0.122 -0.543,-0.314 -0.681,-0.576 -0.138,-0.263 -0.239,-0.544 -0.304,-0.844 l -1.24,-6.286 8.108,0 1.215,6.145 c 0.017,0.075 0.029,0.153 0.037,0.232 0.008,0.08 0.012,0.157 0.012,0.232 0,0.206 -0.034,0.387 -0.103,0.542 -0.069,0.154 -0.193,0.288 -0.371,0.4 -0.195,0.122 -0.438,0.23 -0.729,0.324 -0.292,0.094 -0.551,0.15 -0.778,0.169 l 0.182,0.928 7.159,0 z" /><path
         inkscape:connector-curvature="0"
         id="path160"
         style="fill:#000000;fill-opacity:1;fill-rule:nonzero;stroke:none;stroke-width:0.5;stroke-linecap:butt;stroke-linejoin:miter;stroke-miterlimit:10;stroke-dasharray:none;stroke-opacity:1"
         d="m 654.7758,182.26148 1.244,0.166 c 0.143,-0.705 0.386,-1.213 0.729,-1.524 0.343,-0.311 0.762,-0.467 1.255,-0.467 0.585,0 1.079,0.203 1.482,0.609 0.403,0.405 0.605,0.907 0.605,1.506 0,0.572 -0.187,1.043 -0.56,1.414 -0.373,0.371 -0.848,0.556 -1.424,0.556 -0.235,0 -0.527,-0.046 -0.878,-0.138 l 0.139,1.092 c 0.083,-0.009 0.149,-0.014 0.2,-0.014 0.53,0 1.007,0.138 1.431,0.415 0.424,0.276 0.636,0.703 0.636,1.279 0,0.456 -0.155,0.834 -0.463,1.133 -0.309,0.3 -0.708,0.449 -1.196,0.449 -0.484,0 -0.887,-0.152 -1.21,-0.456 -0.322,-0.304 -0.53,-0.76 -0.622,-1.368 l -1.244,0.221 c 0.152,0.834 0.498,1.48 1.037,1.939 0.539,0.458 1.21,0.687 2.011,0.687 0.553,0 1.062,-0.118 1.528,-0.356 0.465,-0.237 0.821,-0.561 1.068,-0.971 0.246,-0.41 0.369,-0.845 0.369,-1.306 0,-0.438 -0.117,-0.836 -0.352,-1.196 -0.235,-0.359 -0.583,-0.645 -1.044,-0.857 0.599,-0.138 1.065,-0.425 1.396,-0.86 0.332,-0.436 0.498,-0.981 0.498,-1.635 0,-0.885 -0.323,-1.635 -0.968,-2.25 -0.645,-0.615 -1.46,-0.922 -2.446,-0.922 -0.89,0 -1.628,0.265 -2.216,0.794 -0.587,0.53 -0.922,1.217 -1.005,2.06 z" /><path
         inkscape:connector-curvature="0"
         id="path162"
         style="fill:#000000;fill-opacity:1;fill-rule:nonzero;stroke:none;stroke-width:0.5;stroke-linecap:butt;stroke-linejoin:miter;stroke-miterlimit:10;stroke-dasharray:none;stroke-opacity:1"
         d="m 662.4688,176.76948 0,0.83 c 0.433,0 0.836,0.139 1.209,0.418 0.373,0.278 0.56,0.611 0.56,0.998 0,0.231 -0.092,0.346 -0.276,0.346 -0.042,0 -0.125,-0.016 -0.249,-0.048 -0.129,-0.028 -0.231,-0.042 -0.304,-0.042 -0.258,0 -0.499,0.103 -0.723,0.308 -0.223,0.205 -0.335,0.487 -0.335,0.846 0,0.351 0.115,0.651 0.346,0.902 0.23,0.251 0.548,0.377 0.953,0.377 0.494,0 0.884,-0.183 1.172,-0.549 0.288,-0.367 0.432,-0.868 0.432,-1.504 0,-0.889 -0.272,-1.586 -0.816,-2.09 -0.543,-0.505 -1.2,-0.769 -1.969,-0.792 z" /><path
         inkscape:connector-curvature="0"
         id="path164"
         style="fill:#000000;fill-opacity:1;fill-rule:nonzero;stroke:none;stroke-width:0.5;stroke-linecap:butt;stroke-linejoin:miter;stroke-miterlimit:10;stroke-dasharray:none;stroke-opacity:1"
         d="m 666.6638,179.52048 2.426,7.941 c 0.046,0.148 0.069,0.263 0.069,0.346 0,0.244 -0.288,0.366 -0.864,0.366 l 0.221,0.719 c 1.152,0 1.975,0.065 2.468,0.194 l 0.656,0 -1.831,-6.007 c 1.147,1.111 1.956,1.776 2.426,1.994 0.47,0.219 0.891,0.329 1.265,0.329 0.327,0 0.594,-0.068 0.801,-0.204 0.208,-0.136 0.311,-0.315 0.311,-0.536 0,-0.189 -0.068,-0.355 -0.204,-0.497 -0.135,-0.143 -0.328,-0.215 -0.577,-0.215 -0.216,0 -0.449,0.079 -0.698,0.235 -0.152,0.097 -0.297,0.145 -0.435,0.145 -0.479,0 -1.152,-0.417 -2.018,-1.251 0.373,0 0.717,-0.088 1.033,-0.266 0.316,-0.177 0.531,-0.404 0.646,-0.68 0.115,-0.277 0.196,-0.701 0.242,-1.272 0.028,-0.373 0.118,-0.56 0.27,-0.56 0.225,0 0.513,0.327 0.864,0.981 l 0.635,0 c -0.488,-1.239 -1.304,-1.859 -2.446,-1.859 -0.383,0 -0.712,0.099 -0.989,0.297 -0.276,0.199 -0.414,0.489 -0.414,0.871 0,0.157 0.027,0.397 0.083,0.719 0.05,0.318 0.076,0.537 0.076,0.657 0,0.391 -0.185,0.587 -0.553,0.587 l -0.678,-0.65 -0.732,-2.384 -2.053,0 z" /></g><g
       id="g4404"
       transform="translate(13.195079,487.17621)"
       style="stroke:none"><path
         inkscape:connector-curvature="0"
         id="path166"
         style="fill:#000000;fill-opacity:1;fill-rule:nonzero;stroke:none;stroke-width:0.5;stroke-linecap:butt;stroke-linejoin:miter;stroke-miterlimit:10;stroke-dasharray:none;stroke-opacity:1"
         d="m 659.188,155.682 -0.182,-0.928 c -0.227,-0.009 -0.511,-0.051 -0.851,-0.126 -0.34,-0.075 -0.6,-0.146 -0.778,-0.211 -0.316,-0.122 -0.543,-0.314 -0.681,-0.577 -0.137,-0.262 -0.239,-0.543 -0.303,-0.843 L 653.5,138.471 c -0.017,-0.075 -0.029,-0.159 -0.037,-0.253 -0.008,-0.093 -0.012,-0.173 -0.012,-0.239 0,-0.197 0.036,-0.37 0.109,-0.52 0.073,-0.15 0.191,-0.286 0.353,-0.408 0.121,-0.084 0.342,-0.169 0.662,-0.253 0.32,-0.084 0.594,-0.131 0.821,-0.14 l -0.183,-0.929 -7.159,0 0.182,0.929 c 0.203,0.018 0.491,0.046 0.863,0.084 0.373,0.037 0.637,0.094 0.791,0.169 0.283,0.121 0.502,0.3 0.656,0.534 0.154,0.234 0.263,0.525 0.328,0.872 l 1.434,7.199 -8.107,0 -1.398,-7.045 c -0.016,-0.075 -0.028,-0.154 -0.036,-0.239 -0.008,-0.084 -0.013,-0.164 -0.013,-0.239 0,-0.187 0.039,-0.365 0.116,-0.534 0.077,-0.169 0.192,-0.305 0.346,-0.408 0.122,-0.084 0.343,-0.169 0.663,-0.253 0.32,-0.084 0.593,-0.131 0.82,-0.14 l -0.182,-0.929 -7.159,0 0.182,0.929 c 0.203,0.018 0.49,0.046 0.863,0.084 0.373,0.037 0.636,0.094 0.79,0.169 0.284,0.121 0.502,0.3 0.656,0.534 0.154,0.234 0.264,0.525 0.329,0.872 l 2.905,14.539 c 0.016,0.075 0.028,0.152 0.036,0.232 0.008,0.08 0.012,0.162 0.012,0.246 0,0.206 -0.034,0.384 -0.103,0.534 -0.069,0.15 -0.192,0.282 -0.371,0.394 -0.194,0.122 -0.437,0.23 -0.729,0.324 -0.292,0.093 -0.551,0.15 -0.778,0.168 l 0.182,0.928 7.16,0 -0.183,-0.928 c -0.227,-0.009 -0.51,-0.051 -0.85,-0.126 -0.341,-0.075 -0.6,-0.146 -0.778,-0.211 -0.316,-0.122 -0.543,-0.314 -0.681,-0.577 -0.138,-0.262 -0.239,-0.543 -0.304,-0.843 l -1.24,-6.286 8.108,0 1.215,6.145 c 0.016,0.075 0.029,0.152 0.037,0.232 0.008,0.08 0.012,0.157 0.012,0.232 0,0.206 -0.035,0.387 -0.104,0.541 -0.068,0.155 -0.192,0.289 -0.37,0.401 -0.195,0.122 -0.438,0.23 -0.73,0.324 -0.291,0.093 -0.551,0.15 -0.777,0.168 l 0.182,0.928 7.159,0 z" /><path
         inkscape:connector-curvature="0"
         id="path168"
         style="fill:#000000;fill-opacity:1;fill-rule:nonzero;stroke:none;stroke-width:0.5;stroke-linecap:butt;stroke-linejoin:miter;stroke-miterlimit:10;stroke-dasharray:none;stroke-opacity:1"
         d="m 664.671,133.585 0,-1.196 -6.697,0 c -0.009,0.3 0.039,0.588 0.145,0.864 0.171,0.456 0.444,0.905 0.819,1.348 0.376,0.442 0.918,0.954 1.628,1.534 1.101,0.903 1.845,1.619 2.232,2.146 0.387,0.528 0.581,1.027 0.581,1.497 0,0.493 -0.176,0.909 -0.529,1.247 -0.352,0.339 -0.812,0.508 -1.379,0.508 -0.599,0 -1.078,-0.18 -1.437,-0.539 -0.36,-0.359 -0.542,-0.857 -0.546,-1.493 l -1.279,0.131 c 0.088,0.954 0.417,1.681 0.988,2.181 0.572,0.5 1.339,0.75 2.302,0.75 0.972,0 1.742,-0.27 2.308,-0.809 0.567,-0.539 0.851,-1.207 0.851,-2.004 0,-0.405 -0.083,-0.804 -0.249,-1.196 -0.166,-0.391 -0.441,-0.804 -0.826,-1.237 -0.385,-0.433 -1.024,-1.027 -1.918,-1.783 -0.747,-0.627 -1.226,-1.052 -1.438,-1.275 -0.212,-0.224 -0.387,-0.448 -0.525,-0.674 l 4.969,0 z" /><path
         inkscape:connector-curvature="0"
         id="path170"
         style="fill:#000000;fill-opacity:1;fill-rule:nonzero;stroke:none;stroke-width:0.5;stroke-linecap:butt;stroke-linejoin:miter;stroke-miterlimit:10;stroke-dasharray:none;stroke-opacity:1"
         d="m 666.491,129.942 0,0.829 c 0.433,0 0.837,0.139 1.21,0.418 0.373,0.279 0.56,0.612 0.56,0.999 0,0.23 -0.092,0.345 -0.277,0.345 -0.041,0 -0.124,-0.016 -0.249,-0.048 -0.129,-0.028 -0.23,-0.041 -0.304,-0.041 -0.258,0 -0.498,0.102 -0.722,0.307 -0.223,0.205 -0.335,0.487 -0.335,0.847 0,0.35 0.115,0.651 0.345,0.902 0.231,0.251 0.549,0.377 0.954,0.377 0.493,0 0.884,-0.184 1.172,-0.55 0.288,-0.366 0.432,-0.867 0.432,-1.503 0,-0.89 -0.272,-1.586 -0.816,-2.091 -0.544,-0.505 -1.2,-0.768 -1.97,-0.791 z" /><path
         inkscape:connector-curvature="0"
         id="path172"
         style="fill:#000000;fill-opacity:1;fill-rule:nonzero;stroke:none;stroke-width:0.5;stroke-linecap:butt;stroke-linejoin:miter;stroke-miterlimit:10;stroke-dasharray:none;stroke-opacity:1"
         d="m 670.687,132.692 2.426,7.942 c 0.046,0.147 0.069,0.263 0.069,0.346 0,0.244 -0.288,0.366 -0.864,0.366 l 0.221,0.719 c 1.152,0 1.974,0.064 2.467,0.193 l 0.657,0 -1.832,-6.006 c 1.148,1.11 1.956,1.775 2.426,1.994 0.47,0.219 0.892,0.328 1.265,0.328 0.327,0 0.595,-0.068 0.802,-0.204 0.207,-0.136 0.311,-0.314 0.311,-0.535 0,-0.189 -0.068,-0.355 -0.204,-0.498 -0.136,-0.143 -0.328,-0.214 -0.577,-0.214 -0.217,0 -0.449,0.078 -0.698,0.235 -0.152,0.097 -0.297,0.145 -0.435,0.145 -0.48,0 -1.152,-0.417 -2.019,-1.251 0.374,0 0.718,-0.089 1.034,-0.266 0.315,-0.178 0.531,-0.404 0.646,-0.681 0.115,-0.276 0.196,-0.7 0.242,-1.272 0.027,-0.373 0.117,-0.56 0.269,-0.56 0.226,0 0.514,0.328 0.864,0.982 l 0.636,0 c -0.488,-1.24 -1.304,-1.859 -2.447,-1.859 -0.382,0 -0.711,0.099 -0.988,0.297 -0.276,0.198 -0.415,0.488 -0.415,0.871 0,0.156 0.028,0.396 0.083,0.719 0.051,0.317 0.076,0.536 0.076,0.656 0,0.392 -0.184,0.588 -0.553,0.588 l -0.677,-0.65 -0.733,-2.385 -2.052,0 z" /></g><path
       d="m 756.123,728.62631 46.037,112.888"
       style="fill:#808080;fill-opacity:1;fill-rule:evenodd;stroke:none"
       id="path174"
       inkscape:connector-curvature="0" /><path
       d="m 800.117,832.51331 -2.381,-10.109 -1.256,0.511 -2.201,-5.16 -2.361,-5.666 -34.225,-84.104 -10e-4,-0.004 -0.911,-0.917 -1.293,-0.01 -0.01,0.003 -0.916,0.912 -0.011,1.292 34.353,84.057 2.274,5.701 2.036,5.228 -1.256,0.513 5.368,8.891 4.834,7.863 -2.043,-9.001 z"
       style="fill:#979797;fill-opacity:1;fill-rule:evenodd;stroke:none"
       id="path176"
       inkscape:connector-curvature="0" /><path
       d="m 333.177,808.63531 46.036,112.888"
       style="fill:#808080;fill-opacity:1;fill-rule:evenodd;stroke:none"
       id="path178"
       inkscape:connector-curvature="0" /><path
       d="m 378.163,909.60831 -1.696,0.69 -1.023,-2.274 -1.413,-3.311 -3.574,-8.644 -7.214,-17.749 -14.163,-34.898 -14.105,-34.863 -0.228,-0.564 -0.002,-0.005 -0.91,-0.917 -1.294,-0.01 -0.009,0.004 -0.918,0.912 -0.009,1.291 0.233,0.568 14.298,34.785 14.281,34.849 7.255,17.733 3.49,8.678 1.306,3.354 0.859,2.342 -1.695,0.693 7.581,9.251 -1.05,-11.915 z"
       style="fill:#979797;fill-opacity:1;fill-rule:evenodd;stroke:none"
       id="path180"
       inkscape:connector-curvature="0" /><path
       d="m 756.599,729.16631 65.494,-82.125"
       style="fill:#808080;fill-opacity:1;fill-rule:evenodd;stroke:none"
       id="path182"
       inkscape:connector-curvature="0" /><path
       d="m 757.921,730.22731 0.004,-0.003 49.488,-62.001 3.096,-3.829 2.572,2.05 1.892,-3.756 3.044,-6.589 4.024,-8.942 0.052,-0.116 -0.102,0.076 -7.822,5.913 -5.747,4.433 -3.242,2.68 2.572,2.052 -3.044,3.871 -49.435,62.043 -0.003,0.004 -0.354,1.243 0.622,1.133 0.008,0.006 1.242,0.354 1.133,-0.622 z"
       style="fill:#979797;fill-opacity:1;fill-rule:evenodd;stroke:none"
       id="path184"
       inkscape:connector-curvature="0" /><path
       d="m 755.916,728.93431 -71.457,-97.996"
       style="fill:#808080;fill-opacity:1;fill-rule:evenodd;stroke:none"
       id="path186"
       inkscape:connector-curvature="0" /><path
       d="m 756.911,730.30731 0.008,-0.006 0.67,-1.104 -0.3,-1.258 -0.003,-0.004 -53.937,-74.027 -3.845,-5.231 -3.413,-4.722 1.781,-1.299 -7.019,-6.209 -6.288,-5.418 -0.106,-0.091 0.054,0.129 3.237,7.643 3.765,8.581 1.781,-1.298 3.452,4.693 3.806,5.26 53.995,73.991 1.105,0.67 1.257,-0.3 z"
       style="fill:#979797;fill-opacity:1;fill-rule:evenodd;stroke:none"
       id="path188"
       inkscape:connector-curvature="0" /><path
       d="M 755.958,728.52231 670.17,560.03951"
       style="fill:#808080;fill-opacity:1;fill-rule:evenodd;stroke:none"
       id="path190"
       inkscape:connector-curvature="0" /><path
       d="m 756.723,730.03531 0.008,-0.004 0.837,-0.985 -0.097,-1.289 -0.002,-0.004 -64.758,-127.255 -6.072,-11.9479 -3.51,-6.9579 -1.72,-3.5156 1.626,-2.4874 -12.865,-15.55 5.007,19.5507 2.968,0.1485 1.831,3.4593 3.562,6.9314 6.091,11.9379 64.82,127.229 0.985,0.837 1.289,-0.098 z"
       style="fill:#979797;fill-opacity:1;fill-rule:evenodd;stroke:none"
       id="path192"
       inkscape:connector-curvature="0" /><path
       d="m 756.416,729.04131 -135.081,-30.971"
       style="fill:#808080;fill-opacity:1;fill-rule:evenodd;stroke:none"
       id="path194"
       inkscape:connector-curvature="0" /><path
       d="m 757.316,730.47531 0.752,-1.051 0.002,-0.009 -0.219,-1.274 -1.051,-0.752 -0.005,-10e-4 -102.007,-23.423 -6.325,-1.484 0.507,-2.215 -5.451,-0.528 -9.373,-0.734 -12.608,-0.92 -0.203,-0.014 0.189,0.076 11.749,4.664 8.757,3.423 5.136,1.9 0.509,-2.215 6.34,1.419 102.027,23.357 1.274,-0.219 z"
       style="fill:#979797;fill-opacity:1;fill-rule:evenodd;stroke:none"
       id="path196"
       inkscape:connector-curvature="0" /><path
       d="m 671.118,561.38941 2.03,1.1577 0,-10e-5 0.161,-0.4811 -0.036,-0.506 -0.227,-0.4537 -0.383,-0.3324 -0.901,-0.5137 -0.106,-0.0355 -0.096,-0.0578 -0.142,-0.0216 -0.137,-0.0456 -0.112,0.008 -0.111,-0.0167 -0.139,0.0345 -0.144,0.0102 -0.1,0.0501 -0.109,0.0268 -0.116,0.0855 -0.129,0.0644 -0.073,0.0846 -0.09,0.0664 -0.075,0.1233 -0.094,0.1089 -0.036,0.1062 -0.057,0.0958 -2.298,6.3576 -0.076,0.5015 0.122,0.4924 0.3,0.4084 0.435,0.2622 0,0 2.739,-7.5802 z m 12.42,7.0816 0.161,-0.4811 -0.036,-0.506 -0.227,-0.4537 -0.383,-0.3324 -5.873,-3.3483 -0.481,-0.1605 -0.506,0.0359 -0.453,0.2268 -0.333,0.3832 0,0 8.131,4.6361 z m 10.39,5.924 0.161,-0.4811 -0.036,-0.506 -0.227,-0.4537 -0.383,-0.3324 -5.873,-3.3483 -0.481,-0.1605 -0.506,0.0359 -0.454,0.2268 -0.332,0.3832 0,0 8.131,4.6361 z m -26.433,-2.9802 0,0 -0.502,-0.076 -0.492,0.1216 -0.408,0.3009 -0.262,0.4342 -2.298,6.3576 -0.076,0.5015 0.122,0.4924 0.3,0.4084 0.435,0.2622 0,0 3.181,-8.8028 z m 36.823,8.9042 0.16,-0.4811 -0.036,-0.506 -0.226,-0.4537 -0.384,-0.3324 -5.872,-3.3483 -0.481,-0.1605 -0.506,0.0359 -0.454,0.2268 -0.332,0.3832 0,0 8.131,4.6361 z m 10.39,5.924 0.16,-0.4812 -0.036,-0.5059 -0.227,-0.4537 -0.383,-0.3324 -5.872,-3.3483 -0.481,-0.1605 -0.506,0.0359 -0.454,0.2268 -0.332,0.3832 0,0 8.131,4.6361 z m -51.278,-3.5802 0,0 -0.502,-0.076 -0.492,0.1216 -0.408,0.3009 -0.262,0.4342 -2.298,6.3576 -0.076,0.5015 0.122,0.4924 0.3,0.4084 0.435,0.2622 0,0 3.181,-8.8028 z m 61.828,9.023 -0.036,-0.5059 -0.227,-0.4537 -0.383,-0.3324 -5.872,-3.3483 -0.482,-0.1605 -0.506,0.0359 -0.453,0.2268 -0.333,0.3832 8.131,4.6364 0.161,-0.4815 z m 10.39,5.9245 -0.036,-0.506 -0.227,-0.454 -0.383,-0.333 -5.873,-3.348 -0.481,-0.16 -0.506,0.036 -0.454,0.226 -0.332,0.384 8.131,4.636 0.161,-0.481 z m -76.283,-3.699 0,-10e-4 -0.501,-0.076 -0.493,0.122 -0.408,0.301 -0.262,0.434 -2.298,6.358 -0.076,0.501 0.122,0.493 0.301,0.408 0.434,0.262 0,0 3.181,-8.802 z m 86.672,9.623 -0.035,-0.506 -0.227,-0.454 -0.383,-0.333 -5.873,-3.348 -0.481,-0.16 -0.506,0.036 -0.454,0.226 -0.332,0.384 8.131,4.636 0.16,-0.481 z m 10.39,5.924 -0.036,-0.506 -0.226,-0.454 -0.384,-0.333 -5.872,-3.348 -0.481,-0.16 -0.506,0.036 -0.454,0.226 -0.332,0.384 8.131,4.636 0.16,-0.481 z m -101.127,-4.299 0,-10e-4 -0.501,-0.076 -0.493,0.122 -0.408,0.301 -0.262,0.434 -2.298,6.358 -0.076,0.501 0.122,0.493 0.301,0.408 0.434,0.262 0,0 3.181,-8.802 z m 111.517,10.223 -0.036,-0.506 -0.227,-0.454 -0.383,-0.333 -5.872,-3.348 -0.481,-0.16 -0.506,0.036 -0.454,0.226 -0.333,0.384 8.132,4.636 0.16,-0.481 z m -115.582,1.025 0,-0.001 -0.501,-0.076 -0.493,0.122 -0.408,0.301 -0.262,0.434 -2.298,6.358 -0.076,0.501 0.122,0.493 0.301,0.408 0.434,0.262 0,0 3.181,-8.802 z m 125.972,4.899 -0.036,-0.506 -0.227,-0.454 -0.383,-0.333 -5.872,-3.348 -0.482,-0.16 -0.506,0.036 -0.453,0.226 -0.333,0.384 8.131,4.636 0.161,-0.481 z m 10.39,5.924 -0.036,-0.506 -0.227,-0.454 -0.383,-0.333 -5.873,-3.348 -0.481,-0.16 -0.506,0.036 -0.454,0.226 -0.332,0.384 8.131,4.636 0.161,-0.481 z m -140.427,0.425 0,-10e-4 -0.501,-0.076 -0.493,0.122 -0.408,0.301 -0.262,0.434 -2.298,6.358 -0.076,0.501 0.122,0.493 0.301,0.408 0.434,0.262 0,0 3.181,-8.802 z m 150.816,5.499 -0.035,-0.506 -0.227,-0.454 -0.383,-0.333 -5.873,-3.348 -0.481,-0.16 -0.506,0.036 -0.454,0.226 -0.332,0.384 8.131,4.636 0.16,-0.481 z m 10.39,5.924 -0.036,-0.506 -0.226,-0.454 -0.384,-0.333 -5.872,-3.348 -0.481,-0.16 -0.506,0.036 -0.454,0.226 -0.332,0.384 8.131,4.636 0.16,-0.481 z m -165.271,-0.175 0,-10e-4 -0.501,-0.076 -0.493,0.122 -0.408,0.301 -0.262,0.434 -2.298,6.358 -0.076,0.501 0.122,0.493 0.301,0.408 0.434,0.262 0,0 3.181,-8.802 z m 175.661,6.099 -0.036,-0.506 -0.227,-0.454 -0.383,-0.333 -5.872,-3.348 -0.481,-0.16 -0.506,0.036 -0.454,0.226 -0.333,0.384 8.132,4.636 0.16,-0.481 z m 2.62,10.529 0.448,-0.237 0.324,-0.391 0.149,-0.484 0.695,-6.725 -0.047,-0.505 -0.237,-0.448 -0.391,-0.324 -0.484,-0.149 -0.505,0.047 -0.449,0.237 -0.131,0.158 0.981,0.559 -0.858,8.309 0.505,-0.047 z m -182.346,-5.38 0,0 -0.501,-0.077 -0.493,0.122 -0.408,0.301 -0.262,0.434 -2.298,6.358 -0.076,0.501 0.122,0.493 0.301,0.408 0.434,0.262 0,0 3.181,-8.802 z m 181.117,17.276 0.448,-0.236 0.324,-0.391 0.149,-0.485 0.695,-6.724 -0.047,-0.505 -0.237,-0.448 -0.391,-0.324 -0.485,-0.15 -0.961,9.311 0.505,-0.048 z m -185.182,-6.028 0,0 -0.501,-0.077 -0.493,0.122 -0.408,0.301 -0.262,0.434 -2.298,6.358 -0.076,0.501 0.122,0.493 0.301,0.408 0.434,0.262 0,0 3.181,-8.802 z m 183.952,17.925 0.449,-0.237 0.324,-0.39 0.149,-0.485 0.695,-6.724 -0.047,-0.505 -0.237,-0.449 -0.391,-0.323 -0.485,-0.15 -0.962,9.31 0.505,-0.047 z m -188.017,-6.677 0,0 -0.501,-0.077 -0.493,0.122 -0.408,0.301 -0.262,0.434 -2.298,6.358 -0.076,0.501 0.122,0.493 0.301,0.408 0.434,0.262 0,0 3.181,-8.802 z m 186.788,18.574 0.449,-0.237 0.324,-0.391 0.149,-0.484 0.695,-6.725 -0.048,-0.505 -0.237,-0.448 -0.39,-0.324 -0.485,-0.149 -0.962,9.31 0.505,-0.047 z m -190.853,-7.326 0,0 -0.501,-0.077 -0.493,0.122 -0.408,0.301 -0.262,0.434 -2.298,6.358 -0.076,0.501 0.122,0.493 0.301,0.408 0.434,0.262 0,0 3.181,-8.802 z m 189.624,19.223 0.449,-0.237 0.323,-0.391 0.15,-0.485 0.695,-6.724 -0.048,-0.505 -0.237,-0.448 -0.39,-0.324 -0.485,-0.15 -0.962,9.311 0.505,-0.047 z m -190.023,-0.9 0.387,-0.328 0,0 -5.046,-4 0.993,-2.747 0,0 -0.501,-0.077 -0.493,0.122 -0.408,0.301 -0.262,0.434 -0.551,1.525 -0.075,0.532 0.147,0.516 0.343,0.413 4.026,3.192 0.451,0.232 0.506,0.041 0.483,-0.156 z m 9.372,7.431 0.386,-0.328 -7.334,-5.816 c 0,0 -0.232,0.452 -0.232,0.452 l -0.041,0.505 0.156,0.483 0.328,0.387 5.297,4.2 0.451,0.231 0.506,0.041 0.483,-0.155 z m 179.422,5.365 0.449,-0.237 0.323,-0.39 0.15,-0.485 0.695,-6.724 -0.048,-0.505 -0.237,-0.449 -0.39,-0.323 -0.485,-0.15 -0.962,9.31 0.505,-0.047 z m -170.051,2.065 0.387,-0.328 -7.334,-5.815 -0.232,0.451 -0.041,0.506 0.155,0.483 0.329,0.386 5.297,4.2 0.451,0.232 0.506,0.041 0.482,-0.156 z m 168.822,9.832 0.449,-0.237 0.323,-0.391 0.15,-0.484 0.694,-6.725 -0.047,-0.505 -0.237,-0.448 -0.39,-0.324 -0.485,-0.149 -0.962,9.31 0.505,-0.047 z m -159.45,-2.401 0.387,-0.329 -7.335,-5.815 -0.231,0.452 -0.041,0.505 0.155,0.483 0.328,0.387 5.297,4.199 0.452,0.232 0.505,0.041 0.483,-0.155 z m 9.372,7.43 0.387,-0.328 -7.335,-5.815 -0.231,0.451 -0.042,0.506 0.156,0.483 0.328,0.386 5.297,4.2 0.452,0.231 0.505,0.042 0.483,-0.156 z m 148.849,6.868 0.448,-0.237 0.324,-0.391 0.15,-0.485 0.694,-6.724 -0.047,-0.505 -0.237,-0.448 -0.39,-0.324 -0.485,-0.15 -0.962,9.311 c 0,0 0.505,-0.047 0.505,-0.047 z m -139.477,0.563 0.386,-0.329 -7.334,-5.815 -0.232,0.452 -0.041,0.505 0.156,0.483 0.328,0.387 5.297,4.199 0.451,0.232 0.506,0.041 0.483,-0.155 z m 9.372,7.43 0.386,-0.328 -7.334,-5.815 -0.232,0.451 -0.041,0.506 0.155,0.482 0.329,0.387 5.297,4.2 0.451,0.231 0.506,0.042 0.483,-0.156 z m 128.876,3.903 0.448,-0.237 0.324,-0.39 0.15,-0.485 0.694,-6.724 -0.047,-0.505 -0.237,-0.449 -0.391,-0.323 -0.484,-0.15 c 0,0 -0.962,9.311 -0.962,9.311 l 0,0 0.505,-0.048 z m -119.505,3.528 0.387,-0.329 -7.335,-5.815 -0.231,0.451 -0.041,0.506 0.155,0.483 0.328,0.386 5.298,4.2 0.451,0.232 0.505,0.041 0.483,-0.155 z m 118.276,8.369 0.448,-0.237 0.324,-0.391 0.15,-0.484 0.694,-6.725 -0.047,-0.505 -0.237,-0.448 -0.391,-0.324 -0.484,-0.149 0,0 -0.962,9.31 0,0 0.505,-0.047 z m -108.904,-0.939 0.387,-0.328 -7.335,-5.815 -0.231,0.451 -0.041,0.505 0.155,0.483 0.328,0.387 5.297,4.2 0.452,0.231 0.505,0.041 0.483,-0.155 z m 9.372,7.43 0.386,-0.328 -7.334,-5.815 -0.232,0.451 -0.041,0.506 0.156,0.483 0.328,0.386 5.297,4.2 0.451,0.232 0.506,0.041 0.483,-0.156 z m 98.303,5.406 0.448,-0.237 0.324,-0.391 0.149,-0.485 0.695,-6.724 -0.047,-0.505 -0.237,-0.448 -0.391,-0.324 -0.484,-0.15 0,0 -0.095,0.914 -0.867,8.397 0,0 0.505,-0.047 z m -88.931,2.025 0.386,-0.328 -7.334,-5.816 -0.232,0.452 -0.041,0.505 0.155,0.483 0.329,0.387 5.297,4.2 0.451,0.231 0.506,0.041 0.483,-0.155 z m 87.702,9.871 0.448,-0.237 0.324,-0.39 0.149,-0.485 0.695,-6.724 -0.047,-0.505 -0.237,-0.449 -0.391,-0.323 -0.484,-0.15 -10e-4,0 -0.961,9.311 0,0 0.505,-0.048 z m -78.331,-2.441 0.387,-0.328 -7.334,-5.815 -0.232,0.451 -0.041,0.506 0.155,0.483 0.329,0.386 5.297,4.2 0.451,0.232 0.506,0.041 0.482,-0.156 z m 9.372,7.431 0.387,-0.329 -7.335,-5.815 -0.231,0.452 -0.041,0.505 0.155,0.483 0.328,0.387 5.297,4.199 0.452,0.232 0.505,0.041 0.483,-0.155 z m 67.73,6.907 0.448,-0.237 0.324,-0.391 0.149,-0.484 0.695,-6.724 -0.047,-0.506 -0.237,-0.448 -0.391,-0.324 -0.485,-0.149 0,0 -0.961,9.31 0,0 0.505,-0.047 z m -58.358,0.523 0.387,-0.328 -7.335,-5.815 -0.231,0.451 -0.042,0.506 0.156,0.482 0.328,0.387 5.297,4.2 0.452,0.231 0.505,0.042 0.483,-0.156 z m 9.372,7.431 0.386,-0.329 -7.334,-5.815 -0.232,0.452 -0.041,0.505 0.156,0.483 0.328,0.387 5.297,4.199 0.451,0.232 0.506,0.041 0.483,-0.155 z m 47.756,3.943 0.449,-0.237 0.324,-0.391 0.149,-0.485 0.695,-6.724 -0.047,-0.505 -0.237,-0.448 -0.391,-0.324 -0.485,-0.15 0,0 -0.962,9.311 0,0 0.505,-0.047 z m -38.385,3.487 0.387,-0.328 -7.334,-5.815 -0.232,0.451 -0.041,0.506 0.155,0.482 0.329,0.387 5.297,4.2 0.451,0.231 0.506,0.042 0.482,-0.156 z m 37.156,8.409 0.449,-0.237 0.323,-0.39 0.15,-0.485 0.695,-6.724 -0.048,-0.505 -0.237,-0.449 -0.39,-0.323 -0.485,-0.15 0,0 -0.962,9.311 0,0 0.505,-0.048 z m -27.784,-0.978 0.387,-0.329 -7.335,-5.815 -0.231,0.451 -0.041,0.506 0.155,0.483 0.328,0.386 5.298,4.2 0.451,0.232 0.505,0.041 0.483,-0.155 z m 9.372,7.43 0.387,-0.328 -7.335,-5.815 -0.231,0.451 -0.042,0.505 0.156,0.483 0.328,0.387 5.297,4.2 0.452,0.231 0.505,0.041 0.483,-0.155 z m 17.183,5.445 0.449,-0.237 0.323,-0.391 0.15,-0.484 0.695,-6.724 -0.048,-0.505 -0.237,-0.449 -0.39,-0.324 -0.485,-0.149 0,0 -0.962,9.31 0,0 0.505,-0.047 z m -7.811,1.985 0.386,-0.328 -7.334,-5.815 -0.232,0.451 -0.041,0.506 0.156,0.483 0.328,0.386 5.297,4.2 0.451,0.232 0.506,0.041 0.483,-0.156 z m 7.376,5.685 0.374,-0.406 0.172,-0.524 0.277,-2.68 -0.048,-0.505 -0.237,-0.448 -0.39,-0.324 -0.485,-0.15 0,0 -0.41,3.973 -4.205,-3.334 -0.232,0.452 -0.041,0.505 0.155,0.483 0.329,0.387 3.186,2.526 0.495,0.243 0.552,0.016 0.508,-0.214 z"
       style="fill:#979797;fill-opacity:1;fill-rule:evenodd;stroke:none"
       id="path198"
       inkscape:connector-curvature="0" /><path
       d="m 756.426,739.65431 0.306,-0.733 0,-225.8619 0.072,-0.6232 2.967,-0.002 -4.083,-13.7642 -4.083,13.7642 2.967,0.002 0.071,0.6232 0,225.8619 0.307,0.733 0.733,0.307 0.01,0 0.733,-0.307 z"
       style="fill:#000000;fill-opacity:1;fill-rule:evenodd;stroke:none"
       id="path200"
       inkscape:connector-curvature="0" /><path
       d="m 536.136,730.06731 0.632,-0.071 229.029,0 0.733,-0.307 0.307,-0.733 0,-0.01 -0.307,-0.732 -0.733,-0.307 -229.029,0 -0.632,-0.071 -0.003,-2.968 -13.957,4.083 13.957,4.083 0.003,-2.967 z"
       style="fill:#000000;fill-opacity:1;fill-rule:evenodd;stroke:none"
       id="path202"
       inkscape:connector-curvature="0" /><path
       d="m 759.771,945.46931 -2.967,-0.002 -0.072,-0.623 0,-225.862 -0.306,-0.733 -0.733,-0.307 -0.01,0 -0.733,0.307 -0.307,0.733 0,225.862 -0.071,0.623 -2.967,0.002 4.083,13.765 4.083,-13.765 z"
       style="fill:#000000;fill-opacity:1;fill-rule:evenodd;stroke:none"
       id="path204"
       inkscape:connector-curvature="0" /><path
       d="m 989.2,728.95131 -13.957,-4.083 -0.003,2.968 -0.632,0.071 -229.029,0 -0.733,0.307 -0.307,0.732 0,0.01 0.307,0.733 0.733,0.307 229.029,0 0.632,0.071 0.003,2.967 13.957,-4.083 z"
       style="fill:#000000;fill-opacity:1;fill-rule:evenodd;stroke:none"
       id="path206"
       inkscape:connector-curvature="0" /><path
       d="m 755.923,738.75031 0.134,-0.003 0.133,-0.004 0.133,-0.006 0.133,-0.007 0.132,-0.01 0.131,-0.011 0.132,-0.012 0.131,-0.014 0.13,-0.016 0.131,-0.017 0.129,-0.019 0.129,-0.021 0.128,-0.022 0.129,-0.024 0.127,-0.025 0.127,-0.027 0.126,-0.028 0.126,-0.03 0.125,-0.032 0.125,-0.033 0.124,-0.034 0.123,-0.036 0.123,-0.037 0.122,-0.039 0.122,-0.04 0.121,-0.042 0.119,-0.043 0.12,-0.045 0.119,-0.046 0.118,-0.047 0.117,-0.049 0.117,-0.05 0.115,-0.052 0.115,-0.053 0.115,-0.054 0.113,-0.056 0.113,-0.056 0.112,-0.059 0.111,-0.059 0.11,-0.061 0.11,-0.062 0.108,-0.063 0.108,-0.065 0.107,-0.066 0.106,-0.067 0.105,-0.068 0.105,-0.07 0.103,-0.071 0.102,-0.072 0.102,-0.073 0.101,-0.074 0.099,-0.076 0.099,-0.076 0.098,-0.078 0.097,-0.079 0.095,-0.08 0.095,-0.081 0.094,-0.083 0.093,-0.083 0.092,-0.085 0.09,-0.085 0.09,-0.087 0.089,-0.087 0.088,-0.089 0.087,-0.09 0.085,-0.091 0.085,-0.092 0.083,-0.093 0.082,-0.093 0.081,-0.095 0.081,-0.096 0.078,-0.097 0.078,-0.098 0.077,-0.099 0.075,-0.099 0.075,-0.101 0.073,-0.101 0.072,-0.103 0.071,-0.103 0.07,-0.105 0.068,-0.105 0.067,-0.105 0.066,-0.108 0.064,-0.107 0.063,-0.109 0.063,-0.109 0.061,-0.111 0.059,-0.111 0.058,-0.112 0.057,-0.112 0.056,-0.114 0.054,-0.114 0.053,-0.115 0.051,-0.116 0.05,-0.116 0.049,-0.118 0.048,-0.118 0.046,-0.119 0.044,-0.119 0.043,-0.12 0.042,-0.121 0.041,-0.121 0.038,-0.122 0.038,-0.123 0.036,-0.124 0.034,-0.124 0.033,-0.124 0.031,-0.125 0.03,-0.126 0.029,-0.127 0.027,-0.127 0.025,-0.127 0.024,-0.128 0.022,-0.129 0.02,-0.129 0.019,-0.129 0.018,-0.13 0.015,-0.131 0.015,-0.131 0.012,-0.131 0.011,-0.131 0.009,-0.133 0.008,-0.133 0.006,-0.133 0.004,-0.133 0.002,-0.133 10e-4,-0.135 -10e-4,-0.134 -0.002,-0.134 -0.004,-0.133 -0.006,-0.132 -0.008,-0.133 -0.009,-0.133 -0.011,-0.131 -0.012,-0.131 -0.015,-0.132 -0.015,-0.13 -0.018,-0.13 -0.019,-0.129 -0.02,-0.13 -0.022,-0.128 -0.024,-0.128 -0.025,-0.128 -0.027,-0.127 -0.029,-0.126 -0.03,-0.126 -0.031,-0.125 -0.033,-0.124 -0.034,-0.125 -0.036,-0.123 -0.038,-0.123 -0.038,-0.122 -0.041,-0.121 -0.042,-0.121 -0.043,-0.12 -0.044,-0.12 -0.046,-0.118 -0.048,-0.118 -0.048,-0.118 -0.051,-0.116 -0.051,-0.116 -0.053,-0.115 -0.054,-0.114 -0.056,-0.114 -0.057,-0.113 -0.058,-0.111 -0.06,-0.112 -0.06,-0.11 -0.063,-0.11 -0.063,-0.108 -0.064,-0.107 -0.066,-0.108 -0.067,-0.106 -0.069,-0.105 -0.069,-0.104 -0.071,-0.104 -0.072,-0.102 -0.073,-0.101 -0.074,-0.101 -0.076,-0.1 -0.077,-0.098 -0.078,-0.099 -0.079,-0.096 -0.079,-0.096 -0.082,-0.095 -0.082,-0.093 -0.083,-0.093 -0.085,-0.093 -0.086,-0.09 -0.086,-0.09 -0.088,-0.089 -0.089,-0.088 -0.089,-0.086 -0.091,-0.085 -0.092,-0.085 -0.093,-0.084 -0.094,-0.082 -0.095,-0.081 -0.095,-0.08 -0.097,-0.079 -0.098,-0.078 -0.099,-0.077 -0.1,-0.075 -0.1,-0.074 -0.101,-0.073 -0.103,-0.072 -0.104,-0.071 -0.104,-0.07 -0.105,-0.068 -0.106,-0.067 -0.107,-0.066 -0.107,-0.065 -0.109,-0.063 -0.11,-0.062 -0.11,-0.061 -0.111,-0.06 -0.112,-0.058 -0.113,-0.057 -0.113,-0.055 -0.115,-0.054 -0.115,-0.053 -0.115,-0.052 -0.117,-0.05 -0.117,-0.049 -0.118,-0.047 -0.119,-0.046 -0.119,-0.045 -0.12,-0.043 -0.122,-0.042 -0.121,-0.04 -0.121,-0.039 -0.123,-0.037 -0.124,-0.036 -0.124,-0.035 -0.125,-0.033 -0.125,-0.031 -0.126,-0.03 -0.126,-0.028 -0.127,-0.027 -0.127,-0.025 -0.129,-0.024 -0.128,-0.022 -0.129,-0.021 -0.13,-0.019 -0.129,-0.017 -0.131,-0.016 -0.131,-0.014 -0.131,-0.013 -0.132,-0.011 -0.133,-0.009 -0.132,-0.007 -0.133,-0.006 -0.133,-0.004 -0.134,-0.003 -0.134,-10e-4 -0.134,10e-4 -0.134,0.003 -0.133,0.004 -0.133,0.006 -0.132,0.007 -0.133,0.009 -0.132,0.011 -0.131,0.013 -0.131,0.014 -0.131,0.016 -0.129,0.017 -0.13,0.019 -0.129,0.021 -0.128,0.022 -0.128,0.024 -0.128,0.025 -0.127,0.027 -0.126,0.028 -0.126,0.03 -0.125,0.031 -0.125,0.033 -0.124,0.035 -0.124,0.036 -0.122,0.037 -0.122,0.039 -0.121,0.04 -0.122,0.042 -0.12,0.043 -0.119,0.045 -0.118,0.046 -0.119,0.047 -0.117,0.049 -0.117,0.05 -0.115,0.052 -0.116,0.053 -0.114,0.054 -0.113,0.055 -0.113,0.057 -0.112,0.058 -0.111,0.06 -0.11,0.061 -0.11,0.062 -0.108,0.063 -0.108,0.065 -0.107,0.066 -0.106,0.067 -0.105,0.068 -0.104,0.07 -0.104,0.071 -0.102,0.072 -0.102,0.073 -0.1,0.074 -0.1,0.075 -0.099,0.077 -0.098,0.078 -0.096,0.079 -0.096,0.08 -0.095,0.081 -0.094,0.082 -0.093,0.084 -0.092,0.084 -0.09,0.086 -0.09,0.087 -0.089,0.087 -0.088,0.089 -0.087,0.09 -0.085,0.091 -0.084,0.091 -0.084,0.093 -0.082,0.094 -0.081,0.095 -0.08,0.096 -0.079,0.097 -0.078,0.098 -0.077,0.098 -0.075,0.1 -0.075,0.101 -0.073,0.101 -0.072,0.103 -0.071,0.103 -0.069,0.104 -0.069,0.106 -0.067,0.105 -0.065,0.107 -0.065,0.108 -0.063,0.109 -0.063,0.109 -0.06,0.11 -0.06,0.112 -0.058,0.111 -0.057,0.113 -0.056,0.114 -0.054,0.114 -0.053,0.115 -0.051,0.116 -0.05,0.116 -0.049,0.117 -0.048,0.118 -0.046,0.119 -0.044,0.12 -0.043,0.12 -0.042,0.121 -0.04,0.121 -0.039,0.122 -0.038,0.123 -0.036,0.123 -0.034,0.125 -0.033,0.124 -0.031,0.125 -0.03,0.126 -0.029,0.126 -0.026,0.127 -0.026,0.128 -0.023,0.128 -0.023,0.128 -0.02,0.129 -0.019,0.13 -0.018,0.13 -0.015,0.13 -0.014,0.131 -0.013,0.132 -0.011,0.132 -0.009,0.132 -0.008,0.132 -0.006,0.133 -0.004,0.134 -0.002,0.134 -10e-4,0.133 10e-4,0.134 0.002,0.134 0.004,0.133 0.006,0.134 0.008,0.132 0.009,0.132 0.011,0.132 0.013,0.131 0.014,0.131 0.015,0.131 0.018,0.13 0.019,0.13 0.02,0.128 0.023,0.129 0.023,0.128 0.026,0.127 0.026,0.127 0.029,0.127 0.03,0.126 0.031,0.125 0.033,0.124 0.034,0.124 0.036,0.124 0.038,0.122 0.039,0.123 0.04,0.121 0.042,0.121 0.043,0.12 0.044,0.119 0.046,0.119 0.048,0.118 0.049,0.118 0.05,0.116 0.051,0.116 0.053,0.115 0.054,0.114 0.056,0.114 0.057,0.112 0.058,0.112 0.06,0.111 0.061,0.111 0.062,0.109 0.063,0.108 0.065,0.109 0.066,0.107 0.066,0.105 0.069,0.105 0.07,0.105 0.07,0.103 0.072,0.103 0.073,0.101 0.075,0.101 0.075,0.1 0.077,0.098 0.077,0.098 0.079,0.097 0.081,0.096 0.081,0.095 0.082,0.094 0.084,0.092 0.084,0.092 0.085,0.091 0.087,0.09 0.088,0.089 0.088,0.087 0.091,0.087 0.091,0.086 0.091,0.084 0.093,0.083 0.094,0.083 0.095,0.081 0.096,0.08 0.097,0.079 0.097,0.077 0.099,0.077 0.1,0.076 0.1,0.074 0.102,0.073 0.103,0.072 0.102,0.071 0.105,0.07 0.105,0.068 0.106,0.067 0.107,0.066 0.108,0.065 0.108,0.063 0.11,0.062 0.11,0.061 0.111,0.059 0.112,0.058 0.113,0.057 0.113,0.056 0.114,0.054 0.116,0.053 0.115,0.052 0.117,0.05 0.117,0.049 0.118,0.047 0.119,0.046 0.12,0.045 0.119,0.043 0.121,0.042 0.122,0.04 0.122,0.039 0.123,0.037 0.123,0.036 0.124,0.034 0.125,0.033 0.125,0.032 0.126,0.03 0.126,0.028 0.127,0.027 0.128,0.025 0.128,0.024 0.128,0.022 0.129,0.021 0.129,0.019 0.131,0.017 0.13,0.016 0.131,0.014 0.132,0.012 0.131,0.011 0.132,0.01 0.133,0.007 0.133,0.006 0.133,0.004 0.134,0.003 0.134,10e-4 0.134,-10e-4 z m -0.243,-2 -0.108,-0.002 -0.108,-0.004 -0.108,-0.004 -0.107,-0.006 -0.107,-0.008 -0.106,-0.009 -0.107,-0.01 -0.105,-0.011 -0.106,-0.013 -0.105,-0.014 -0.104,-0.015 -0.105,-0.017 -0.103,-0.018 -0.104,-0.019 -0.103,-0.02 -0.102,-0.022 -0.102,-0.023 -0.101,-0.024 -0.102,-0.025 -0.1,-0.027 -0.1,-0.028 -0.1,-0.029 -0.099,-0.03 -0.098,-0.031 -0.098,-0.033 -0.098,-0.033 -0.096,-0.035 -0.097,-0.036 -0.096,-0.037 -0.095,-0.039 -0.094,-0.039 -0.094,-0.04 -0.094,-0.042 -0.093,-0.043 -0.092,-0.044 -0.092,-0.044 -0.091,-0.046 -0.09,-0.047 -0.09,-0.048 -0.089,-0.05 -0.088,-0.05 -0.088,-0.051 -0.087,-0.052 -0.087,-0.053 -0.085,-0.055 -0.085,-0.055 -0.084,-0.056 -0.084,-0.057 -0.083,-0.058 -0.082,-0.06 -0.081,-0.06 -0.081,-0.061 -0.08,-0.062 -0.079,-0.063 -0.078,-0.064 -0.078,-0.064 -0.077,-0.066 -0.075,-0.067 -0.076,-0.067 -0.074,-0.068 -0.073,-0.07 -0.073,-0.07 -0.072,-0.071 -0.071,-0.072 -0.07,-0.072 -0.069,-0.074 -0.068,-0.074 -0.068,-0.075 -0.067,-0.076 -0.065,-0.077 -0.065,-0.077 -0.064,-0.079 -0.063,-0.079 -0.062,-0.08 -0.061,-0.08 -0.06,-0.082 -0.059,-0.082 -0.058,-0.082 -0.057,-0.084 -0.057,-0.084 -0.055,-0.085 -0.054,-0.086 -0.053,-0.086 -0.053,-0.087 -0.051,-0.088 -0.05,-0.089 -0.049,-0.089 -0.048,-0.089 -0.047,-0.091 -0.046,-0.091 -0.045,-0.091 -0.044,-0.093 -0.042,-0.093 -0.042,-0.093 -0.041,-0.094 -0.039,-0.095 -0.038,-0.095 -0.037,-0.096 -0.036,-0.096 -0.035,-0.097 -0.034,-0.097 -0.032,-0.098 -0.032,-0.099 -0.03,-0.099 -0.029,-0.099 -0.028,-0.101 -0.026,-0.1 -0.025,-0.101 -0.025,-0.102 -0.022,-0.102 -0.022,-0.102 -0.021,-0.103 -0.019,-0.103 -0.018,-0.104 -0.016,-0.104 -0.015,-0.105 -0.015,-0.105 -0.012,-0.105 -0.012,-0.106 -0.01,-0.106 -0.009,-0.107 -0.007,-0.107 -0.006,-0.107 -0.005,-0.108 -0.003,-0.108 -0.002,-0.108 -10e-4,-0.109 10e-4,-0.108 0.002,-0.109 0.003,-0.108 0.005,-0.107 0.006,-0.108 0.007,-0.107 0.009,-0.106 0.01,-0.106 0.012,-0.106 0.012,-0.106 0.015,-0.105 0.015,-0.104 0.016,-0.104 0.018,-0.104 0.019,-0.103 0.021,-0.103 0.022,-0.103 0.022,-0.102 0.025,-0.101 0.025,-0.101 0.026,-0.101 0.028,-0.1 0.029,-0.099 0.03,-0.099 0.032,-0.099 0.032,-0.098 0.034,-0.097 0.035,-0.097 0.036,-0.096 0.037,-0.096 0.038,-0.095 0.039,-0.095 0.041,-0.094 0.042,-0.094 0.042,-0.092 0.044,-0.093 0.045,-0.091 0.046,-0.091 0.047,-0.091 0.048,-0.089 0.049,-0.09 0.05,-0.088 0.051,-0.088 0.053,-0.087 0.053,-0.086 0.054,-0.086 0.055,-0.085 0.057,-0.084 0.057,-0.084 0.058,-0.083 0.059,-0.082 0.06,-0.081 0.061,-0.081 0.062,-0.079 0.063,-0.08 0.064,-0.078 0.065,-0.077 0.065,-0.077 0.067,-0.076 0.068,-0.075 0.068,-0.075 0.069,-0.073 0.07,-0.073 0.071,-0.071 0.072,-0.071 0.073,-0.071 0.073,-0.069 0.074,-0.068 0.076,-0.068 0.075,-0.066 0.077,-0.066 0.078,-0.065 0.078,-0.063 0.079,-0.063 0.08,-0.062 0.081,-0.061 0.081,-0.061 0.082,-0.059 0.083,-0.058 0.084,-0.057 0.084,-0.056 0.085,-0.056 0.085,-0.054 0.087,-0.053 0.087,-0.052 0.088,-0.051 0.088,-0.051 0.089,-0.049 0.09,-0.048 0.09,-0.047 0.091,-0.046 0.092,-0.045 0.092,-0.043 0.093,-0.043 0.094,-0.042 0.094,-0.04 0.094,-0.04 0.095,-0.038 0.096,-0.037 0.097,-0.036 0.096,-0.035 0.098,-0.033 0.098,-0.033 0.098,-0.031 0.099,-0.03 0.1,-0.029 0.1,-0.028 0.1,-0.027 0.102,-0.025 0.101,-0.024 0.102,-0.023 0.102,-0.022 0.103,-0.02 0.104,-0.019 0.103,-0.018 0.105,-0.017 0.104,-0.015 0.105,-0.014 0.106,-0.013 0.105,-0.011 0.107,-0.01 0.106,-0.009 0.107,-0.008 0.107,-0.006 0.108,-0.005 0.108,-0.003 0.108,-0.002 0.109,-10e-4 0.109,10e-4 0.108,0.002 0.108,0.003 0.108,0.005 0.107,0.006 0.107,0.008 0.107,0.009 0.106,0.01 0.106,0.011 0.105,0.013 0.105,0.014 0.105,0.015 0.104,0.017 0.104,0.018 0.103,0.019 0.103,0.02 0.102,0.022 0.102,0.023 0.102,0.024 0.101,0.025 0.1,0.027 0.1,0.028 0.1,0.029 0.099,0.03 0.098,0.031 0.098,0.033 0.098,0.033 0.097,0.035 0.096,0.036 0.096,0.037 0.095,0.038 0.095,0.04 0.094,0.04 0.093,0.042 0.093,0.043 0.092,0.043 0.092,0.045 0.091,0.046 0.09,0.047 0.09,0.048 0.089,0.049 0.088,0.051 0.088,0.051 0.087,0.052 0.087,0.053 0.085,0.054 0.085,0.056 0.085,0.056 0.083,0.057 0.083,0.058 0.082,0.059 0.081,0.061 0.081,0.061 0.08,0.062 0.079,0.063 0.078,0.063 0.078,0.065 0.077,0.066 0.076,0.066 0.075,0.068 0.074,0.068 0.073,0.069 0.073,0.071 0.072,0.071 0.071,0.071 0.07,0.073 0.069,0.073 0.069,0.075 0.067,0.075 0.067,0.076 0.065,0.077 0.065,0.077 0.064,0.078 0.063,0.08 0.062,0.079 0.061,0.081 0.06,0.081 0.059,0.082 0.058,0.083 0.058,0.084 0.056,0.084 0.055,0.085 0.054,0.086 0.054,0.086 0.052,0.087 0.051,0.088 0.05,0.088 0.049,0.09 0.048,0.089 0.047,0.091 0.046,0.091 0.045,0.091 0.044,0.093 0.043,0.092 0.041,0.094 0.041,0.094 0.039,0.095 0.038,0.095 0.037,0.096 0.036,0.096 0.035,0.097 0.034,0.097 0.032,0.098 0.032,0.099 0.03,0.099 0.029,0.099 0.028,0.1 0.026,0.101 0.026,0.101 0.024,0.101 0.023,0.102 0.021,0.103 0.021,0.103 0.019,0.103 0.018,0.104 0.016,0.104 0.016,0.104 0.014,0.105 0.012,0.106 0.012,0.106 0.01,0.106 0.009,0.106 0.007,0.107 0.006,0.108 0.005,0.107 0.004,0.108 0.002,0.109 0,0.108 0,0.109 -0.002,0.108 -0.004,0.108 -0.005,0.108 -0.006,0.107 -0.007,0.107 -0.009,0.107 -0.01,0.106 -0.012,0.106 -0.012,0.105 -0.014,0.105 -0.016,0.105 -0.016,0.104 -0.018,0.104 -0.019,0.103 -0.021,0.103 -0.021,0.102 -0.023,0.102 -0.024,0.102 -0.026,0.101 -0.026,0.1 -0.028,0.101 -0.029,0.099 -0.03,0.099 -0.032,0.099 -0.032,0.098 -0.034,0.097 -0.035,0.097 -0.036,0.096 -0.037,0.096 -0.038,0.095 -0.039,0.095 -0.041,0.094 -0.041,0.093 -0.043,0.093 -0.044,0.093 -0.045,0.091 -0.046,0.091 -0.047,0.091 -0.048,0.089 -0.049,0.089 -0.05,0.089 -0.051,0.088 -0.052,0.087 -0.054,0.086 -0.054,0.086 -0.055,0.085 -0.056,0.084 -0.058,0.084 -0.058,0.082 -0.059,0.082 -0.06,0.082 -0.061,0.08 -0.062,0.08 -0.063,0.079 -0.064,0.079 -0.065,0.077 -0.065,0.077 -0.067,0.076 -0.067,0.075 -0.069,0.074 -0.069,0.074 -0.07,0.072 -0.071,0.072 -0.072,0.071 -0.073,0.07 -0.073,0.07 -0.074,0.068 -0.075,0.067 -0.076,0.067 -0.077,0.066 -0.078,0.064 -0.078,0.064 -0.079,0.063 -0.08,0.062 -0.081,0.061 -0.081,0.06 -0.082,0.06 -0.083,0.058 -0.083,0.057 -0.085,0.056 -0.085,0.055 -0.085,0.055 -0.087,0.053 -0.087,0.052 -0.088,0.051 -0.088,0.05 -0.089,0.05 -0.09,0.048 -0.09,0.047 -0.091,0.046 -0.092,0.044 -0.092,0.044 -0.093,0.043 -0.093,0.042 -0.094,0.04 -0.095,0.039 -0.095,0.039 -0.096,0.037 -0.096,0.036 -0.097,0.035 -0.098,0.033 -0.098,0.033 -0.098,0.031 -0.099,0.03 -0.1,0.029 -0.1,0.028 -0.1,0.027 -0.101,0.025 -0.102,0.024 -0.102,0.023 -0.102,0.022 -0.103,0.02 -0.103,0.019 -0.104,0.018 -0.104,0.017 -0.105,0.015 -0.105,0.014 -0.105,0.013 -0.106,0.011 -0.106,0.01 -0.107,0.009 -0.107,0.008 -0.107,0.006 -0.108,0.004 -0.108,0.004 -0.108,0.002 -0.109,10e-4 -0.109,-10e-4 z"
       style="fill:#ff3c58;fill-opacity:1;fill-rule:evenodd;stroke:none"
       id="path208"
       inkscape:connector-curvature="0" /><path
       d="m 20.3611,932.17231 c 0.2591,1.004 0.6235,1.806 1.0933,2.405 0.4697,0.599 1.0123,1.053 1.6278,1.36 0.6155,0.308 1.3119,0.503 2.0894,0.584 0.7775,0.081 1.6035,0.121 2.4782,0.121 0.8422,0 1.6764,-0.089 2.5024,-0.267 0.8261,-0.178 1.5711,-0.478 2.2352,-0.899 0.6641,-0.421 1.1986,-0.98 1.6035,-1.677 0.4049,-0.696 0.6074,-1.546 0.6074,-2.551 l 0,-8.989 c 0,-0.615 0.162,-1.158 0.4859,-1.628 0.324,-0.47 0.8261,-0.704 1.5063,-0.704 0.6479,0 1.2229,0.186 1.725,0.558 0.5021,0.373 0.98,0.737 1.4335,1.094 l 0.4859,-0.535 c -0.324,-0.324 -0.7046,-0.704 -1.1419,-1.142 -0.4373,-0.437 -0.8989,-0.858 -1.3849,-1.263 -0.4859,-0.405 -0.9799,-0.745 -1.482,-1.02 -0.5021,-0.276 -0.9961,-0.413 -1.482,-0.413 -0.324,0 -0.6641,0.105 -1.0204,0.315 -0.3564,0.211 -0.7046,0.462 -1.0448,0.754 -0.3401,0.291 -0.6559,0.599 -0.9475,0.923 -0.2915,0.324 -0.5507,0.599 -0.7774,0.826 -1.0367,-0.713 -2.2028,-1.361 -3.4986,-1.944 -1.2958,-0.583 -2.5592,-0.874 -3.7901,-0.874 -0.6803,0 -1.3363,0.113 -1.968,0.34 -0.6317,0.226 -1.1905,0.55 -1.6764,0.971 -0.4859,0.422 -0.8746,0.924 -1.1662,1.507 -0.2915,0.583 -0.4373,1.247 -0.4373,1.992 0,1.328 0.3725,2.389 1.1176,3.183 0.7451,0.793 1.7088,1.401 2.8912,1.822 1.1824,0.421 2.5267,0.705 4.0331,0.85 1.5063,0.146 3.0207,0.235 4.5432,0.268 l 0,3.692 c 0,1.199 -0.3725,2.122 -1.1175,2.77 -0.7451,0.648 -1.6845,0.972 -2.8183,0.972 -0.8423,0 -1.5064,-0.421 -1.9923,-1.263 -0.4859,-0.843 -0.7289,-1.798 -0.7289,-2.867 l -3.9844,0.729 z m 10.5443,-5.928 c -1.069,0.291 -2.1542,0.437 -3.2556,0.437 -0.6155,0 -1.231,-0.073 -1.8465,-0.219 -0.6155,-0.146 -1.1662,-0.38 -1.6521,-0.704 -0.4859,-0.324 -0.8828,-0.737 -1.1905,-1.239 -0.3077,-0.503 -0.4616,-1.11 -0.4616,-1.823 0,-1.101 0.3806,-1.887 1.1419,-2.356 0.7612,-0.47 1.6116,-0.705 2.551,-0.705 1.0366,0 1.9842,0.211 2.8426,0.632 0.8584,0.421 1.482,0.777 1.8708,1.069 l 0,4.908 z"
       style="fill:#000000;fill-opacity:1;fill-rule:nonzero;stroke:none"
       id="path262"
       inkscape:connector-curvature="0" /><path
       d="m 40.3807,908.75131 c 1.5873,1.619 2.9721,3.239 4.1545,4.859 1.1824,1.619 2.1623,3.28 2.9398,4.98 0.7774,1.701 1.3605,3.475 1.7493,5.321 0.3887,1.847 0.5831,3.823 0.5831,5.928 0,2.203 -0.2349,4.284 -0.7046,6.244 -0.4697,1.96 -1.1257,3.815 -1.9679,5.564 -0.8423,1.749 -1.8465,3.393 -3.0127,4.932 -1.1662,1.539 -2.462,2.988 -3.8873,4.349 l 0.6317,0.486 c 1.7169,-1.426 3.369,-2.908 4.9563,-4.446 1.5873,-1.539 2.9964,-3.183 4.2274,-4.932 1.231,-1.75 2.2109,-3.628 2.9398,-5.637 0.7289,-2.008 1.0933,-4.195 1.0933,-6.56 0,-2.235 -0.3725,-4.381 -1.1176,-6.438 -0.7451,-2.057 -1.7331,-4.001 -2.9641,-5.831 -1.2309,-1.83 -2.6401,-3.523 -4.2274,-5.078 -1.5873,-1.555 -3.2394,-2.964 -4.9563,-4.227 l -0.4373,0.486 z"
       style="fill:#000000;fill-opacity:1;fill-rule:nonzero;stroke:none"
       id="path264"
       inkscape:connector-curvature="0" /><path
       d="m 553.508,951.07431 7.58,0.923 c -0.065,-3.045 -0.105,-6.058 -0.121,-9.038 -0.016,-2.98 -0.057,-5.993 -0.122,-9.038 0.875,0.648 1.839,1.166 2.891,1.555 1.053,0.389 2.211,0.583 3.475,0.583 1.425,0 2.745,-0.227 3.96,-0.68 1.215,-0.454 2.268,-1.077 3.158,-1.871 0.891,-0.794 1.588,-1.749 2.09,-2.867 0.502,-1.118 0.753,-2.34 0.753,-3.669 0,-1.717 -0.275,-3.215 -0.826,-4.494 -0.551,-1.28 -1.296,-2.357 -2.235,-3.232 -0.94,-0.874 -2.057,-1.53 -3.353,-1.968 -1.296,-0.437 -2.673,-0.656 -4.13,-0.656 -1.069,0 -2.122,0.122 -3.159,0.365 -1.036,0.243 -1.992,0.534 -2.867,0.875 -0.874,0.34 -1.611,0.68 -2.211,1.02 -0.599,0.34 -0.996,0.607 -1.19,0.802 l 0,27.842 c 0,1.134 -0.308,1.912 -0.923,2.333 -0.616,0.421 -1.539,0.632 -2.77,0.632 l 0,0.583 z m 19.388,-24.733 c 0,1.198 -0.146,2.3 -0.437,3.304 -0.292,1.004 -0.705,1.871 -1.239,2.6 -0.535,0.728 -1.183,1.303 -1.944,1.725 -0.761,0.421 -1.612,0.631 -2.551,0.631 -1.037,0 -1.944,-0.129 -2.721,-0.389 -0.778,-0.259 -1.418,-0.704 -1.92,-1.336 -0.502,-0.631 -0.882,-1.482 -1.142,-2.551 -0.259,-1.069 -0.388,-2.397 -0.388,-3.984 0,-1.588 0.129,-2.908 0.388,-3.961 0.26,-1.052 0.64,-1.895 1.142,-2.526 0.502,-0.632 1.142,-1.085 1.92,-1.361 0.777,-0.275 1.684,-0.413 2.721,-0.413 0.939,0 1.79,0.211 2.551,0.632 0.761,0.421 1.409,0.996 1.944,1.725 0.534,0.729 0.947,1.595 1.239,2.599 0.291,1.005 0.437,2.106 0.437,3.305 z"
       style="fill:#000000;fill-opacity:1;fill-rule:nonzero;stroke:none"
       id="path274"
       inkscape:connector-curvature="0" /><path
       d="m 579.796,908.16831 c 1.587,1.619 2.972,3.239 4.154,4.859 1.183,1.619 2.163,3.28 2.94,4.98 0.778,1.701 1.361,3.475 1.749,5.321 0.389,1.846 0.584,3.823 0.584,5.928 0,2.203 -0.235,4.284 -0.705,6.244 -0.47,1.96 -1.126,3.815 -1.968,5.564 -0.842,1.749 -1.846,3.393 -3.013,4.932 -1.166,1.539 -2.462,2.988 -3.887,4.349 l 0.632,0.486 c 1.717,-1.426 3.369,-2.908 4.956,-4.446 1.587,-1.539 2.997,-3.183 4.228,-4.932 1.231,-1.75 2.21,-3.629 2.939,-5.637 0.729,-2.008 1.094,-4.195 1.094,-6.56 0,-2.235 -0.373,-4.381 -1.118,-6.438 -0.745,-2.057 -1.733,-4.001 -2.964,-5.831 -1.231,-1.83 -2.64,-3.523 -4.228,-5.078 -1.587,-1.555 -3.239,-2.964 -4.956,-4.227 l -0.437,0.486 z"
       style="fill:#000000;fill-opacity:1;fill-rule:nonzero;stroke:none"
       id="path276"
       inkscape:connector-curvature="0" /><g
       id="g4416"
       style="stroke:none"
       transform="translate(0,491.69031)"><path
         inkscape:connector-curvature="0"
         id="path140"
         style="fill:#000000;fill-opacity:1;fill-rule:nonzero;stroke:none;stroke-width:0.5;stroke-linecap:butt;stroke-linejoin:miter;stroke-miterlimit:10;stroke-dasharray:none;stroke-opacity:1"
         d="m 846.64616,165.26732 -0.182,-0.928 c -0.227,-0.009 -0.511,-0.051 -0.851,-0.126 -0.341,-0.075 -0.6,-0.146 -0.778,-0.211 -0.316,-0.122 -0.543,-0.314 -0.681,-0.577 -0.138,-0.262 -0.239,-0.543 -0.304,-0.843 l -2.893,-14.526 c -0.016,-0.075 -0.028,-0.159 -0.036,-0.253 -0.008,-0.093 -0.012,-0.173 -0.012,-0.239 0,-0.197 0.036,-0.37 0.109,-0.52 0.073,-0.15 0.191,-0.286 0.353,-0.408 0.121,-0.084 0.342,-0.169 0.662,-0.253 0.32,-0.084 0.594,-0.131 0.821,-0.141 l -0.183,-0.928 -7.159,0 0.182,0.928 c 0.203,0.019 0.49,0.047 0.863,0.085 0.373,0.037 0.636,0.094 0.79,0.169 0.284,0.121 0.503,0.3 0.657,0.534 0.154,0.234 0.263,0.525 0.328,0.872 l 1.434,7.199 -8.107,0 -1.398,-7.045 c -0.016,-0.075 -0.029,-0.154 -0.037,-0.239 -0.008,-0.084 -0.012,-0.164 -0.012,-0.239 0,-0.187 0.039,-0.365 0.116,-0.534 0.077,-0.169 0.192,-0.305 0.346,-0.408 0.122,-0.084 0.342,-0.169 0.663,-0.253 0.32,-0.084 0.593,-0.131 0.82,-0.141 l -0.182,-0.928 -7.16,0 0.183,0.928 c 0.202,0.019 0.49,0.047 0.863,0.085 0.372,0.037 0.636,0.094 0.79,0.169 0.283,0.121 0.502,0.3 0.656,0.534 0.154,0.234 0.263,0.525 0.328,0.872 l 2.905,14.539 c 0.017,0.075 0.029,0.152 0.037,0.232 0.008,0.08 0.012,0.162 0.012,0.246 0,0.206 -0.034,0.384 -0.103,0.534 -0.069,0.15 -0.193,0.282 -0.371,0.394 -0.195,0.122 -0.438,0.23 -0.729,0.324 -0.292,0.093 -0.551,0.15 -0.778,0.168 l 0.182,0.928 7.159,0 -0.182,-0.928 c -0.227,-0.009 -0.51,-0.051 -0.851,-0.126 -0.34,-0.075 -0.599,-0.146 -0.778,-0.211 -0.316,-0.122 -0.543,-0.314 -0.68,-0.577 -0.138,-0.262 -0.239,-0.543 -0.304,-0.843 l -1.24,-6.286 8.107,0 1.216,6.145 c 0.016,0.075 0.028,0.152 0.036,0.232 0.008,0.08 0.013,0.157 0.013,0.232 0,0.206 -0.035,0.387 -0.104,0.541 -0.069,0.155 -0.192,0.289 -0.371,0.401 -0.194,0.122 -0.437,0.23 -0.729,0.324 -0.292,0.093 -0.551,0.15 -0.778,0.168 l 0.183,0.928 7.159,0 z" /><path
         inkscape:connector-curvature="0"
         id="path144"
         style="fill:#000000;fill-opacity:1;fill-rule:nonzero;stroke:none;stroke-width:0.5;stroke-linecap:butt;stroke-linejoin:miter;stroke-miterlimit:10;stroke-dasharray:none;stroke-opacity:1"
         d="m 846.36716,144.60632 1.306,0.111 c 0.097,-0.636 0.321,-1.114 0.674,-1.434 0.352,-0.32 0.778,-0.481 1.275,-0.481 0.599,0 1.106,0.226 1.521,0.678 0.414,0.451 0.622,1.05 0.622,1.797 0,0.709 -0.2,1.269 -0.598,1.679 -0.399,0.41 -0.92,0.615 -1.566,0.615 -0.4,0 -0.762,-0.091 -1.085,-0.273 -0.322,-0.182 -0.576,-0.418 -0.76,-0.708 l -1.168,0.152 0.981,5.204 5.039,0 0,-1.188 -4.043,0 -0.546,-2.723 c 0.608,0.423 1.246,0.635 1.914,0.635 0.885,0 1.631,-0.306 2.24,-0.919 0.608,-0.613 0.912,-1.401 0.912,-2.364 0,-0.917 -0.267,-1.709 -0.802,-2.377 -0.65,-0.82 -1.537,-1.231 -2.661,-1.231 -0.921,0 -1.674,0.259 -2.256,0.775 -0.583,0.516 -0.916,1.2 -0.999,2.052 z" /><path
         inkscape:connector-curvature="0"
         id="path146"
         style="fill:#000000;fill-opacity:1;fill-rule:nonzero;stroke:none;stroke-width:0.5;stroke-linecap:butt;stroke-linejoin:miter;stroke-miterlimit:10;stroke-dasharray:none;stroke-opacity:1"
         d="m 854.21516,139.20632 0,0.829 c 0.433,0 0.836,0.14 1.209,0.418 0.374,0.279 0.56,0.612 0.56,0.999 0,0.231 -0.092,0.346 -0.276,0.346 -0.042,0 -0.125,-0.016 -0.249,-0.049 -0.129,-0.027 -0.23,-0.041 -0.304,-0.041 -0.258,0 -0.499,0.102 -0.722,0.307 -0.224,0.205 -0.336,0.488 -0.336,0.847 0,0.35 0.116,0.651 0.346,0.902 0.23,0.251 0.548,0.377 0.954,0.377 0.493,0 0.883,-0.183 1.171,-0.55 0.288,-0.366 0.432,-0.867 0.432,-1.503 0,-0.889 -0.272,-1.586 -0.815,-2.091 -0.544,-0.504 -1.201,-0.768 -1.97,-0.791 z" /><path
         inkscape:connector-curvature="0"
         id="path148"
         style="fill:#000000;fill-opacity:1;fill-rule:nonzero;stroke:none;stroke-width:0.5;stroke-linecap:butt;stroke-linejoin:miter;stroke-miterlimit:10;stroke-dasharray:none;stroke-opacity:1"
         d="m 858.41016,141.95732 2.426,7.941 c 0.046,0.148 0.069,0.263 0.069,0.346 0,0.244 -0.288,0.366 -0.864,0.366 l 0.221,0.719 c 1.152,0 1.975,0.064 2.468,0.193 l 0.657,0 -1.832,-6.006 c 1.147,1.111 1.956,1.775 2.426,1.994 0.47,0.219 0.892,0.328 1.265,0.328 0.327,0 0.594,-0.067 0.802,-0.203 0.207,-0.136 0.311,-0.315 0.311,-0.536 0,-0.189 -0.068,-0.355 -0.204,-0.498 -0.136,-0.143 -0.329,-0.214 -0.577,-0.214 -0.217,0 -0.45,0.078 -0.699,0.235 -0.152,0.097 -0.297,0.145 -0.435,0.145 -0.479,0 -1.152,-0.417 -2.018,-1.251 0.373,0 0.717,-0.089 1.033,-0.266 0.316,-0.177 0.531,-0.404 0.646,-0.681 0.116,-0.276 0.196,-0.7 0.242,-1.271 0.028,-0.374 0.118,-0.56 0.27,-0.56 0.226,0 0.514,0.327 0.864,0.981 l 0.636,0 c -0.489,-1.239 -1.304,-1.859 -2.447,-1.859 -0.383,0 -0.712,0.099 -0.988,0.297 -0.277,0.198 -0.415,0.489 -0.415,0.871 0,0.157 0.028,0.396 0.083,0.719 0.05,0.318 0.076,0.537 0.076,0.656 0,0.392 -0.184,0.588 -0.553,0.588 l -0.677,-0.65 -0.733,-2.384 -2.053,0 z" /></g></g></svg>