<?xml version="1.0" encoding="UTF-8" standalone="no"?>
<!-- Created with Inkscape (http://www.inkscape.org/) -->

<svg
   xmlns:dc="http://purl.org/dc/elements/1.1/"
   xmlns:cc="http://creativecommons.org/ns#"
   xmlns:rdf="http://www.w3.org/1999/02/22-rdf-syntax-ns#"
   xmlns:svg="http://www.w3.org/2000/svg"
   xmlns="http://www.w3.org/2000/svg"
   xmlns:sodipodi="http://sodipodi.sourceforge.net/DTD/sodipodi-0.dtd"
   xmlns:inkscape="http://www.inkscape.org/namespaces/inkscape"
   id="svg2"
   version="1.1"
   inkscape:version="0.91 r13725"
   xml:space="preserve"
   width="1232.7122"
   height="577.70502"
   viewBox="0 0 1232.7122 577.70502"
   sodipodi:docname="vectorspace.svg"><metadata
     id="metadata8"><rdf:RDF><cc:Work
         rdf:about=""><dc:format>image/svg+xml</dc:format><dc:type
           rdf:resource="http://purl.org/dc/dcmitype/StillImage" /><dc:title></dc:title></cc:Work></rdf:RDF></metadata><defs
     id="defs6" /><sodipodi:namedview
     pagecolor="#ffffff"
     bordercolor="#666666"
     borderopacity="1"
     objecttolerance="10"
     gridtolerance="10"
     guidetolerance="10"
     inkscape:pageopacity="0"
     inkscape:pageshadow="2"
     inkscape:window-width="1713"
     inkscape:window-height="1157"
     id="namedview4"
     showgrid="false"
     inkscape:zoom="0.5759723"
     inkscape:cx="600.70125"
     inkscape:cy="184.2721"
     inkscape:window-x="0"
     inkscape:window-y="0"
     inkscape:window-maximized="0"
     inkscape:current-layer="g10"
     fit-margin-top="1"
     fit-margin-left="1"
     fit-margin-right="1"
     fit-margin-bottom="1" /><g
     id="g10"
     inkscape:groupmode="layer"
     inkscape:label="vectorspace"
     transform="matrix(1.25,0,0,-1.25,-4.787875,1218.3387)"><path
       d="m 323.48,619.959 77.467,243.869"
       style="fill:#808080;fill-opacity:1;fill-rule:evenodd;stroke:#9c9c9c;stroke-width:1.31579995;stroke-linecap:butt;stroke-linejoin:miter;stroke-miterlimit:10;stroke-dasharray:6.9079, 5.2632;stroke-dashoffset:0;stroke-opacity:1"
       id="path12"
       inkscape:connector-curvature="0" /><path
       d="m 323.48,619.959 77.467,243.869"
       style="fill:#808080;fill-opacity:1;fill-rule:evenodd;stroke:#9c9c9c;stroke-width:1.31579995;stroke-linecap:butt;stroke-linejoin:miter;stroke-miterlimit:10;stroke-dasharray:6.9079, 5.2632;stroke-dashoffset:0;stroke-opacity:1"
       id="path14"
       inkscape:connector-curvature="0" /><path
       d="M 279.337,927.104 322.161,620.819"
       style="fill:#808080;fill-opacity:1;fill-rule:evenodd;stroke:#9c9c9c;stroke-width:1.31579995;stroke-linecap:butt;stroke-linejoin:miter;stroke-miterlimit:10;stroke-dasharray:6.9079, 5.2632;stroke-dashoffset:0;stroke-opacity:1"
       id="path16"
       inkscape:connector-curvature="0" /><path
       d="M 400.695,863.906 279.326,926.944"
       style="fill:#808080;fill-opacity:1;fill-rule:evenodd;stroke:#9c9c9c;stroke-width:1.31579995;stroke-linecap:butt;stroke-linejoin:miter;stroke-miterlimit:10;stroke-dasharray:6.9079, 5.2632;stroke-dashoffset:0;stroke-opacity:1"
       id="path18"
       inkscape:connector-curvature="0" /><path
       d="m 400.731,869.102 c 3.073,0 5.568,-2.495 5.568,-5.569 0,-3.073 -2.495,-5.568 -5.568,-5.568 -3.073,0 -5.568,2.495 -5.568,5.568 0,3.074 2.495,5.569 5.568,5.569 z"
       style="fill:#000000;fill-opacity:1;fill-rule:evenodd;stroke:none"
       id="path20"
       inkscape:connector-curvature="0" /><path
       d="m 280.203,932.72 c 3.073,0 5.568,-2.495 5.568,-5.568 0,-3.074 -2.495,-5.569 -5.568,-5.569 -3.073,0 -5.568,2.495 -5.568,5.569 0,3.073 2.495,5.568 5.568,5.568 z"
       style="fill:#000000;fill-opacity:1;fill-rule:evenodd;stroke:none"
       id="path22"
       inkscape:connector-curvature="0" /><path
       d="m 323.264,626.314 c 3.073,0 5.568,-2.495 5.568,-5.568 0,-3.073 -2.495,-5.569 -5.568,-5.569 -3.073,0 -5.568,2.496 -5.568,5.569 0,3.073 2.495,5.568 5.568,5.568 z"
       style="fill:#000000;fill-opacity:1;fill-rule:evenodd;stroke:none"
       id="path24"
       inkscape:connector-curvature="0" /><path
       d="m 334.845,828.781 c 3.073,0 5.568,-2.495 5.568,-5.569 0,-3.073 -2.495,-5.568 -5.568,-5.568 -3.073,0 -5.568,2.495 -5.568,5.568 0,3.074 2.495,5.569 5.568,5.569 z"
       style="fill:#000000;fill-opacity:1;fill-rule:evenodd;stroke:none"
       id="path26"
       inkscape:connector-curvature="0" /><path
       d="m 356.41,854.795 -0.183,-0.928 c -0.227,-0.01 -0.51,-0.052 -0.851,-0.127 -0.34,-0.075 -0.599,-0.145 -0.778,-0.211 -0.316,-0.122 -0.542,-0.314 -0.68,-0.576 -0.138,-0.263 -0.239,-0.544 -0.304,-0.844 l -2.893,-14.525 c -0.016,-0.075 -0.028,-0.16 -0.036,-0.253 -0.009,-0.094 -0.013,-0.174 -0.013,-0.239 0,-0.197 0.037,-0.371 0.11,-0.521 0.073,-0.15 0.19,-0.286 0.352,-0.407 0.122,-0.085 0.343,-0.169 0.663,-0.253 0.32,-0.085 0.593,-0.132 0.82,-0.141 l -0.182,-0.928 -7.159,0 0.182,0.928 c 0.202,0.019 0.49,0.047 0.863,0.084 0.373,0.038 0.636,0.094 0.79,0.169 0.284,0.122 0.502,0.3 0.656,0.534 0.154,0.235 0.264,0.525 0.329,0.872 l 1.434,7.199 -8.108,0 -1.397,-7.044 c -0.017,-0.075 -0.029,-0.155 -0.037,-0.239 -0.008,-0.085 -0.012,-0.164 -0.012,-0.239 0,-0.188 0.038,-0.366 0.115,-0.535 0.077,-0.168 0.193,-0.304 0.347,-0.407 0.121,-0.085 0.342,-0.169 0.662,-0.253 0.32,-0.085 0.594,-0.132 0.821,-0.141 l -0.183,-0.928 -7.159,0 0.182,0.928 c 0.203,0.019 0.491,0.047 0.863,0.084 0.373,0.038 0.636,0.094 0.79,0.169 0.284,0.122 0.503,0.3 0.657,0.534 0.154,0.235 0.263,0.525 0.328,0.872 l 2.905,14.539 c 0.016,0.075 0.028,0.153 0.037,0.232 0.008,0.08 0.012,0.162 0.012,0.246 0,0.207 -0.035,0.385 -0.104,0.535 -0.069,0.15 -0.192,0.281 -0.37,0.394 -0.195,0.121 -0.438,0.229 -0.73,0.323 -0.291,0.094 -0.551,0.15 -0.778,0.169 l 0.183,0.928 7.159,0 -0.182,-0.928 c -0.227,-0.01 -0.511,-0.052 -0.851,-0.127 -0.34,-0.075 -0.6,-0.145 -0.778,-0.211 -0.316,-0.122 -0.543,-0.314 -0.681,-0.576 -0.137,-0.263 -0.239,-0.544 -0.304,-0.844 l -1.239,-6.285 8.107,0 1.216,6.144 c 0.016,0.075 0.028,0.153 0.036,0.232 0.008,0.08 0.012,0.157 0.012,0.232 0,0.207 -0.034,0.387 -0.103,0.542 -0.069,0.154 -0.193,0.288 -0.371,0.401 -0.194,0.121 -0.437,0.229 -0.729,0.323 -0.292,0.094 -0.551,0.15 -0.778,0.169 l 0.182,0.928 7.16,0 z"
       style="fill:#000000;fill-opacity:1;fill-rule:nonzero;stroke:none"
       id="path28"
       inkscape:connector-curvature="0" /><path
       d="m 431.771,877.797 -0.182,-0.928 c -0.227,-0.009 -0.511,-0.051 -0.851,-0.126 -0.341,-0.075 -0.6,-0.146 -0.778,-0.211 -0.316,-0.122 -0.543,-0.314 -0.681,-0.577 -0.138,-0.262 -0.239,-0.543 -0.304,-0.843 l -2.893,-14.526 c -0.016,-0.075 -0.028,-0.159 -0.036,-0.253 -0.008,-0.093 -0.012,-0.173 -0.012,-0.239 0,-0.197 0.036,-0.37 0.109,-0.52 0.073,-0.15 0.191,-0.286 0.353,-0.408 0.121,-0.084 0.342,-0.168 0.662,-0.253 0.32,-0.084 0.594,-0.131 0.82,-0.14 l -0.182,-0.928 -7.159,0 0.182,0.928 c 0.203,0.018 0.49,0.046 0.863,0.084 0.373,0.037 0.636,0.094 0.79,0.169 0.284,0.122 0.503,0.3 0.657,0.534 0.154,0.234 0.263,0.525 0.328,0.872 l 1.434,7.199 -8.107,0 -1.398,-7.045 c -0.016,-0.075 -0.029,-0.154 -0.037,-0.239 -0.008,-0.084 -0.012,-0.164 -0.012,-0.239 0,-0.187 0.039,-0.365 0.116,-0.534 0.077,-0.169 0.192,-0.305 0.346,-0.408 0.122,-0.084 0.342,-0.168 0.663,-0.253 0.32,-0.084 0.593,-0.131 0.82,-0.14 l -0.182,-0.928 -7.16,0 0.183,0.928 c 0.202,0.018 0.49,0.046 0.863,0.084 0.372,0.037 0.636,0.094 0.79,0.169 0.283,0.122 0.502,0.3 0.656,0.534 0.154,0.234 0.263,0.525 0.328,0.872 l 2.905,14.539 c 0.017,0.075 0.029,0.152 0.037,0.232 0.008,0.08 0.012,0.162 0.012,0.246 0,0.206 -0.034,0.384 -0.103,0.534 -0.069,0.15 -0.193,0.282 -0.371,0.394 -0.195,0.122 -0.438,0.23 -0.729,0.324 -0.292,0.093 -0.551,0.15 -0.778,0.168 l 0.182,0.928 7.159,0 -0.182,-0.928 c -0.227,-0.009 -0.51,-0.051 -0.851,-0.126 -0.34,-0.075 -0.599,-0.146 -0.778,-0.211 -0.316,-0.122 -0.543,-0.314 -0.68,-0.577 -0.138,-0.262 -0.239,-0.543 -0.304,-0.843 l -1.24,-6.286 8.107,0 1.216,6.145 c 0.016,0.075 0.028,0.152 0.036,0.232 0.008,0.08 0.012,0.157 0.012,0.232 0,0.206 -0.034,0.387 -0.103,0.541 -0.069,0.155 -0.192,0.289 -0.371,0.401 -0.194,0.122 -0.437,0.23 -0.729,0.324 -0.292,0.093 -0.551,0.15 -0.778,0.168 l 0.183,0.928 7.159,0 z"
       style="fill:#000000;fill-opacity:1;fill-rule:nonzero;stroke:none"
       id="path30"
       inkscape:connector-curvature="0" /><path
       d="m 434.3,854.312 -1.244,0 0,7.928 c -0.299,-0.286 -0.692,-0.572 -1.178,-0.857 -0.487,-0.286 -0.923,-0.5 -1.31,-0.643 l 0,1.202 c 0.696,0.328 1.304,0.724 1.825,1.189 0.52,0.466 0.889,0.917 1.105,1.355 l 0.802,0 0,-10.174 z"
       style="fill:#000000;fill-opacity:1;fill-rule:nonzero;stroke:none"
       id="path32"
       inkscape:connector-curvature="0" /><path
       d="m 360.118,831.48 0,2.426 -4.395,0 0,1.14 4.624,6.566 1.016,0 0,-6.566 1.368,0 0,-1.14 -1.368,0 0,-2.426 -1.245,0 z m 0,3.566 0,4.569 -3.172,-4.569 3.172,0 z"
       style="fill:#000000;fill-opacity:1;fill-rule:nonzero;stroke:none"
       id="path34"
       inkscape:connector-curvature="0" /><path
       d="m 306.77,632.454 -0.182,-0.928 c -0.227,-0.009 -0.511,-0.052 -0.851,-0.127 -0.34,-0.075 -0.6,-0.145 -0.778,-0.21 -0.316,-0.122 -0.543,-0.315 -0.681,-0.577 -0.137,-0.262 -0.239,-0.544 -0.304,-0.844 l -2.892,-14.525 c -0.017,-0.075 -0.029,-0.159 -0.037,-0.253 -0.008,-0.094 -0.012,-0.173 -0.012,-0.239 0,-0.197 0.036,-0.37 0.109,-0.52 0.073,-0.15 0.191,-0.286 0.353,-0.408 0.121,-0.084 0.342,-0.169 0.662,-0.253 0.32,-0.085 0.594,-0.131 0.821,-0.141 l -0.183,-0.928 -7.159,0 0.182,0.928 c 0.203,0.019 0.491,0.047 0.863,0.085 0.373,0.037 0.637,0.093 0.79,0.168 0.284,0.122 0.503,0.3 0.657,0.535 0.154,0.234 0.263,0.525 0.328,0.871 l 1.434,7.2 -8.107,0 -1.398,-7.045 c -0.016,-0.075 -0.028,-0.155 -0.036,-0.239 -0.009,-0.084 -0.013,-0.164 -0.013,-0.239 0,-0.187 0.039,-0.366 0.116,-0.534 0.077,-0.169 0.192,-0.305 0.346,-0.408 0.122,-0.084 0.343,-0.169 0.663,-0.253 0.32,-0.085 0.593,-0.131 0.82,-0.141 l -0.182,-0.928 -7.159,0 0.182,0.928 c 0.202,0.019 0.49,0.047 0.863,0.085 0.373,0.037 0.636,0.093 0.79,0.168 0.284,0.122 0.502,0.3 0.656,0.535 0.154,0.234 0.264,0.525 0.329,0.871 l 2.905,14.54 c 0.016,0.075 0.028,0.152 0.036,0.232 0.008,0.079 0.012,0.161 0.012,0.246 0,0.206 -0.034,0.384 -0.103,0.534 -0.069,0.15 -0.193,0.281 -0.371,0.394 -0.194,0.122 -0.437,0.23 -0.729,0.323 -0.292,0.094 -0.551,0.15 -0.778,0.169 l 0.182,0.928 7.16,0 -0.183,-0.928 c -0.227,-0.009 -0.51,-0.052 -0.851,-0.127 -0.34,-0.075 -0.599,-0.145 -0.777,-0.21 -0.317,-0.122 -0.543,-0.315 -0.681,-0.577 -0.138,-0.262 -0.239,-0.544 -0.304,-0.844 l -1.24,-6.285 8.108,0 1.215,6.145 c 0.016,0.075 0.028,0.152 0.037,0.232 0.008,0.079 0.012,0.157 0.012,0.232 0,0.206 -0.035,0.386 -0.104,0.541 -0.068,0.155 -0.192,0.288 -0.37,0.401 -0.195,0.122 -0.438,0.23 -0.73,0.323 -0.291,0.094 -0.551,0.15 -0.778,0.169 l 0.183,0.928 7.159,0 z"
       style="fill:#000000;fill-opacity:1;fill-rule:nonzero;stroke:none"
       id="path36"
       inkscape:connector-curvature="0" /><path
       d="m 304.909,611.836 1.244,0.165 c 0.143,-0.705 0.386,-1.213 0.729,-1.524 0.343,-0.311 0.761,-0.466 1.254,-0.466 0.585,0 1.08,0.203 1.483,0.608 0.403,0.406 0.605,0.908 0.605,1.507 0,0.571 -0.187,1.042 -0.56,1.413 -0.373,0.371 -0.848,0.557 -1.424,0.557 -0.235,0 -0.528,-0.046 -0.878,-0.139 l 0.138,1.093 c 0.083,-0.01 0.15,-0.014 0.201,-0.014 0.53,0 1.007,0.138 1.431,0.414 0.424,0.277 0.635,0.703 0.635,1.279 0,0.456 -0.154,0.834 -0.463,1.134 -0.308,0.299 -0.707,0.449 -1.195,0.449 -0.484,0 -0.887,-0.152 -1.21,-0.456 -0.322,-0.304 -0.53,-0.761 -0.622,-1.369 l -1.244,0.221 c 0.152,0.834 0.498,1.481 1.037,1.939 0.539,0.458 1.209,0.688 2.011,0.688 0.553,0 1.062,-0.119 1.527,-0.356 0.466,-0.238 0.822,-0.561 1.068,-0.971 0.247,-0.41 0.37,-0.846 0.37,-1.307 0,-0.437 -0.117,-0.836 -0.352,-1.195 -0.235,-0.36 -0.583,-0.645 -1.044,-0.857 0.599,-0.139 1.064,-0.425 1.396,-0.861 0.332,-0.435 0.498,-0.98 0.498,-1.634 0,-0.885 -0.323,-1.635 -0.968,-2.25 -0.645,-0.615 -1.461,-0.923 -2.447,-0.923 -0.889,0 -1.627,0.265 -2.215,0.795 -0.587,0.53 -0.922,1.216 -1.005,2.06 z"
       style="fill:#000000;fill-opacity:1;fill-rule:nonzero;stroke:none"
       id="path38"
       inkscape:connector-curvature="0" /><path
       d="m 304.791,954.336 -0.182,-0.928 c -0.227,-0.009 -0.51,-0.051 -0.851,-0.126 -0.34,-0.075 -0.599,-0.146 -0.778,-0.211 -0.316,-0.122 -0.543,-0.314 -0.68,-0.577 -0.138,-0.262 -0.239,-0.543 -0.304,-0.843 l -2.893,-14.526 c -0.016,-0.075 -0.029,-0.159 -0.037,-0.253 -0.008,-0.093 -0.012,-0.173 -0.012,-0.239 0,-0.197 0.037,-0.37 0.11,-0.52 0.072,-0.15 0.19,-0.286 0.352,-0.408 0.122,-0.084 0.342,-0.169 0.662,-0.253 0.321,-0.084 0.594,-0.131 0.821,-0.141 l -0.182,-0.928 -7.16,0 0.183,0.928 c 0.202,0.019 0.49,0.047 0.863,0.085 0.372,0.037 0.636,0.094 0.79,0.169 0.283,0.121 0.502,0.3 0.656,0.534 0.154,0.234 0.263,0.525 0.328,0.872 l 1.435,7.199 -8.108,0 -1.398,-7.045 c -0.016,-0.075 -0.028,-0.154 -0.036,-0.239 -0.008,-0.084 -0.012,-0.164 -0.012,-0.239 0,-0.187 0.038,-0.365 0.115,-0.534 0.077,-0.169 0.193,-0.305 0.347,-0.408 0.121,-0.084 0.342,-0.169 0.662,-0.253 0.32,-0.084 0.594,-0.131 0.82,-0.141 l -0.182,-0.928 -7.159,0 0.182,0.928 c 0.203,0.019 0.49,0.047 0.863,0.085 0.373,0.037 0.636,0.094 0.79,0.169 0.284,0.121 0.503,0.3 0.657,0.534 0.154,0.234 0.263,0.525 0.328,0.872 l 2.905,14.539 c 0.016,0.075 0.028,0.152 0.036,0.232 0.008,0.08 0.012,0.162 0.012,0.246 0,0.206 -0.034,0.384 -0.103,0.534 -0.069,0.15 -0.192,0.282 -0.371,0.394 -0.194,0.122 -0.437,0.23 -0.729,0.324 -0.292,0.093 -0.551,0.15 -0.778,0.168 l 0.182,0.928 7.16,0 -0.182,-0.928 c -0.227,-0.009 -0.511,-0.051 -0.851,-0.126 -0.341,-0.075 -0.6,-0.146 -0.778,-0.211 -0.316,-0.122 -0.543,-0.314 -0.681,-0.577 -0.138,-0.262 -0.239,-0.543 -0.304,-0.843 l -1.24,-6.286 8.108,0 1.215,6.145 c 0.017,0.075 0.029,0.152 0.037,0.232 0.008,0.08 0.012,0.157 0.012,0.232 0,0.206 -0.034,0.387 -0.103,0.541 -0.069,0.155 -0.193,0.289 -0.371,0.401 -0.195,0.122 -0.438,0.23 -0.729,0.324 -0.292,0.093 -0.551,0.15 -0.778,0.168 l 0.182,0.928 7.159,0 z"
       style="fill:#000000;fill-opacity:1;fill-rule:nonzero;stroke:none"
       id="path40"
       inkscape:connector-curvature="0" /><path
       d="m 310.275,932.239 0,-1.196 -6.698,0 c -0.009,0.3 0.039,0.588 0.145,0.864 0.171,0.456 0.444,0.905 0.819,1.348 0.376,0.442 0.918,0.954 1.628,1.534 1.101,0.903 1.845,1.619 2.232,2.146 0.388,0.528 0.581,1.027 0.581,1.497 0,0.493 -0.176,0.908 -0.529,1.247 -0.352,0.339 -0.812,0.508 -1.379,0.508 -0.599,0 -1.078,-0.18 -1.437,-0.539 -0.36,-0.359 -0.542,-0.857 -0.546,-1.493 l -1.279,0.131 c 0.088,0.954 0.417,1.681 0.989,2.181 0.571,0.5 1.338,0.75 2.301,0.75 0.972,0 1.742,-0.27 2.309,-0.809 0.566,-0.539 0.85,-1.207 0.85,-2.004 0,-0.406 -0.083,-0.804 -0.249,-1.196 -0.166,-0.391 -0.441,-0.804 -0.826,-1.237 -0.385,-0.433 -1.024,-1.027 -1.918,-1.783 -0.746,-0.627 -1.226,-1.052 -1.438,-1.275 -0.212,-0.224 -0.387,-0.448 -0.525,-0.674 l 4.97,0 z"
       style="fill:#000000;fill-opacity:1;fill-rule:nonzero;stroke:none"
       id="path42"
       inkscape:connector-curvature="0" /><path
       d="m 238.88,754.291 0.307,-0.733 0,-225.862 0.071,-0.623 2.967,-0.002 -4.083,-13.764 -4.083,13.764 2.967,0.002 0.072,0.623 0,225.862 0.307,0.733 0.732,0.307 0.01,0 0.733,-0.307 z"
       style="fill:#000000;fill-opacity:1;fill-rule:evenodd;stroke:none"
       id="path44"
       inkscape:connector-curvature="0" /><path
       d="m 18.5899,744.705 0.632,-0.072 229.0301,0 0.732,-0.307 0.307,-0.732 0,-0.01 -0.307,-0.733 -0.732,-0.307 -229.0301,0 -0.632,-0.071 -0.0024,-2.967 -13.9572,4.083 13.9572,4.083 0.0024,-2.967 z"
       style="fill:#000000;fill-opacity:1;fill-rule:evenodd;stroke:none"
       id="path46"
       inkscape:connector-curvature="0" /><path
       d="m 242.225,960.107 -2.967,-0.003 -0.071,-0.623 0,-225.862 -0.307,-0.733 -0.733,-0.306 -0.01,0 -0.732,0.306 -0.307,0.733 0,225.862 -0.072,0.623 -2.967,0.003 4.083,13.764 4.083,-13.764 z"
       style="fill:#000000;fill-opacity:1;fill-rule:evenodd;stroke:none"
       id="path48"
       inkscape:connector-curvature="0" /><path
       d="m 471.654,743.589 -13.957,-4.083 -0.003,2.967 -0.632,0.071 -229.029,0 -0.733,0.307 -0.307,0.733 0,0.01 0.307,0.732 0.733,0.307 229.029,0 0.632,0.072 0.003,2.967 13.957,-4.083 z"
       style="fill:#000000;fill-opacity:1;fill-rule:evenodd;stroke:none"
       id="path50"
       inkscape:connector-curvature="0" /><path
       d="m 756.426,754.291 0.306,-0.733 0,-225.862 0.072,-0.623 2.967,-0.002 -4.083,-13.764 -4.083,13.764 2.967,0.002 0.071,0.623 0,225.862 0.307,0.733 0.733,0.307 0.01,0 0.733,-0.307 z"
       style="fill:#000000;fill-opacity:1;fill-rule:evenodd;stroke:none"
       id="path210"
       inkscape:connector-curvature="0" /><path
       d="m 536.136,744.705 0.632,-0.072 229.029,0 0.733,-0.307 0.307,-0.732 0,-0.01 -0.307,-0.733 -0.733,-0.307 -229.029,0 -0.632,-0.071 -0.003,-2.967 -13.957,4.083 13.957,4.083 0.003,-2.967 z"
       style="fill:#000000;fill-opacity:1;fill-rule:evenodd;stroke:none"
       id="path212"
       inkscape:connector-curvature="0" /><path
       d="m 759.771,960.107 -2.967,-0.003 -0.072,-0.623 0,-225.862 -0.306,-0.733 -0.733,-0.306 -0.01,0 -0.733,0.306 -0.307,0.733 0,225.862 -0.071,0.623 -2.967,0.003 4.083,13.764 4.083,-13.764 z"
       style="fill:#000000;fill-opacity:1;fill-rule:evenodd;stroke:none"
       id="path214"
       inkscape:connector-curvature="0" /><path
       d="m 989.2,743.589 -13.957,-4.083 -0.003,2.967 -0.632,0.071 -229.029,0 -0.733,0.307 -0.307,0.733 0,0.01 0.307,0.732 0.733,0.307 229.029,0 0.632,0.072 0.003,2.967 13.957,-4.083 z"
       style="fill:#000000;fill-opacity:1;fill-rule:evenodd;stroke:none"
       id="path216"
       inkscape:connector-curvature="0" /><path
       d="m 836.622,625.264 c 3.074,0 5.569,-2.495 5.569,-5.568 0,-3.073 -2.495,-5.568 -5.569,-5.568 -3.073,0 -5.568,2.495 -5.568,5.568 0,3.073 2.495,5.568 5.568,5.568 z"
       style="fill:#000000;fill-opacity:1;fill-rule:evenodd;stroke:none"
       id="path218"
       inkscape:connector-curvature="0" /><path
       d="m 820.128,631.404 -0.182,-0.928 c -0.227,-0.009 -0.51,-0.051 -0.851,-0.126 -0.34,-0.075 -0.599,-0.146 -0.778,-0.211 -0.316,-0.122 -0.543,-0.314 -0.68,-0.577 -0.138,-0.262 -0.239,-0.543 -0.304,-0.843 l -2.893,-14.526 c -0.016,-0.075 -0.028,-0.159 -0.037,-0.253 -0.008,-0.093 -0.012,-0.173 -0.012,-0.239 0,-0.197 0.037,-0.37 0.11,-0.52 0.073,-0.15 0.19,-0.286 0.352,-0.408 0.122,-0.084 0.343,-0.169 0.663,-0.253 0.32,-0.084 0.593,-0.131 0.82,-0.14 l -0.182,-0.929 -7.16,0 0.183,0.929 c 0.202,0.018 0.49,0.046 0.863,0.084 0.372,0.037 0.636,0.094 0.79,0.169 0.283,0.121 0.502,0.3 0.656,0.534 0.154,0.234 0.264,0.525 0.328,0.872 l 1.435,7.199 -8.108,0 -1.398,-7.045 c -0.016,-0.075 -0.028,-0.154 -0.036,-0.239 -0.008,-0.084 -0.012,-0.164 -0.012,-0.239 0,-0.187 0.038,-0.365 0.115,-0.534 0.077,-0.169 0.193,-0.305 0.347,-0.408 0.121,-0.084 0.342,-0.169 0.662,-0.253 0.32,-0.084 0.594,-0.131 0.821,-0.14 l -0.183,-0.929 -7.159,0 0.182,0.929 c 0.203,0.018 0.49,0.046 0.863,0.084 0.373,0.037 0.636,0.094 0.79,0.169 0.284,0.121 0.503,0.3 0.657,0.534 0.154,0.234 0.263,0.525 0.328,0.872 l 2.905,14.539 c 0.016,0.075 0.028,0.152 0.036,0.232 0.008,0.08 0.013,0.162 0.013,0.246 0,0.206 -0.035,0.384 -0.104,0.534 -0.069,0.15 -0.192,0.282 -0.371,0.394 -0.194,0.122 -0.437,0.23 -0.729,0.324 -0.292,0.093 -0.551,0.15 -0.778,0.168 l 0.183,0.928 7.159,0 -0.182,-0.928 c -0.227,-0.009 -0.511,-0.051 -0.851,-0.126 -0.341,-0.075 -0.6,-0.146 -0.778,-0.211 -0.316,-0.122 -0.543,-0.314 -0.681,-0.577 -0.138,-0.262 -0.239,-0.543 -0.304,-0.843 l -1.24,-6.286 8.108,0 1.215,6.145 c 0.017,0.075 0.029,0.152 0.037,0.232 0.008,0.08 0.012,0.157 0.012,0.232 0,0.206 -0.034,0.387 -0.103,0.541 -0.069,0.155 -0.193,0.289 -0.371,0.401 -0.194,0.122 -0.438,0.23 -0.729,0.324 -0.292,0.093 -0.551,0.15 -0.778,0.168 l 0.182,0.928 7.159,0 z"
       style="fill:#000000;fill-opacity:1;fill-rule:nonzero;stroke:none"
       id="path220"
       inkscape:connector-curvature="0" /><path
       d="m 818.267,610.786 1.244,0.166 c 0.143,-0.705 0.386,-1.213 0.729,-1.524 0.343,-0.311 0.762,-0.467 1.255,-0.467 0.585,0 1.079,0.203 1.482,0.608 0.403,0.406 0.605,0.908 0.605,1.507 0,0.572 -0.187,1.043 -0.56,1.414 -0.373,0.371 -0.848,0.556 -1.424,0.556 -0.235,0 -0.527,-0.046 -0.877,-0.138 l 0.138,1.092 c 0.083,-0.009 0.15,-0.014 0.2,-0.014 0.53,0 1.007,0.138 1.431,0.415 0.424,0.276 0.636,0.702 0.636,1.278 0,0.456 -0.155,0.834 -0.463,1.134 -0.309,0.299 -0.708,0.449 -1.196,0.449 -0.484,0 -0.887,-0.152 -1.21,-0.456 -0.322,-0.304 -0.529,-0.76 -0.622,-1.369 l -1.244,0.222 c 0.152,0.834 0.498,1.48 1.037,1.938 0.539,0.459 1.21,0.688 2.011,0.688 0.553,0 1.062,-0.119 1.528,-0.356 0.465,-0.237 0.821,-0.561 1.068,-0.971 0.246,-0.41 0.369,-0.846 0.369,-1.306 0,-0.438 -0.117,-0.837 -0.352,-1.196 -0.235,-0.359 -0.583,-0.645 -1.044,-0.857 0.599,-0.138 1.065,-0.425 1.396,-0.861 0.332,-0.435 0.498,-0.98 0.498,-1.634 0,-0.885 -0.322,-1.635 -0.968,-2.25 -0.645,-0.615 -1.46,-0.923 -2.446,-0.923 -0.89,0 -1.628,0.265 -2.215,0.795 -0.588,0.53 -0.923,1.217 -1.006,2.06 z"
       style="fill:#000000;fill-opacity:1;fill-rule:nonzero;stroke:none"
       id="path222"
       inkscape:connector-curvature="0" /><path
       d="m 837.091,618.955 77.467,243.869"
       style="fill:#808080;fill-opacity:1;fill-rule:evenodd;stroke:#9c9c9c;stroke-width:1.31579995;stroke-linecap:butt;stroke-linejoin:miter;stroke-miterlimit:10;stroke-dasharray:6.9079, 5.2632;stroke-dashoffset:0;stroke-opacity:1"
       id="path224"
       inkscape:connector-curvature="0" /><path
       d="M 792.948,926.1 614.293,791.857"
       style="fill:#808080;fill-opacity:1;fill-rule:evenodd;stroke:#9c9c9c;stroke-width:1.31579995;stroke-linecap:butt;stroke-linejoin:miter;stroke-miterlimit:10;stroke-dasharray:6.9079, 5.2632;stroke-dashoffset:0;stroke-opacity:1"
       id="path226"
       inkscape:connector-curvature="0" /><path
       d="M 614.183,789.653 835.773,619.815"
       style="fill:#808080;fill-opacity:1;fill-rule:evenodd;stroke:#9c9c9c;stroke-width:1.31579995;stroke-linecap:butt;stroke-linejoin:miter;stroke-miterlimit:10;stroke-dasharray:6.9079, 5.2632;stroke-dashoffset:0;stroke-opacity:1"
       id="path228"
       inkscape:connector-curvature="0" /><path
       d="M 914.306,862.902 792.938,925.94"
       style="fill:#808080;fill-opacity:1;fill-rule:evenodd;stroke:#9c9c9c;stroke-width:1.31579995;stroke-linecap:butt;stroke-linejoin:miter;stroke-miterlimit:10;stroke-dasharray:6.9079, 5.2632;stroke-dashoffset:0;stroke-opacity:1"
       id="path230"
       inkscape:connector-curvature="0" /><path
       d="m 914.342,868.098 c 3.074,0 5.569,-2.495 5.569,-5.569 0,-3.073 -2.495,-5.568 -5.569,-5.568 -3.073,0 -5.568,2.495 -5.568,5.568 0,3.074 2.495,5.569 5.568,5.569 z"
       style="fill:#000000;fill-opacity:1;fill-rule:evenodd;stroke:none"
       id="path232"
       inkscape:connector-curvature="0" /><path
       d="m 848.456,827.777 c 3.074,0 5.569,-2.495 5.569,-5.569 0,-3.073 -2.495,-5.568 -5.569,-5.568 -3.073,0 -5.568,2.495 -5.568,5.568 0,3.074 2.495,5.569 5.568,5.569 z"
       style="fill:#000000;fill-opacity:1;fill-rule:evenodd;stroke:none"
       id="path234"
       inkscape:connector-curvature="0" /><path
       d="m 613.728,796.554 c 3.073,0 5.568,-2.495 5.568,-5.568 0,-3.074 -2.495,-5.569 -5.568,-5.569 -3.073,0 -5.568,2.495 -5.568,5.569 0,3.073 2.495,5.568 5.568,5.568 z"
       style="fill:#000000;fill-opacity:1;fill-rule:evenodd;stroke:none"
       id="path236"
       inkscape:connector-curvature="0" /><path
       d="m 793.689,930.81 c 3.073,0 5.568,-2.495 5.568,-5.568 0,-3.073 -2.495,-5.568 -5.568,-5.568 -3.073,0 -5.568,2.495 -5.568,5.568 0,3.073 2.495,5.568 5.568,5.568 z"
       style="fill:#000000;fill-opacity:1;fill-rule:evenodd;stroke:none"
       id="path238"
       inkscape:connector-curvature="0" /><path
       d="m 870.021,853.791 -0.182,-0.928 c -0.227,-0.01 -0.511,-0.052 -0.851,-0.127 -0.341,-0.075 -0.6,-0.145 -0.778,-0.211 -0.316,-0.122 -0.543,-0.314 -0.681,-0.576 -0.138,-0.263 -0.239,-0.544 -0.304,-0.844 l -2.893,-14.525 c -0.016,-0.075 -0.028,-0.16 -0.036,-0.253 -0.008,-0.094 -0.012,-0.174 -0.012,-0.239 0,-0.197 0.036,-0.371 0.109,-0.521 0.073,-0.15 0.19,-0.285 0.353,-0.407 0.121,-0.085 0.342,-0.169 0.662,-0.253 0.32,-0.085 0.594,-0.132 0.82,-0.141 l -0.182,-0.928 -7.159,0 0.182,0.928 c 0.203,0.019 0.49,0.047 0.863,0.084 0.373,0.038 0.636,0.094 0.79,0.169 0.284,0.122 0.503,0.3 0.657,0.534 0.154,0.235 0.263,0.525 0.328,0.872 l 1.434,7.199 -8.107,0 -1.398,-7.044 c -0.016,-0.075 -0.029,-0.155 -0.037,-0.239 -0.008,-0.085 -0.012,-0.164 -0.012,-0.239 0,-0.188 0.039,-0.366 0.116,-0.535 0.077,-0.168 0.192,-0.304 0.346,-0.407 0.122,-0.085 0.342,-0.169 0.663,-0.253 0.32,-0.085 0.593,-0.132 0.82,-0.141 l -0.182,-0.928 -7.16,0 0.183,0.928 c 0.202,0.019 0.49,0.047 0.863,0.084 0.372,0.038 0.636,0.094 0.79,0.169 0.283,0.122 0.502,0.3 0.656,0.534 0.154,0.235 0.263,0.525 0.328,0.872 l 2.905,14.539 c 0.017,0.075 0.029,0.153 0.037,0.232 0.008,0.08 0.012,0.162 0.012,0.247 0,0.206 -0.034,0.384 -0.103,0.534 -0.069,0.15 -0.193,0.281 -0.371,0.394 -0.195,0.121 -0.438,0.229 -0.729,0.323 -0.292,0.094 -0.551,0.15 -0.778,0.169 l 0.182,0.928 7.159,0 -0.182,-0.928 c -0.227,-0.01 -0.51,-0.052 -0.851,-0.127 -0.34,-0.075 -0.599,-0.145 -0.778,-0.211 -0.316,-0.122 -0.543,-0.314 -0.68,-0.576 -0.138,-0.263 -0.239,-0.544 -0.304,-0.844 l -1.24,-6.285 8.107,0 1.216,6.144 c 0.016,0.075 0.028,0.153 0.036,0.232 0.008,0.08 0.012,0.157 0.012,0.232 0,0.207 -0.034,0.387 -0.103,0.542 -0.069,0.154 -0.192,0.288 -0.371,0.401 -0.194,0.121 -0.437,0.229 -0.729,0.323 -0.292,0.094 -0.551,0.15 -0.778,0.169 l 0.183,0.928 7.159,0 z"
       style="fill:#000000;fill-opacity:1;fill-rule:nonzero;stroke:none"
       id="path240"
       inkscape:connector-curvature="0" /><path
       d="m 597.632,822.077 -0.182,-0.928 c -0.227,-0.009 -0.511,-0.051 -0.851,-0.126 -0.34,-0.075 -0.6,-0.146 -0.778,-0.211 -0.316,-0.122 -0.543,-0.314 -0.681,-0.577 -0.138,-0.262 -0.239,-0.543 -0.304,-0.843 l -2.893,-14.526 c -0.016,-0.075 -0.028,-0.159 -0.036,-0.253 -0.008,-0.093 -0.012,-0.173 -0.012,-0.239 0,-0.197 0.036,-0.37 0.109,-0.52 0.073,-0.15 0.191,-0.286 0.353,-0.408 0.121,-0.084 0.342,-0.169 0.662,-0.253 0.32,-0.084 0.594,-0.131 0.821,-0.141 l -0.183,-0.928 -7.159,0 0.182,0.928 c 0.203,0.019 0.491,0.047 0.863,0.085 0.373,0.037 0.636,0.094 0.79,0.169 0.284,0.121 0.503,0.3 0.657,0.534 0.154,0.234 0.263,0.525 0.328,0.872 l 1.434,7.199 -8.107,0 -1.398,-7.045 c -0.016,-0.075 -0.028,-0.154 -0.037,-0.239 -0.008,-0.084 -0.012,-0.164 -0.012,-0.239 0,-0.187 0.039,-0.365 0.116,-0.534 0.077,-0.169 0.192,-0.305 0.346,-0.408 0.122,-0.084 0.343,-0.169 0.663,-0.253 0.32,-0.084 0.593,-0.131 0.82,-0.141 l -0.182,-0.928 -7.16,0 0.183,0.928 c 0.202,0.019 0.49,0.047 0.863,0.085 0.373,0.037 0.636,0.094 0.79,0.169 0.284,0.121 0.502,0.3 0.656,0.534 0.154,0.234 0.264,0.525 0.328,0.872 l 2.906,14.539 c 0.016,0.075 0.028,0.152 0.036,0.232 0.008,0.08 0.012,0.162 0.012,0.246 0,0.206 -0.034,0.384 -0.103,0.534 -0.069,0.15 -0.193,0.282 -0.371,0.394 -0.194,0.122 -0.437,0.23 -0.729,0.323 -0.292,0.094 -0.551,0.15 -0.778,0.169 l 0.182,0.928 7.16,0 -0.183,-0.928 c -0.227,-0.009 -0.51,-0.051 -0.851,-0.126 -0.34,-0.075 -0.599,-0.146 -0.778,-0.211 -0.316,-0.122 -0.542,-0.314 -0.68,-0.577 -0.138,-0.262 -0.239,-0.543 -0.304,-0.843 l -1.24,-6.286 8.108,0 1.215,6.145 c 0.016,0.075 0.028,0.152 0.036,0.232 0.009,0.08 0.013,0.157 0.013,0.232 0,0.206 -0.035,0.387 -0.104,0.541 -0.069,0.155 -0.192,0.289 -0.37,0.401 -0.195,0.122 -0.438,0.23 -0.73,0.323 -0.291,0.094 -0.551,0.15 -0.778,0.169 l 0.183,0.928 7.159,0 z"
       style="fill:#000000;fill-opacity:1;fill-rule:nonzero;stroke:none"
       id="path242"
       inkscape:connector-curvature="0" /><path
       d="m 870.021,853.791 -0.182,-0.928 c -0.227,-0.01 -0.511,-0.052 -0.851,-0.127 -0.341,-0.075 -0.6,-0.145 -0.778,-0.211 -0.316,-0.122 -0.543,-0.314 -0.681,-0.576 -0.138,-0.263 -0.239,-0.544 -0.304,-0.844 l -2.893,-14.525 c -0.016,-0.075 -0.028,-0.16 -0.036,-0.253 -0.008,-0.094 -0.012,-0.174 -0.012,-0.239 0,-0.197 0.036,-0.371 0.109,-0.521 0.073,-0.15 0.19,-0.285 0.353,-0.407 0.121,-0.085 0.342,-0.169 0.662,-0.253 0.32,-0.085 0.594,-0.132 0.82,-0.141 l -0.182,-0.928 -7.159,0 0.182,0.928 c 0.203,0.019 0.49,0.047 0.863,0.084 0.373,0.038 0.636,0.094 0.79,0.169 0.284,0.122 0.503,0.3 0.657,0.534 0.154,0.235 0.263,0.525 0.328,0.872 l 1.434,7.199 -8.107,0 -1.398,-7.044 c -0.016,-0.075 -0.029,-0.155 -0.037,-0.239 -0.008,-0.085 -0.012,-0.164 -0.012,-0.239 0,-0.188 0.039,-0.366 0.116,-0.535 0.077,-0.168 0.192,-0.304 0.346,-0.407 0.122,-0.085 0.342,-0.169 0.663,-0.253 0.32,-0.085 0.593,-0.132 0.82,-0.141 l -0.182,-0.928 -7.16,0 0.183,0.928 c 0.202,0.019 0.49,0.047 0.863,0.084 0.372,0.038 0.636,0.094 0.79,0.169 0.283,0.122 0.502,0.3 0.656,0.534 0.154,0.235 0.263,0.525 0.328,0.872 l 2.905,14.539 c 0.017,0.075 0.029,0.153 0.037,0.232 0.008,0.08 0.012,0.162 0.012,0.247 0,0.206 -0.034,0.384 -0.103,0.534 -0.069,0.15 -0.193,0.281 -0.371,0.394 -0.195,0.121 -0.438,0.229 -0.729,0.323 -0.292,0.094 -0.551,0.15 -0.778,0.169 l 0.182,0.928 7.159,0 -0.182,-0.928 c -0.227,-0.01 -0.51,-0.052 -0.851,-0.127 -0.34,-0.075 -0.599,-0.145 -0.778,-0.211 -0.316,-0.122 -0.543,-0.314 -0.68,-0.576 -0.138,-0.263 -0.239,-0.544 -0.304,-0.844 l -1.24,-6.285 8.107,0 1.216,6.144 c 0.016,0.075 0.028,0.153 0.036,0.232 0.008,0.08 0.012,0.157 0.012,0.232 0,0.207 -0.034,0.387 -0.103,0.542 -0.069,0.154 -0.192,0.288 -0.371,0.401 -0.194,0.121 -0.437,0.229 -0.729,0.323 -0.292,0.094 -0.551,0.15 -0.778,0.169 l 0.183,0.928 7.159,0 z"
       style="fill:#000000;fill-opacity:1;fill-rule:nonzero;stroke:none"
       id="path244"
       inkscape:connector-curvature="0" /><path
       d="m 597.632,822.077 -0.182,-0.928 c -0.227,-0.009 -0.511,-0.051 -0.851,-0.126 -0.34,-0.075 -0.6,-0.146 -0.778,-0.211 -0.316,-0.122 -0.543,-0.314 -0.681,-0.577 -0.138,-0.262 -0.239,-0.543 -0.304,-0.843 l -2.893,-14.526 c -0.016,-0.075 -0.028,-0.159 -0.036,-0.253 -0.008,-0.093 -0.012,-0.173 -0.012,-0.239 0,-0.197 0.036,-0.37 0.109,-0.52 0.073,-0.15 0.191,-0.286 0.353,-0.408 0.121,-0.084 0.342,-0.169 0.662,-0.253 0.32,-0.084 0.594,-0.131 0.821,-0.141 l -0.183,-0.928 -7.159,0 0.182,0.928 c 0.203,0.019 0.491,0.047 0.863,0.085 0.373,0.037 0.636,0.094 0.79,0.169 0.284,0.121 0.503,0.3 0.657,0.534 0.154,0.234 0.263,0.525 0.328,0.872 l 1.434,7.199 -8.107,0 -1.398,-7.045 c -0.016,-0.075 -0.028,-0.154 -0.037,-0.239 -0.008,-0.084 -0.012,-0.164 -0.012,-0.239 0,-0.187 0.039,-0.365 0.116,-0.534 0.077,-0.169 0.192,-0.305 0.346,-0.408 0.122,-0.084 0.343,-0.169 0.663,-0.253 0.32,-0.084 0.593,-0.131 0.82,-0.141 l -0.182,-0.928 -7.16,0 0.183,0.928 c 0.202,0.019 0.49,0.047 0.863,0.085 0.373,0.037 0.636,0.094 0.79,0.169 0.284,0.121 0.502,0.3 0.656,0.534 0.154,0.234 0.264,0.525 0.328,0.872 l 2.906,14.539 c 0.016,0.075 0.028,0.152 0.036,0.232 0.008,0.08 0.012,0.162 0.012,0.246 0,0.206 -0.034,0.384 -0.103,0.534 -0.069,0.15 -0.193,0.282 -0.371,0.394 -0.194,0.122 -0.437,0.23 -0.729,0.323 -0.292,0.094 -0.551,0.15 -0.778,0.169 l 0.182,0.928 7.16,0 -0.183,-0.928 c -0.227,-0.009 -0.51,-0.051 -0.851,-0.126 -0.34,-0.075 -0.599,-0.146 -0.778,-0.211 -0.316,-0.122 -0.542,-0.314 -0.68,-0.577 -0.138,-0.262 -0.239,-0.543 -0.304,-0.843 l -1.24,-6.286 8.108,0 1.215,6.145 c 0.016,0.075 0.028,0.152 0.036,0.232 0.009,0.08 0.013,0.157 0.013,0.232 0,0.206 -0.035,0.387 -0.104,0.541 -0.069,0.155 -0.192,0.289 -0.37,0.401 -0.195,0.122 -0.438,0.23 -0.73,0.323 -0.291,0.094 -0.551,0.15 -0.778,0.169 l 0.183,0.928 7.159,0 z"
       style="fill:#000000;fill-opacity:1;fill-rule:nonzero;stroke:none"
       id="path246"
       inkscape:connector-curvature="0" /><path
       d="m 950.124,878.227 -0.182,-0.928 c -0.227,-0.009 -0.511,-0.052 -0.851,-0.127 -0.341,-0.075 -0.6,-0.145 -0.778,-0.21 -0.316,-0.122 -0.543,-0.314 -0.681,-0.577 -0.138,-0.262 -0.239,-0.544 -0.304,-0.844 l -2.893,-14.525 c -0.016,-0.075 -0.028,-0.159 -0.036,-0.253 -0.008,-0.094 -0.012,-0.173 -0.012,-0.239 0,-0.197 0.036,-0.37 0.109,-0.52 0.073,-0.15 0.191,-0.286 0.353,-0.408 0.121,-0.084 0.342,-0.169 0.662,-0.253 0.32,-0.084 0.594,-0.131 0.821,-0.141 l -0.183,-0.928 -7.159,0 0.182,0.928 c 0.203,0.019 0.49,0.047 0.863,0.085 0.373,0.037 0.636,0.093 0.79,0.168 0.284,0.122 0.503,0.3 0.657,0.535 0.154,0.234 0.263,0.525 0.328,0.871 l 1.434,7.2 -8.107,0 -1.398,-7.045 c -0.016,-0.075 -0.028,-0.155 -0.037,-0.239 -0.008,-0.084 -0.012,-0.164 -0.012,-0.239 0,-0.187 0.039,-0.366 0.116,-0.534 0.077,-0.169 0.192,-0.305 0.346,-0.408 0.122,-0.084 0.343,-0.169 0.663,-0.253 0.32,-0.084 0.593,-0.131 0.82,-0.141 l -0.182,-0.928 -7.16,0 0.183,0.928 c 0.202,0.019 0.49,0.047 0.863,0.085 0.372,0.037 0.636,0.093 0.79,0.168 0.283,0.122 0.502,0.3 0.656,0.535 0.154,0.234 0.264,0.525 0.328,0.871 l 2.905,14.54 c 0.017,0.075 0.029,0.152 0.037,0.232 0.008,0.079 0.012,0.161 0.012,0.246 0,0.206 -0.034,0.384 -0.103,0.534 -0.069,0.15 -0.193,0.281 -0.371,0.394 -0.194,0.122 -0.438,0.23 -0.729,0.323 -0.292,0.094 -0.551,0.15 -0.778,0.169 l 0.182,0.928 7.159,0 -0.182,-0.928 c -0.227,-0.009 -0.51,-0.052 -0.851,-0.127 -0.34,-0.075 -0.599,-0.145 -0.778,-0.21 -0.316,-0.122 -0.543,-0.314 -0.68,-0.577 -0.138,-0.262 -0.239,-0.544 -0.304,-0.844 l -1.24,-6.285 8.107,0 1.216,6.145 c 0.016,0.075 0.028,0.152 0.036,0.232 0.009,0.079 0.013,0.157 0.013,0.232 0,0.206 -0.035,0.386 -0.104,0.541 -0.069,0.155 -0.192,0.288 -0.37,0.401 -0.195,0.122 -0.438,0.23 -0.73,0.323 -0.291,0.094 -0.551,0.15 -0.778,0.169 l 0.183,0.928 7.159,0 z"
       style="fill:#000000;fill-opacity:1;fill-rule:nonzero;stroke:none"
       id="path248"
       inkscape:connector-curvature="0" /><path
       d="m 952.653,854.742 -1.244,0 0,7.927 c -0.299,-0.285 -0.692,-0.571 -1.178,-0.857 -0.486,-0.285 -0.923,-0.5 -1.31,-0.643 l 0,1.203 c 0.696,0.327 1.304,0.723 1.825,1.189 0.52,0.465 0.889,0.917 1.105,1.355 l 0.802,0 0,-10.174 z"
       style="fill:#000000;fill-opacity:1;fill-rule:nonzero;stroke:none"
       id="path250"
       inkscape:connector-curvature="0" /><path
       d="m 873.73,830.476 0,2.426 -4.396,0 0,1.14 4.624,6.566 1.016,0 0,-6.566 1.368,0 0,-1.14 -1.368,0 0,-2.426 -1.244,0 z m 0,3.566 0,4.569 -3.173,-4.569 3.173,0 z"
       style="fill:#000000;fill-opacity:1;fill-rule:nonzero;stroke:none"
       id="path252"
       inkscape:connector-curvature="0" /><path
       d="m 597.353,801.416 1.306,0.111 c 0.097,-0.636 0.322,-1.114 0.674,-1.434 0.353,-0.321 0.778,-0.481 1.275,-0.481 0.599,0 1.106,0.226 1.521,0.678 0.415,0.451 0.622,1.05 0.622,1.797 0,0.709 -0.199,1.269 -0.598,1.679 -0.399,0.41 -0.92,0.615 -1.565,0.615 -0.401,0 -0.763,-0.091 -1.086,-0.273 -0.322,-0.182 -0.576,-0.418 -0.76,-0.708 l -1.168,0.152 0.982,5.204 5.038,0 0,-1.188 -4.043,0 -0.546,-2.724 c 0.608,0.424 1.246,0.636 1.914,0.636 0.885,0 1.631,-0.306 2.24,-0.919 0.608,-0.613 0.912,-1.401 0.912,-2.364 0,-0.917 -0.267,-1.709 -0.802,-2.377 -0.649,-0.82 -1.536,-1.231 -2.661,-1.231 -0.921,0 -1.673,0.258 -2.256,0.775 -0.583,0.516 -0.916,1.2 -0.999,2.052 z"
       style="fill:#000000;fill-opacity:1;fill-rule:nonzero;stroke:none"
       id="path254"
       inkscape:connector-curvature="0" /><path
       d="m 818.403,953.332 -0.183,-0.928 c -0.227,-0.009 -0.51,-0.051 -0.851,-0.126 -0.34,-0.075 -0.599,-0.146 -0.777,-0.211 -0.317,-0.122 -0.543,-0.314 -0.681,-0.577 -0.138,-0.262 -0.239,-0.543 -0.304,-0.843 l -2.893,-14.526 c -0.016,-0.075 -0.028,-0.159 -0.036,-0.253 -0.009,-0.093 -0.013,-0.173 -0.013,-0.239 0,-0.197 0.037,-0.37 0.11,-0.52 0.073,-0.15 0.19,-0.286 0.352,-0.408 0.122,-0.084 0.343,-0.169 0.663,-0.253 0.32,-0.084 0.593,-0.131 0.82,-0.14 l -0.182,-0.929 -7.159,0 0.182,0.929 c 0.202,0.018 0.49,0.046 0.863,0.084 0.373,0.037 0.636,0.094 0.79,0.169 0.284,0.121 0.502,0.3 0.656,0.534 0.154,0.234 0.264,0.525 0.329,0.872 l 1.434,7.199 -8.108,0 -1.397,-7.045 c -0.017,-0.075 -0.029,-0.154 -0.037,-0.239 -0.008,-0.084 -0.012,-0.164 -0.012,-0.239 0,-0.187 0.038,-0.365 0.115,-0.534 0.077,-0.169 0.193,-0.305 0.347,-0.408 0.121,-0.084 0.342,-0.169 0.662,-0.253 0.32,-0.084 0.594,-0.131 0.821,-0.14 l -0.183,-0.929 -7.159,0 0.182,0.929 c 0.203,0.018 0.491,0.046 0.863,0.084 0.373,0.037 0.636,0.094 0.79,0.169 0.284,0.121 0.503,0.3 0.657,0.534 0.154,0.234 0.263,0.525 0.328,0.872 l 2.905,14.539 c 0.016,0.075 0.028,0.152 0.037,0.232 0.008,0.08 0.012,0.162 0.012,0.246 0,0.206 -0.035,0.384 -0.104,0.534 -0.068,0.15 -0.192,0.282 -0.37,0.394 -0.195,0.122 -0.438,0.23 -0.73,0.324 -0.291,0.093 -0.551,0.15 -0.778,0.168 l 0.183,0.928 7.159,0 -0.182,-0.928 c -0.227,-0.009 -0.511,-0.051 -0.851,-0.126 -0.34,-0.075 -0.6,-0.146 -0.778,-0.211 -0.316,-0.122 -0.543,-0.314 -0.681,-0.577 -0.137,-0.262 -0.239,-0.543 -0.304,-0.843 l -1.239,-6.286 8.107,0 1.216,6.145 c 0.016,0.075 0.028,0.152 0.036,0.232 0.008,0.08 0.012,0.157 0.012,0.232 0,0.206 -0.034,0.387 -0.103,0.541 -0.069,0.155 -0.193,0.289 -0.371,0.401 -0.194,0.122 -0.437,0.23 -0.729,0.324 -0.292,0.093 -0.551,0.15 -0.778,0.168 l 0.182,0.928 7.16,0 z"
       style="fill:#000000;fill-opacity:1;fill-rule:nonzero;stroke:none"
       id="path256"
       inkscape:connector-curvature="0" /><path
       d="m 823.886,931.235 0,-1.196 -6.698,0 c -0.009,0.3 0.04,0.588 0.146,0.864 0.17,0.456 0.443,0.905 0.819,1.348 0.375,0.442 0.918,0.954 1.627,1.534 1.102,0.903 1.846,1.619 2.233,2.146 0.387,0.528 0.58,1.027 0.58,1.497 0,0.493 -0.176,0.909 -0.528,1.247 -0.353,0.339 -0.813,0.508 -1.379,0.508 -0.599,0 -1.078,-0.18 -1.438,-0.539 -0.359,-0.359 -0.541,-0.857 -0.546,-1.493 l -1.279,0.131 c 0.088,0.954 0.417,1.681 0.989,2.181 0.571,0.5 1.338,0.75 2.301,0.75 0.973,0 1.742,-0.27 2.309,-0.809 0.567,-0.539 0.85,-1.207 0.85,-2.004 0,-0.405 -0.083,-0.804 -0.249,-1.196 -0.166,-0.391 -0.441,-0.804 -0.826,-1.237 -0.385,-0.433 -1.024,-1.027 -1.918,-1.783 -0.746,-0.627 -1.225,-1.052 -1.437,-1.275 -0.212,-0.224 -0.387,-0.448 -0.526,-0.674 l 4.97,0 z"
       style="fill:#000000;fill-opacity:1;fill-rule:nonzero;stroke:none"
       id="path258"
       inkscape:connector-curvature="0" /><path
       d="m 755.822,754.001 0.134,-0.002 0.133,-0.005 0.133,-0.005 0.133,-0.008 0.132,-0.009 0.132,-0.011 0.131,-0.013 0.131,-0.014 0.13,-0.016 0.13,-0.017 0.13,-0.019 0.129,-0.021 0.128,-0.022 0.129,-0.023 0.127,-0.026 0.127,-0.027 0.126,-0.028 0.126,-0.03 0.125,-0.031 0.125,-0.033 0.124,-0.035 0.123,-0.036 0.123,-0.037 0.122,-0.039 0.122,-0.04 0.12,-0.042 0.121,-0.043 0.119,-0.045 0.119,-0.046 0.118,-0.047 0.117,-0.049 0.117,-0.05 0.116,-0.052 0.114,-0.052 0.115,-0.055 0.113,-0.055 0.113,-0.057 0.112,-0.058 0.111,-0.06 0.11,-0.061 0.11,-0.062 0.108,-0.063 0.108,-0.065 0.107,-0.066 0.106,-0.067 0.105,-0.068 0.104,-0.07 0.104,-0.07 0.102,-0.072 0.102,-0.073 0.1,-0.075 0.1,-0.075 0.099,-0.077 0.098,-0.078 0.097,-0.079 0.095,-0.08 0.095,-0.081 0.094,-0.082 0.093,-0.084 0.092,-0.084 0.091,-0.086 0.089,-0.086 0.089,-0.088 0.088,-0.089 0.086,-0.09 0.086,-0.09 0.085,-0.092 0.083,-0.093 0.082,-0.094 0.081,-0.095 0.08,-0.095 0.079,-0.097 0.078,-0.098 0.077,-0.099 0.075,-0.1 0.075,-0.1 0.073,-0.102 0.072,-0.102 0.07,-0.103 0.07,-0.105 0.068,-0.105 0.068,-0.106 0.066,-0.107 0.064,-0.108 0.064,-0.109 0.061,-0.109 0.061,-0.11 0.06,-0.111 0.058,-0.112 0.057,-0.113 0.055,-0.113 0.055,-0.115 0.053,-0.115 0.051,-0.116 0.05,-0.116 0.049,-0.118 0.048,-0.118 0.046,-0.118 0.044,-0.119 0.043,-0.121 0.042,-0.121 0.04,-0.121 0.039,-0.122 0.038,-0.122 0.036,-0.124 0.034,-0.124 0.033,-0.125 0.031,-0.125 0.03,-0.126 0.029,-0.126 0.026,-0.127 0.026,-0.128 0.023,-0.128 0.023,-0.128 0.02,-0.129 0.019,-0.13 0.018,-0.13 0.015,-0.13 0.014,-0.131 0.013,-0.131 0.011,-0.132 0.009,-0.133 0.008,-0.132 0.006,-0.133 0.004,-0.134 0.002,-0.133 10e-4,-0.134 -10e-4,-0.135 -0.002,-0.133 -0.004,-0.133 -0.006,-0.133 -0.008,-0.133 -0.009,-0.132 -0.011,-0.132 -0.013,-0.131 -0.014,-0.131 -0.015,-0.131 -0.018,-0.129 -0.019,-0.13 -0.02,-0.129 -0.023,-0.129 -0.023,-0.128 -0.026,-0.127 -0.026,-0.128 -0.029,-0.125 -0.03,-0.126 -0.031,-0.126 -0.033,-0.124 -0.034,-0.124 -0.036,-0.124 -0.038,-0.123 -0.039,-0.121 -0.04,-0.122 -0.042,-0.121 -0.043,-0.12 -0.044,-0.119 -0.046,-0.119 -0.048,-0.118 -0.049,-0.117 -0.05,-0.117 -0.051,-0.116 -0.053,-0.115 -0.055,-0.114 -0.055,-0.113 -0.057,-0.113 -0.058,-0.112 -0.06,-0.111 -0.061,-0.11 -0.061,-0.11 -0.064,-0.109 -0.065,-0.107 -0.065,-0.107 -0.068,-0.106 -0.068,-0.105 -0.07,-0.105 -0.07,-0.103 -0.072,-0.102 -0.073,-0.102 -0.075,-0.101 -0.075,-0.099 -0.077,-0.099 -0.078,-0.098 -0.079,-0.097 -0.08,-0.096 -0.081,-0.094 -0.082,-0.094 -0.083,-0.093 -0.085,-0.092 -0.086,-0.091 -0.086,-0.089 -0.088,-0.089 -0.089,-0.088 -0.089,-0.087 -0.091,-0.085 -0.092,-0.085 -0.093,-0.083 -0.094,-0.083 -0.095,-0.081 -0.095,-0.079 -0.097,-0.08 -0.098,-0.077 -0.099,-0.077 -0.1,-0.076 -0.1,-0.074 -0.102,-0.073 -0.102,-0.072 -0.104,-0.071 -0.104,-0.069 -0.105,-0.069 -0.106,-0.067 -0.107,-0.066 -0.108,-0.064 -0.108,-0.064 -0.11,-0.062 -0.11,-0.061 -0.111,-0.059 -0.112,-0.058 -0.113,-0.057 -0.113,-0.056 -0.115,-0.054 -0.115,-0.053 -0.115,-0.051 -0.117,-0.051 -0.117,-0.049 -0.118,-0.047 -0.119,-0.046 -0.12,-0.045 -0.12,-0.043 -0.12,-0.041 -0.122,-0.041 -0.122,-0.039 -0.123,-0.037 -0.123,-0.036 -0.124,-0.034 -0.125,-0.033 -0.125,-0.032 -0.126,-0.029 -0.126,-0.029 -0.127,-0.027 -0.127,-0.025 -0.128,-0.024 -0.129,-0.022 -0.129,-0.02 -0.13,-0.019 -0.13,-0.018 -0.13,-0.016 -0.131,-0.014 -0.131,-0.012 -0.132,-0.011 -0.132,-0.009 -0.133,-0.008 -0.133,-0.006 -0.133,-0.004 -0.134,-0.003 -0.134,0 -0.134,0 -0.134,0.003 -0.133,0.004 -0.133,0.006 -0.133,0.008 -0.132,0.009 -0.132,0.011 -0.131,0.012 -0.131,0.014 -0.131,0.016 -0.13,0.018 -0.129,0.019 -0.129,0.02 -0.129,0.022 -0.128,0.024 -0.127,0.025 -0.127,0.027 -0.126,0.029 -0.126,0.029 -0.126,0.032 -0.124,0.033 -0.124,0.034 -0.123,0.036 -0.123,0.037 -0.123,0.039 -0.121,0.041 -0.12,0.041 -0.121,0.043 -0.119,0.045 -0.119,0.046 -0.118,0.047 -0.117,0.049 -0.117,0.051 -0.115,0.051 -0.116,0.053 -0.114,0.054 -0.113,0.056 -0.113,0.057 -0.112,0.058 -0.111,0.059 -0.11,0.061 -0.11,0.062 -0.108,0.064 -0.108,0.064 -0.107,0.066 -0.106,0.067 -0.105,0.069 -0.105,0.069 -0.103,0.071 -0.102,0.072 -0.102,0.073 -0.1,0.074 -0.1,0.076 -0.099,0.077 -0.097,0.077 -0.098,0.079 -0.096,0.081 -0.094,0.08 -0.094,0.083 -0.093,0.083 -0.092,0.085 -0.091,0.085 -0.089,0.087 -0.089,0.088 -0.088,0.088 -0.086,0.09 -0.086,0.091 -0.085,0.092 -0.083,0.093 -0.082,0.094 -0.081,0.094 -0.08,0.096 -0.08,0.097 -0.077,0.098 -0.077,0.098 -0.075,0.1 -0.075,0.101 -0.073,0.102 -0.072,0.102 -0.071,0.103 -0.069,0.104 -0.069,0.106 -0.067,0.106 -0.066,0.107 -0.064,0.108 -0.064,0.108 -0.062,0.11 -0.061,0.11 -0.059,0.111 -0.058,0.112 -0.057,0.112 -0.056,0.114 -0.054,0.115 -0.053,0.114 -0.051,0.116 -0.05,0.117 -0.049,0.117 -0.048,0.118 -0.046,0.119 -0.044,0.119 -0.043,0.12 -0.042,0.121 -0.041,0.122 -0.038,0.121 -0.038,0.124 -0.036,0.123 -0.034,0.123 -0.033,0.125 -0.032,0.126 -0.029,0.126 -0.029,0.126 -0.027,0.127 -0.025,0.127 -0.023,0.128 -0.023,0.129 -0.02,0.129 -0.019,0.129 -0.018,0.13 -0.015,0.131 -0.015,0.131 -0.012,0.132 -0.011,0.131 -0.009,0.132 -0.008,0.132 -0.006,0.134 -0.004,0.133 -0.002,0.134 -10e-4,0.134 10e-4,0.134 0.002,0.133 0.004,0.134 0.006,0.133 0.008,0.133 0.009,0.131 0.011,0.132 0.012,0.132 0.015,0.131 0.015,0.13 0.018,0.13 0.019,0.13 0.02,0.129 0.023,0.129 0.023,0.127 0.025,0.127 0.027,0.128 0.029,0.126 0.029,0.126 0.032,0.126 0.033,0.124 0.034,0.123 0.036,0.124 0.038,0.123 0.038,0.122 0.041,0.122 0.042,0.12 0.043,0.12 0.044,0.12 0.046,0.119 0.048,0.118 0.048,0.117 0.051,0.116 0.051,0.116 0.053,0.115 0.054,0.114 0.056,0.114 0.057,0.113 0.058,0.112 0.059,0.111 0.061,0.11 0.062,0.109 0.064,0.109 0.064,0.108 0.066,0.107 0.067,0.106 0.069,0.105 0.069,0.105 0.071,0.102 0.072,0.103 0.073,0.102 0.075,0.1 0.075,0.1 0.076,0.098 0.078,0.098 0.08,0.098 0.079,0.095 0.082,0.095 0.082,0.094 0.083,0.093 0.085,0.092 0.086,0.09 0.086,0.09 0.088,0.089 0.088,0.087 0.09,0.087 0.091,0.086 0.092,0.084 0.093,0.084 0.094,0.082 0.094,0.081 0.096,0.08 0.097,0.079 0.098,0.078 0.099,0.077 0.1,0.075 0.1,0.075 0.102,0.073 0.102,0.072 0.103,0.07 0.105,0.07 0.105,0.068 0.106,0.067 0.107,0.066 0.108,0.065 0.108,0.063 0.11,0.062 0.11,0.061 0.111,0.06 0.112,0.058 0.113,0.057 0.113,0.055 0.114,0.055 0.115,0.053 0.116,0.051 0.117,0.05 0.117,0.049 0.118,0.047 0.119,0.046 0.119,0.045 0.121,0.043 0.12,0.042 0.121,0.04 0.123,0.039 0.123,0.038 0.123,0.035 0.124,0.035 0.125,0.033 0.125,0.031 0.126,0.03 0.126,0.028 0.127,0.027 0.127,0.026 0.129,0.023 0.128,0.022 0.129,0.021 0.129,0.019 0.131,0.017 0.13,0.016 0.131,0.014 0.131,0.013 0.132,0.011 0.132,0.009 0.133,0.008 0.133,0.005 0.133,0.005 0.134,0.002 0.134,10e-4 0.134,-10e-4 z m -0.243,-2 -0.108,-0.002 -0.108,-0.003 -0.108,-0.005 -0.107,-0.006 -0.107,-0.008 -0.107,-0.008 -0.106,-0.01 -0.106,-0.012 -0.105,-0.013 -0.105,-0.014 -0.105,-0.015 -0.104,-0.017 -0.104,-0.018 -0.103,-0.019 -0.103,-0.02 -0.102,-0.022 -0.102,-0.023 -0.102,-0.024 -0.101,-0.025 -0.1,-0.027 -0.1,-0.027 -0.1,-0.029 -0.099,-0.031 -0.098,-0.031 -0.098,-0.032 -0.098,-0.034 -0.097,-0.035 -0.096,-0.036 -0.096,-0.037 -0.095,-0.038 -0.095,-0.04 -0.094,-0.04 -0.093,-0.042 -0.093,-0.042 -0.092,-0.044 -0.092,-0.045 -0.091,-0.046 -0.09,-0.047 -0.09,-0.048 -0.089,-0.049 -0.088,-0.05 -0.088,-0.052 -0.087,-0.052 -0.087,-0.053 -0.085,-0.054 -0.085,-0.055 -0.085,-0.057 -0.083,-0.057 -0.083,-0.058 -0.082,-0.059 -0.081,-0.06 -0.081,-0.061 -0.08,-0.062 -0.079,-0.063 -0.078,-0.064 -0.078,-0.065 -0.077,-0.066 -0.076,-0.066 -0.075,-0.068 -0.074,-0.068 -0.073,-0.069 -0.073,-0.07 -0.072,-0.071 -0.071,-0.072 -0.07,-0.073 -0.069,-0.073 -0.069,-0.075 -0.067,-0.075 -0.067,-0.076 -0.065,-0.076 -0.065,-0.078 -0.064,-0.078 -0.063,-0.079 -0.062,-0.08 -0.061,-0.081 -0.06,-0.081 -0.059,-0.082 -0.058,-0.083 -0.058,-0.084 -0.056,-0.084 -0.055,-0.085 -0.054,-0.086 -0.054,-0.086 -0.052,-0.087 -0.051,-0.088 -0.05,-0.088 -0.049,-0.089 -0.048,-0.09 -0.047,-0.09 -0.046,-0.091 -0.045,-0.092 -0.044,-0.092 -0.043,-0.093 -0.041,-0.094 -0.041,-0.094 -0.039,-0.094 -0.038,-0.096 -0.037,-0.095 -0.036,-0.097 -0.035,-0.097 -0.034,-0.097 -0.032,-0.098 -0.032,-0.099 -0.03,-0.099 -0.029,-0.099 -0.028,-0.1 -0.026,-0.101 -0.026,-0.101 -0.024,-0.101 -0.023,-0.102 -0.021,-0.103 -0.021,-0.102 -0.019,-0.104 -0.018,-0.103 -0.016,-0.105 -0.016,-0.104 -0.014,-0.105 -0.012,-0.106 -0.012,-0.106 -0.01,-0.106 -0.009,-0.106 -0.007,-0.107 -0.006,-0.108 -0.005,-0.107 -0.004,-0.108 -0.002,-0.109 0,-0.108 0,-0.109 0.002,-0.108 0.004,-0.108 0.005,-0.108 0.006,-0.107 0.007,-0.107 0.009,-0.107 0.01,-0.106 0.012,-0.106 0.012,-0.105 0.014,-0.105 0.016,-0.105 0.016,-0.104 0.018,-0.104 0.019,-0.103 0.021,-0.103 0.021,-0.102 0.023,-0.102 0.024,-0.102 0.026,-0.101 0.026,-0.1 0.028,-0.1 0.029,-0.1 0.03,-0.099 0.032,-0.098 0.032,-0.098 0.034,-0.098 0.035,-0.097 0.036,-0.096 0.037,-0.096 0.038,-0.095 0.039,-0.095 0.041,-0.094 0.041,-0.093 0.043,-0.093 0.044,-0.092 0.045,-0.092 0.046,-0.091 0.047,-0.09 0.048,-0.09 0.049,-0.089 0.05,-0.089 0.051,-0.087 0.052,-0.087 0.054,-0.087 0.054,-0.085 0.055,-0.085 0.056,-0.085 0.058,-0.083 0.058,-0.083 0.059,-0.082 0.06,-0.082 0.061,-0.08 0.062,-0.08 0.063,-0.079 0.064,-0.078 0.065,-0.078 0.065,-0.077 0.067,-0.076 0.067,-0.075 0.069,-0.074 0.069,-0.074 0.07,-0.072 0.071,-0.072 0.072,-0.071 0.073,-0.07 0.073,-0.069 0.074,-0.069 0.075,-0.067 0.076,-0.067 0.077,-0.065 0.078,-0.065 0.078,-0.064 0.079,-0.063 0.08,-0.062 0.081,-0.061 0.081,-0.06 0.082,-0.059 0.083,-0.059 0.083,-0.057 0.085,-0.056 0.085,-0.055 0.085,-0.054 0.087,-0.054 0.087,-0.052 0.088,-0.051 0.088,-0.05 0.089,-0.049 0.09,-0.048 0.09,-0.047 0.091,-0.046 0.092,-0.045 0.092,-0.044 0.093,-0.043 0.093,-0.041 0.094,-0.041 0.095,-0.039 0.095,-0.038 0.096,-0.038 0.096,-0.036 0.097,-0.034 0.098,-0.034 0.098,-0.033 0.098,-0.031 0.099,-0.03 0.1,-0.029 0.1,-0.028 0.1,-0.026 0.101,-0.026 0.102,-0.024 0.102,-0.023 0.102,-0.021 0.103,-0.021 0.103,-0.019 0.104,-0.018 0.104,-0.016 0.105,-0.016 0.105,-0.014 0.105,-0.013 0.106,-0.011 0.106,-0.01 0.107,-0.009 0.107,-0.007 0.107,-0.006 0.108,-0.005 0.108,-0.004 0.108,-0.002 0.109,0 0.109,0 0.108,0.002 0.108,0.004 0.108,0.005 0.107,0.006 0.107,0.007 0.106,0.009 0.107,0.01 0.105,0.011 0.106,0.013 0.105,0.014 0.104,0.016 0.105,0.016 0.103,0.018 0.104,0.019 0.103,0.021 0.102,0.021 0.102,0.023 0.101,0.024 0.101,0.026 0.101,0.026 0.1,0.028 0.1,0.029 0.099,0.03 0.098,0.031 0.098,0.033 0.098,0.034 0.096,0.034 0.097,0.036 0.096,0.038 0.095,0.038 0.094,0.039 0.094,0.041 0.094,0.041 0.093,0.043 0.092,0.044 0.092,0.045 0.091,0.046 0.09,0.047 0.09,0.048 0.089,0.049 0.088,0.05 0.088,0.051 0.087,0.052 0.086,0.054 0.086,0.054 0.085,0.055 0.084,0.056 0.084,0.057 0.083,0.059 0.082,0.059 0.081,0.06 0.081,0.061 0.08,0.062 0.079,0.063 0.078,0.064 0.078,0.065 0.076,0.065 0.076,0.067 0.076,0.067 0.074,0.069 0.073,0.069 0.073,0.07 0.072,0.071 0.071,0.072 0.07,0.072 0.069,0.074 0.068,0.074 0.068,0.075 0.066,0.076 0.066,0.077 0.065,0.078 0.064,0.078 0.063,0.079 0.062,0.08 0.061,0.08 0.06,0.082 0.059,0.082 0.058,0.083 0.057,0.083 0.057,0.085 0.055,0.085 0.054,0.085 0.053,0.087 0.053,0.087 0.051,0.087 0.05,0.089 0.049,0.089 0.048,0.09 0.047,0.09 0.046,0.091 0.045,0.092 0.044,0.092 0.042,0.093 0.042,0.093 0.041,0.094 0.039,0.095 0.038,0.095 0.037,0.096 0.036,0.096 0.035,0.097 0.034,0.098 0.032,0.098 0.032,0.098 0.03,0.099 0.029,0.1 0.028,0.1 0.026,0.1 0.025,0.101 0.025,0.102 0.022,0.102 0.022,0.102 0.02,0.103 0.02,0.103 0.018,0.104 0.016,0.104 0.015,0.105 0.014,0.105 0.013,0.105 0.012,0.106 0.01,0.106 0.009,0.107 0.007,0.107 0.006,0.107 0.005,0.108 0.003,0.108 0.002,0.108 10e-4,0.109 -10e-4,0.108 -0.002,0.109 -0.003,0.108 -0.005,0.107 -0.006,0.108 -0.007,0.107 -0.009,0.106 -0.01,0.106 -0.012,0.106 -0.013,0.106 -0.014,0.105 -0.015,0.104 -0.016,0.105 -0.018,0.103 -0.02,0.104 -0.02,0.102 -0.022,0.103 -0.022,0.102 -0.025,0.101 -0.025,0.101 -0.026,0.101 -0.028,0.1 -0.029,0.099 -0.03,0.099 -0.032,0.099 -0.032,0.098 -0.034,0.097 -0.035,0.097 -0.036,0.097 -0.037,0.095 -0.038,0.096 -0.039,0.094 -0.041,0.094 -0.042,0.094 -0.042,0.093 -0.044,0.092 -0.045,0.092 -0.046,0.091 -0.047,0.09 -0.048,0.09 -0.049,0.089 -0.05,0.088 -0.051,0.088 -0.053,0.087 -0.053,0.086 -0.054,0.086 -0.055,0.085 -0.057,0.084 -0.057,0.084 -0.058,0.083 -0.059,0.082 -0.06,0.081 -0.061,0.081 -0.062,0.08 -0.063,0.079 -0.064,0.078 -0.065,0.078 -0.066,0.076 -0.066,0.076 -0.068,0.075 -0.068,0.075 -0.069,0.073 -0.07,0.073 -0.071,0.072 -0.072,0.071 -0.073,0.07 -0.073,0.069 -0.074,0.068 -0.076,0.068 -0.076,0.066 -0.076,0.066 -0.078,0.065 -0.078,0.064 -0.079,0.063 -0.08,0.062 -0.081,0.061 -0.081,0.06 -0.082,0.059 -0.083,0.058 -0.084,0.057 -0.084,0.057 -0.085,0.055 -0.086,0.054 -0.086,0.053 -0.087,0.052 -0.088,0.052 -0.088,0.05 -0.089,0.049 -0.09,0.048 -0.09,0.047 -0.091,0.046 -0.092,0.045 -0.092,0.044 -0.093,0.042 -0.094,0.042 -0.094,0.04 -0.094,0.04 -0.095,0.038 -0.096,0.037 -0.097,0.036 -0.096,0.035 -0.098,0.034 -0.098,0.032 -0.098,0.031 -0.099,0.031 -0.1,0.029 -0.1,0.027 -0.101,0.027 -0.101,0.025 -0.101,0.024 -0.102,0.023 -0.102,0.022 -0.103,0.02 -0.104,0.019 -0.103,0.018 -0.105,0.017 -0.104,0.015 -0.105,0.014 -0.106,0.013 -0.105,0.012 -0.107,0.01 -0.106,0.008 -0.107,0.008 -0.107,0.006 -0.108,0.005 -0.108,0.003 -0.108,0.002 -0.109,10e-4 -0.109,-10e-4 z"
       style="fill:#ff3c58;fill-opacity:1;fill-rule:evenodd;stroke:none"
       id="path260"
       inkscape:connector-curvature="0" /><path
       d="m 20.3611,940.506 c 0.2591,1.004 0.6235,1.806 1.0933,2.405 0.4697,0.599 1.0123,1.053 1.6278,1.36 0.6155,0.308 1.3119,0.503 2.0894,0.584 0.7775,0.081 1.6035,0.121 2.4782,0.121 0.8422,0 1.6764,-0.089 2.5024,-0.267 0.8261,-0.178 1.5711,-0.478 2.2352,-0.899 0.6641,-0.421 1.1986,-0.98 1.6035,-1.677 0.4049,-0.696 0.6074,-1.546 0.6074,-2.551 l 0,-8.989 c 0,-0.615 0.162,-1.158 0.4859,-1.628 0.324,-0.47 0.8261,-0.704 1.5063,-0.704 0.6479,0 1.2229,0.186 1.725,0.558 0.5021,0.373 0.98,0.737 1.4335,1.094 l 0.4859,-0.535 c -0.324,-0.324 -0.7046,-0.704 -1.1419,-1.142 -0.4373,-0.437 -0.8989,-0.858 -1.3849,-1.263 -0.4859,-0.405 -0.9799,-0.745 -1.482,-1.02 -0.5021,-0.276 -0.9961,-0.413 -1.482,-0.413 -0.324,0 -0.6641,0.105 -1.0204,0.315 -0.3564,0.211 -0.7046,0.462 -1.0448,0.754 -0.3401,0.291 -0.6559,0.599 -0.9475,0.923 -0.2915,0.324 -0.5507,0.599 -0.7774,0.826 -1.0367,-0.713 -2.2028,-1.361 -3.4986,-1.944 -1.2958,-0.583 -2.5592,-0.874 -3.7901,-0.874 -0.6803,0 -1.3363,0.113 -1.968,0.34 -0.6317,0.226 -1.1905,0.55 -1.6764,0.971 -0.4859,0.422 -0.8746,0.924 -1.1662,1.507 -0.2915,0.583 -0.4373,1.247 -0.4373,1.992 0,1.328 0.3725,2.389 1.1176,3.183 0.7451,0.793 1.7088,1.401 2.8912,1.822 1.1824,0.421 2.5267,0.705 4.0331,0.85 1.5063,0.146 3.0207,0.235 4.5432,0.268 l 0,3.692 c 0,1.199 -0.3725,2.122 -1.1175,2.77 -0.7451,0.648 -1.6845,0.972 -2.8183,0.972 -0.8423,0 -1.5064,-0.421 -1.9923,-1.263 -0.4859,-0.843 -0.7289,-1.798 -0.7289,-2.867 l -3.9844,0.729 z m 10.5443,-5.928 c -1.069,0.291 -2.1542,0.437 -3.2556,0.437 -0.6155,0 -1.231,-0.073 -1.8465,-0.219 -0.6155,-0.146 -1.1662,-0.38 -1.6521,-0.704 -0.4859,-0.324 -0.8828,-0.737 -1.1905,-1.239 -0.3077,-0.503 -0.4616,-1.11 -0.4616,-1.823 0,-1.101 0.3806,-1.887 1.1419,-2.356 0.7612,-0.47 1.6116,-0.705 2.551,-0.705 1.0366,0 1.9842,0.211 2.8426,0.632 0.8584,0.421 1.482,0.777 1.8708,1.069 l 0,4.908 z"
       style="fill:#000000;fill-opacity:1;fill-rule:nonzero;stroke:none"
       id="path262"
       inkscape:connector-curvature="0" /><path
       d="m 40.3807,917.085 c 1.5873,1.619 2.9721,3.239 4.1545,4.859 1.1824,1.619 2.1623,3.28 2.9398,4.98 0.7774,1.701 1.3605,3.475 1.7493,5.321 0.3887,1.847 0.5831,3.823 0.5831,5.928 0,2.203 -0.2349,4.284 -0.7046,6.244 -0.4697,1.96 -1.1257,3.815 -1.9679,5.564 -0.8423,1.749 -1.8465,3.393 -3.0127,4.932 -1.1662,1.539 -2.462,2.988 -3.8873,4.349 l 0.6317,0.486 c 1.7169,-1.426 3.369,-2.908 4.9563,-4.446 1.5873,-1.539 2.9964,-3.183 4.2274,-4.932 1.231,-1.75 2.2109,-3.628 2.9398,-5.637 0.7289,-2.008 1.0933,-4.195 1.0933,-6.56 0,-2.235 -0.3725,-4.381 -1.1176,-6.438 -0.7451,-2.057 -1.7331,-4.001 -2.9641,-5.831 -1.2309,-1.83 -2.6401,-3.523 -4.2274,-5.078 -1.5873,-1.555 -3.2394,-2.964 -4.9563,-4.227 l -0.4373,0.486 z"
       style="fill:#000000;fill-opacity:1;fill-rule:nonzero;stroke:none"
       id="path264"
       inkscape:connector-curvature="0" /><path
       d="m 553.508,959.408 7.58,0.923 c -0.065,-3.045 -0.105,-6.058 -0.121,-9.038 -0.016,-2.98 -0.057,-5.993 -0.122,-9.038 0.875,0.648 1.839,1.166 2.891,1.555 1.053,0.389 2.211,0.583 3.475,0.583 1.425,0 2.745,-0.227 3.96,-0.68 1.215,-0.454 2.268,-1.077 3.158,-1.871 0.891,-0.794 1.588,-1.749 2.09,-2.867 0.502,-1.118 0.753,-2.34 0.753,-3.669 0,-1.717 -0.275,-3.215 -0.826,-4.494 -0.551,-1.28 -1.296,-2.357 -2.235,-3.232 -0.94,-0.874 -2.057,-1.53 -3.353,-1.968 -1.296,-0.437 -2.673,-0.656 -4.13,-0.656 -1.069,0 -2.122,0.122 -3.159,0.365 -1.036,0.243 -1.992,0.534 -2.867,0.875 -0.874,0.34 -1.611,0.68 -2.211,1.02 -0.599,0.34 -0.996,0.607 -1.19,0.802 l 0,27.842 c 0,1.134 -0.308,1.912 -0.923,2.333 -0.616,0.421 -1.539,0.632 -2.77,0.632 l 0,0.583 z m 19.388,-24.733 c 0,1.198 -0.146,2.3 -0.437,3.304 -0.292,1.004 -0.705,1.871 -1.239,2.6 -0.535,0.728 -1.183,1.303 -1.944,1.725 -0.761,0.421 -1.612,0.631 -2.551,0.631 -1.037,0 -1.944,-0.129 -2.721,-0.389 -0.778,-0.259 -1.418,-0.704 -1.92,-1.336 -0.502,-0.631 -0.882,-1.482 -1.142,-2.551 -0.259,-1.069 -0.388,-2.397 -0.388,-3.984 0,-1.588 0.129,-2.908 0.388,-3.961 0.26,-1.052 0.64,-1.895 1.142,-2.526 0.502,-0.632 1.142,-1.085 1.92,-1.361 0.777,-0.275 1.684,-0.413 2.721,-0.413 0.939,0 1.79,0.211 2.551,0.632 0.761,0.421 1.409,0.996 1.944,1.725 0.534,0.729 0.947,1.595 1.239,2.599 0.291,1.005 0.437,2.106 0.437,3.305 z"
       style="fill:#000000;fill-opacity:1;fill-rule:nonzero;stroke:none"
       id="path274"
       inkscape:connector-curvature="0" /><path
       d="m 579.796,916.502 c 1.587,1.619 2.972,3.239 4.154,4.859 1.183,1.619 2.163,3.28 2.94,4.98 0.778,1.701 1.361,3.475 1.749,5.321 0.389,1.846 0.584,3.823 0.584,5.928 0,2.203 -0.235,4.284 -0.705,6.244 -0.47,1.96 -1.126,3.815 -1.968,5.564 -0.842,1.749 -1.846,3.393 -3.013,4.932 -1.166,1.539 -2.462,2.988 -3.887,4.349 l 0.632,0.486 c 1.717,-1.426 3.369,-2.908 4.956,-4.446 1.587,-1.539 2.997,-3.183 4.228,-4.932 1.231,-1.75 2.21,-3.629 2.939,-5.637 0.729,-2.008 1.094,-4.195 1.094,-6.56 0,-2.235 -0.373,-4.381 -1.118,-6.438 -0.745,-2.057 -1.733,-4.001 -2.964,-5.831 -1.231,-1.83 -2.64,-3.523 -4.228,-5.078 -1.587,-1.555 -3.239,-2.964 -4.956,-4.227 l -0.437,0.486 z"
       style="fill:#000000;fill-opacity:1;fill-rule:nonzero;stroke:none"
       id="path276"
       inkscape:connector-curvature="0" /></g></svg>